<svg xmlns="http://www.w3.org/2000/svg" id="Layer_1" viewBox="0 0 860 1080"><defs><style>      .st0 {        fill: #f17e52;      }      .st1 {        fill: #a7c2bd;      }      .st2 {        fill: #e8efea;      }      .st3 {        fill: #00bff2;      }      .st4 {        fill: #bed4d0;      }      .st5 {        fill: #4a596e;      }      .st6 {        fill: none;        stroke: #e8efea;        stroke-linecap: round;        stroke-miterlimit: 10;        stroke-width: 7px;      }      .st7 {        fill: #34b219;      }      .st8 {        fill: #cadbd4;      }    </style></defs><g id="buildings"><path class="st4" d="M580.4,684v-363.3c0,0-84.5.2-84.5.2v-97c.1,0-336.5-104.2-336.5-104.2l1,180.2h-78.8l1,316.9H-41.2l-.2,463.2h690.9l1.6-396h-70.7,0Z"></path><path class="st4" d="M-41.4,120.8h204.7v641.2H-41.4V120.8Z"></path><g><path class="st2" d="M24,614.9c0,4.4-3.6,8-8,8h0c-4.4,0-8-3.6-8-8V150.1c0-4.4,3.6-8,8-8h0c4.4,0,8,3.6,8,8v464.9h0Z"></path><path class="st2" d="M54.2,614.9c0,4.4-3.6,8-8,8h0c-4.4,0-8-3.6-8-8V150.1c0-4.4,3.6-8,8-8h0c4.4,0,8,3.6,8,8v464.9h0Z"></path><path class="st1" d="M84.5,614.9c0,4.4-3.6,8-8,8h0c-4.4,0-8-3.6-8-8V150.1c0-4.4,3.6-8,8-8h0c4.4,0,8,3.6,8,8v464.9h0Z"></path><path class="st1" d="M114.8,614.9c0,4.4-3.6,8-8,8h0c-4.4,0-8-3.6-8-8V150.1c0-4.4,3.6-8,8-8h0c4.4,0,8,3.6,8,8v464.9h0Z"></path><path class="st1" d="M145,614.9c0,4.4-3.6,8-8,8h0c-4.4,0-8-3.6-8-8V150.1c0-4.4,3.6-8,8-8h0c4.4,0,8,3.6,8,8v464.9h0Z"></path></g><path class="st4" d="M383.2,190.9c0,3.6-3,6.6-6.6,6.6h0c-3.6,0-6.6-2.9-6.6-6.6v-92.2c0-3.6,3-6.6,6.6-6.6h0c3.6,0,6.6,2.9,6.6,6.6v92.2Z"></path><path class="st4" d="M81,98.7c0,3.6-2.9,6.6-6.6,6.6h0c-3.6,0-6.6-2.9-6.6-6.6V6.6c0-3.6,2.9-6.6,6.6-6.6h0c3.6,0,6.6,3,6.6,6.6v92.2h0Z"></path><path class="st4" d="M407.3,201.9c0,3.6-3,6.6-6.6,6.6h0c-3.6,0-6.6-2.9-6.6-6.6v-62.5c0-3.6,3-6.6,6.6-6.6h0c3.6,0,6.6,2.9,6.6,6.6v62.5Z"></path><path class="st1" d="M413.4,262.2v-64l82.7,26-82.7,38h0Z"></path><path class="st4" d="M163.9,1079.2h194.1V262L163.9,126.3v952.9h0Z"></path><g><path class="st2" d="M163.9,248.8h200.6v12.1h-200.6v-12.1h0Z"></path><path class="st2" d="M163.9,281.8h200.6v12.1h-200.6v-12.1Z"></path><path class="st2" d="M163.9,314.8h200.6v12.1h-200.6v-12.1Z"></path><path class="st2" d="M163.9,347.8h200.6v12.1h-200.6v-12.1Z"></path><path class="st2" d="M163.9,380.9h200.6v12.1h-200.6v-12.1Z"></path><path class="st2" d="M163.9,413.9h200.6v12.1h-200.6v-12.1Z"></path><path class="st2" d="M163.9,446.9h200.6v12.1h-200.6v-12.1Z"></path><path class="st2" d="M163.9,479.9h200.6v12.1h-200.6v-12.1Z"></path><path class="st2" d="M163.9,513h200.6v12.1h-200.6v-12.1Z"></path><path class="st2" d="M163.9,546h200.6v12.1h-200.6v-12.1Z"></path><path class="st2" d="M163.9,579h200.6v12.1h-200.6v-12.1Z"></path><path class="st2" d="M163.9,612h200.6v12.1h-200.6v-12.1Z"></path><path class="st2" d="M163.9,645h200.6v12.1h-200.6v-12.1Z"></path><path class="st2" d="M163.9,678.1h200.6v12.1h-200.6v-12.1Z"></path><path class="st2" d="M163.9,711.1h200.6v12.1h-200.6v-12.1Z"></path><path class="st2" d="M163.9,744.1h200.6v12.1h-200.6v-12.1Z"></path><path class="st2" d="M163.9,777.1h200.6v12.1h-200.6v-12.1Z"></path><path class="st2" d="M163.9,810.1h200.6v12.1h-200.6v-12.1Z"></path><path class="st2" d="M163.9,843.2h200.6v12.1h-200.6v-12.1Z"></path><path class="st2" d="M163.9,876.2h200.6v12.1h-200.6v-12.1Z"></path><path class="st2" d="M163.9,909.2h200.6v12.1h-200.6v-12.1Z"></path><path class="st2" d="M163.9,942.2h200.6v12.1h-200.6v-12.1Z"></path><path class="st2" d="M163.9,975.2h200.6v12.1h-200.6v-12.1Z"></path><path class="st2" d="M163.9,1008.3h200.6v12.1h-200.6v-12.1Z"></path><path class="st2" d="M163.9,1041.3h200.6v12.1h-200.6v-12.1Z"></path></g><path class="st1" d="M163.9,121l109.8,126.2v743.8l-109.8.4V121h0Z"></path><path class="st2" d="M162.9,120.2l111.5,129,98.2.2L162.9,120.2Z"></path><path class="st2" d="M413.2,198.1c.1,0-52.1-15.9-52.1-16.3l.2,898.1h51.6l.3-881.8h0Z"></path><g><path class="st8" d="M163.9,248.8h109.8v12.1h-109.8v-12.1h0Z"></path><path class="st8" d="M163.9,281.8h109.8v12.1h-109.8v-12.1h0Z"></path><path class="st8" d="M163.9,314.8h109.8v12.1h-109.8v-12.1h0Z"></path><path class="st8" d="M163.9,347.8h109.8v12.1h-109.8v-12.1h0Z"></path><path class="st8" d="M163.9,380.9h109.8v12.1h-109.8v-12.1h0Z"></path><path class="st8" d="M163.9,413.9h109.8v12.1h-109.8v-12.1h0Z"></path><path class="st8" d="M163.9,446.9h109.8v12.1h-109.8v-12.1h0Z"></path><path class="st8" d="M163.9,479.9h109.8v12.1h-109.8v-12.1h0Z"></path><path class="st8" d="M163.9,513h109.8v12.1h-109.8v-12.1h0Z"></path><path class="st8" d="M163.9,546h109.8v12.1h-109.8v-12.1h0Z"></path><path class="st8" d="M163.9,579h109.8v12.1h-109.8v-12.1h0Z"></path><path class="st8" d="M163.9,612h109.8v12.1h-109.8v-12.1h0Z"></path><path class="st8" d="M163.9,645h109.8v12.1h-109.8v-12.1h0Z"></path><path class="st8" d="M163.9,678.1h109.8v12.1h-109.8v-12.1h0Z"></path><path class="st8" d="M163.9,711.1h109.8v12.1h-109.8v-12.1h0Z"></path><path class="st8" d="M163.9,744.1h109.8v12.1h-109.8v-12.1h0Z"></path><path class="st8" d="M163.9,777.1h109.8v12.1h-109.8v-12.1h0Z"></path><path class="st8" d="M163.9,810.1h109.8v12.1h-109.8v-12.1h0Z"></path><path class="st8" d="M163.9,843.2h109.8v12.1h-109.8v-12.1h0Z"></path><path class="st8" d="M163.9,876.2h109.8v12.1h-109.8v-12.1h0Z"></path><path class="st8" d="M163.9,909.2h109.8v12.1h-109.8v-12.1h0Z"></path><path class="st8" d="M163.9,942.2h109.8v12.1h-109.8v-12.1h0Z"></path><path class="st8" d="M163.9,975.2h109.8v12.1h-109.8v-12.1h0Z"></path><path class="st8" d="M163.9,1008.3h109.8v12.1h-109.8v-12.1h0Z"></path><path class="st8" d="M163.9,1041.3h109.8v12.1h-109.8v-12.1h0Z"></path></g><g><path class="st4" d="M96,623.9h178.3v454H96v-454Z"></path><g><path class="st2" d="M101.4,646.3h28.6v62h-28.7v-62h0Z"></path><path class="st2" d="M143.8,646.3h28.6v62h-28.6v-62Z"></path><path class="st2" d="M186.1,646.3h28.6v62h-28.6v-62Z"></path><path class="st2" d="M228.5,646.3h28.7v62h-28.6v-62h-.1Z"></path><path class="st2" d="M101.4,732.5h28.6v62h-28.7v-62h0Z"></path><path class="st2" d="M143.8,732.5h28.6v62h-28.6v-62Z"></path><path class="st2" d="M186.1,732.5h28.6v62h-28.6v-62Z"></path><path class="st2" d="M228.5,732.5h28.7v62h-28.6v-62h-.1Z"></path><path class="st2" d="M101.4,818.7h28.6v62h-28.7v-62h0Z"></path><path class="st2" d="M143.8,818.7h28.6v62h-28.6v-62Z"></path><path class="st2" d="M186.1,818.7h28.6v62h-28.6v-62Z"></path><path class="st2" d="M228.5,818.7h28.7v62h-28.6v-62h-.1Z"></path><path class="st2" d="M101.4,905h28.6v62h-28.7v-62h0Z"></path><path class="st2" d="M143.8,905h28.6v62h-28.6v-62Z"></path><path class="st2" d="M186.1,905h28.6v62h-28.6v-62Z"></path><path class="st2" d="M228.5,905h28.7v62h-28.6v-62h-.1Z"></path><path class="st2" d="M101.4,991.3h28.6v62h-28.7v-62h0Z"></path><path class="st2" d="M143.8,991.3h28.6v62h-28.6v-62h0Z"></path><path class="st2" d="M186.1,991.3h28.6v62h-28.6v-62h0Z"></path><path class="st2" d="M228.5,991.3h28.7v62h-28.6v-62h-.1Z"></path></g><path class="st4" d="M95.8,624.3l-71.8-66.8-64.3,69.4-1.1,452.8,137.2.3s0-455.7,0-455.7Z"></path><path class="st2" d="M274.1,624.3H95.7l-71.4-66.9h182.4l67.4,66.9h0Z"></path></g><path class="st4" d="M-41.4,92.2h205.2v32.5H-41.4v-32.5Z"></path><path class="st4" d="M-11.5,63.6h145.5v34.2H-11.5v-34.2Z"></path><path class="st4" d="M18.3,34.9h85.8v30H18.3v-30Z"></path><path class="st1" d="M140.7,92.2v-28.6h-23.1v-28.6h-50.2v85.8l97,.2v-28.6h-23.7v-.2Z"></path><path class="st2" d="M412.8,512.4h133.1v11h-133.1v-11h0Z"></path><path class="st2" d="M412.8,723.7h133.1v11h-133.1v-11h0Z"></path><path class="st2" d="M412.8,935.1h133.1v11h-133.1v-11h0Z"></path><path class="st2" d="M540.8,359.1v164.2h18.7v-149.1l-18.7-15.1h0Z"></path><path class="st2" d="M540.8,570.6v164.2h18.7v-149.1l-18.7-15.1Z"></path><path class="st2" d="M540.8,781.8v164.2h18.7v-149.1l-18.7-15.1h0Z"></path></g><g id="Layer_5"><rect class="st2" x="361.1" y="1040.5" width="51.7" height="110"></rect></g><g><line class="st6" x1="411.8" y1="467.3" x2="441.3" y2="433.5"></line><g><g><path class="st3" d="M522.7,459.6c-1.4-1.2-3.5-3.8-4.3-2.7-1,1-4.4,27.9,1.4,35.6,8,10.5,25.2,5,25.2-8.6,0-10.6-21.1-23.1-22.3-24.2"></path><path class="st3" d="M525.4,456.2c.9.3,8,1.1,8.2.3.4-1.1-1.8-4.8-2.9-5.5-.6-.3-7,.2-7,2.6,0,.1.9,2.2,1.7,2.5"></path></g><path class="st5" d="M485.7,400.9c4.2.2,7.9-2.8,8.2-8.3.3-5.5-2.7-11.4-6.9-11.7-4.2-.2-7.9,2.8-8.2,8.3-.4,5.6,2.6,11.5,6.9,11.7"></path><path class="st5" d="M497.5,405.8l2.9,14.8c6.5,2.1,11.2,19.5,12.1,27.5.6,5.3,7.5,4.4,7.6-.7.6-18.2-10.2-39.3-22.6-41.6h0Z"></path><path class="st5" d="M473.2,403.6c-.5.3-1.3,1.1-1.7,1.6-7.1,12.7-16.9,29.5-22.5,28.8-6.1-.8-6.8,7.3-1.7,8.6,12.3,3,25.6-21.7,27.3-25l-1.4-14.1h0Z"></path><path class="st5" d="M511.5,504.9c-4-16.2-6.2-35-6.2-47.8s-4.6-34.7-4.9-36.5h0l-3-14.9c-4.3-.8-16.1-2.8-17.6-3.1-1.6-.2-4.8-.4-6.9.9l1.4,14.2c.5,2,6.8,23.1,5.7,34.2-.5,4.9-1.4,13.6-2.3,22.1-1.1,10.3-.1,25.2.4,30.7h-2.5c-2.2.1-3.9,2.3-3.9,4.5s1.9,4.2,4.1,4.2h5.5c1.2,0,3.3-.7,4.1-1.5,1.9-2.3,2.1-3.1,1.8-5.6-.5-6.6-.1-15.2.3-19.9,1-8.5,1.9-20.5,4.1-26.3,0,0,6.6,33.8,10.4,44.9l-1.3.2c-2.2.3-4.3,2.5-4,4.7.3,2.2,2.6,3.9,4.8,3.7l6.2-1.2c1.1,0,1.9-.8,2.6-1.5,1.2-1.2,1.8-3.2,1.1-5.9h0Z"></path></g></g><g><path class="st0" d="M396,698.4c-.5-2.2-.7-6-2.3-5.9-1.6.2-24,21.4-23.7,32.7.4,15.6,21.2,24.2,30.9,12.1,7.5-9.5-4.4-37.1-4.9-38.9"></path><path class="st0" d="M396.2,691c2.4,0,2.7-7.2,2.3-7.9-.6-1.1-4.5-3.4-5.6-3-.7.3.4,8.2.8,9.2.4.9,2.5,1.7,2.5,1.7"></path></g><g><path class="st7" d="M385.8,901.8c-1.3-1.9-2.8-5.4-4.3-4.6-1.5.8-14.6,28.6-10.2,39.1,6.1,14.4,28.5,14.9,33.1,0,3.6-11.6-17.5-32.9-18.6-34.5"></path><path class="st7" d="M383.3,894.9c2.2-1-.1-7.7-.7-8.2-1-.8-5.4-1.6-6.3-.7-.6.6,3.3,7.5,4,8.3.8.6,3,.6,3,.6"></path></g><g><path class="st3" d="M381.1,532.8c-1.5-1.7-3.6-4.9-4.9-3.9s-10.4,30.4-4.5,40.1c8.1,13.4,30.4,10.6,32.8-4.7,1.8-12-22.1-30.1-23.4-31.5"></path><path class="st3" d="M377.7,526.3c2.1-1.3-1.2-7.6-1.9-8-1.1-.6-5.6-.8-6.3.2-.5.6,4.4,7,5.2,7.6.7.6,3,.2,3,.2"></path></g></svg>