<svg xmlns="http://www.w3.org/2000/svg" xmlns:xlink="http://www.w3.org/1999/xlink" id="Layer_1" x="0px" y="0px" viewBox="0 0 861 933.4" style="enable-background:new 0 0 861 933.4;" xml:space="preserve"> <style type="text/css"> .st0{fill:#4A596E;} .st1{fill:none;stroke:#E8EFEA;stroke-width:3.8285;stroke-linecap:round;stroke-linejoin:round;stroke-miterlimit:10;} .st2{fill:#E8EFEA;} .st3{fill:#0DB14B;} .st4{fill:#F48220;} .st5{fill:#00BFF2;} .st6{fill:#00ADEF;} .st7{fill:none;stroke:#4A596E;stroke-width:10;stroke-miterlimit:10;} .st8{fill:none;stroke:#4A596E;stroke-width:17.2281;stroke-linecap:round;stroke-linejoin:round;stroke-miterlimit:10;} .st9{fill:#49A447;} .st10{fill:#F17E52;} .st11{fill:#BDC8D4;} </style> <path class="st0" d="M821.2,879.1c0,6.5-5.1,11.7-11.5,11.7H653.7c-6.3,0-11.5-5.2-11.5-11.7V757.5c0-6.5,5.1-11.7,11.5-11.7h156.1 c6.3,0,11.5,5.2,11.5,11.7V879.1L821.2,879.1z"></path> <g> <line class="st1" x1="522.8" y1="674.2" x2="522.8" y2="37"></line> <line class="st1" x1="534.7" y1="674.1" x2="534.7" y2="40.8"></line> <path class="st2" d="M536.3,804.3c0,5.7-3.5,10.3-7.5,10.3c-4.1,0-7.5-4.6-7.5-10.3V644.7c0-5.7,3.5-10.3,7.5-10.3 c4.1,0,7.5,4.6,7.5,10.3V804.3z"></path> </g> <g> <line class="st1" x1="304.8" y1="674.2" x2="304.8" y2="97.2"></line> <line class="st1" x1="316.7" y1="674.1" x2="316.7" y2="101.7"></line> <path class="st2" d="M318.3,804.3c0,5.7-3.5,10.3-7.5,10.3c-4.1,0-7.5-4.6-7.5-10.3V644.7c0-5.7,3.5-10.3,7.5-10.3 c4.1,0,7.5,4.6,7.5,10.3V804.3z"></path> </g> <path class="st2" d="M212.3,804.3c0,5.7-3.5,10.3-7.5,10.3c-4.1,0-7.5-4.6-7.5-10.3V688.8c0-5.7,3.5-10.3,7.5-10.3 c4.1,0,7.5,4.6,7.5,10.3V804.3z"></path> <path class="st2" d="M162.3,804.3c0,5.7-3.5,10.3-7.5,10.3c-4.1,0-7.5-4.6-7.5-10.3V688.8c0-5.7,3.5-10.3,7.5-10.3 c4.1,0,7.5,4.6,7.5,10.3V804.3z"></path> <path class="st2" d="M112.3,804.3c0,5.7-3.5,10.3-7.5,10.3c-4.1,0-7.5-4.6-7.5-10.3V688.8c0-5.7,3.5-10.3,7.5-10.3 c4.1,0,7.5,4.6,7.5,10.3V804.3z"></path> <g> <line class="st1" x1="415.8" y1="674.2" x2="415.8" y2="246.7"></line> <line class="st1" x1="427.7" y1="674.1" x2="427.7" y2="243.7"></line> <path class="st2" d="M429.3,804.3c0,5.7-3.5,10.3-7.5,10.3c-4.1,0-7.5-4.6-7.5-10.3V644.7c0-5.7,3.5-10.3,7.5-10.3 c4.1,0,7.5,4.6,7.5,10.3V804.3z"></path> </g> <path class="st2" d="M648.1,803.4C645.9,803,91,802.8,91,802.8c-13.2,0-27.9,13.9-27.9,31s14.7,31,27.9,31h594L648.1,803.4z"></path> <g> <path class="st3" d="M311.3,817.8c1.9-1.1,4.7-3.5,5.7-2.2c1,1.3,3.8,26.1-4.4,33.4c-11.3,10.1-31.2,1.2-29-13.7 C285.2,823.6,309.7,818.7,311.3,817.8"></path> <path class="st3" d="M317.2,812.7c-1.5-1.8,2.2-5.8,2.8-5.9c1-0.1,4.8,1.4,5.3,2.4c0.3,0.7-4.7,4.1-5.5,4.3 C319,813.8,317.2,812.7,317.2,812.7"></path> </g> <g> <path class="st3" d="M308.3,433.1c0.7-1.3,1.5-3.7,2.5-3.3c1,0.4,11.5,13.7,9.3,20.8c-2.9,9.8-17.5,11.8-21.6,2.4 C295.3,445.7,307.7,434.2,308.3,433.1"></path> <path class="st3" d="M309.9,428c-1.5-0.5-0.8-4.1-0.5-4.4c0.5-0.4,3.3-0.9,3.9-0.5c0.4,0.3-1.3,4-1.6,4.4 C311.3,428,309.9,428,309.9,428"></path> </g> <g> <path class="st4" d="M747.6,787.2c1.3-1.8,3-5.1,4.4-4.3c1.4,0.8,13.6,22.9,8.8,32.9c-6.6,13.8-28.6,13.1-32.4-1.6 C725.5,802.6,746.5,788.7,747.6,787.2"></path> <path class="st4" d="M751.2,780.1c-2.1-1.1-0.2-6.2,0.3-6.5c0.9-0.5,5-0.6,5.9,0.2c0.5,0.5-2.9,5.7-3.5,6.2 C753.3,780.4,751.2,780.1,751.2,780.1"></path> </g> <g> <path class="st5" d="M408.8,820.2c0.3-2.2,0-6,1.6-6c1.6,0,23.6,12.8,24.6,23.9c1.4,15.4-18,26.2-28.9,15.4 C397.7,845,408.6,822,408.8,820.2"></path> <path class="st5" d="M408.3,812.2c-2.4,0.2-3.4-5.3-3.1-5.8c0.5-0.9,4.1-3.1,5.2-2.9c0.7,0.2,0.5,6.4,0.2,7.1 C410.3,811.4,408.3,812.2,408.3,812.2"></path> </g> <g> <path class="st5" d="M419,532.1c0.8-1.4,1.7-4,2.8-3.6c1.1,0.5,12.3,15.3,9.8,23c-3.4,10.7-19.5,12.6-23.8,2.2 C404.5,545.7,418.3,533.3,419,532.1"></path> <path class="st5" d="M420.9,526.5c-1.7-0.6-0.8-4.5-0.4-4.8c0.6-0.5,3.6-1,4.3-0.5c0.4,0.3-1.5,4.4-1.9,4.9 C422.4,526.5,420.9,526.5,420.9,526.5"></path> </g> <g> <path class="st6" d="M796.7,842.5c1.5-1,3.6-3,4.5-2.1c0.8,1,4.2,20.8-2.1,27c-8.6,8.6-25,2.3-23.9-9.8 C775.9,848.3,795.4,843.4,796.7,842.5"></path> <path class="st6" d="M801.2,838.2c-1.3-1.4,1.5-4.7,2-4.8c0.8-0.1,3.9,0.9,4.4,1.7c0.3,0.5-3.6,3.5-4.2,3.7 C802.7,839,801.2,838.2,801.2,838.2"></path> </g> <g> <path class="st6" d="M785,769.8c1.4,1,24,6.7,25,17.6c1.2,14-17.7,21.3-27.7,11.3c-7.3-7.2-3.4-30.1-2.4-31.3 C780.8,766.2,783.3,768.6,785,769.8"></path> <path class="st6" d="M779.7,764.7c0,0-1.7,0.9-2.4,0.7c-0.7-0.2-5.2-3.7-4.9-4.3c0.5-0.9,4.1-2.1,5.1-2 C778,759.2,781.2,763.1,779.7,764.7"></path> </g> <g> <path class="st3" d="M682,773.8c1.4,1,24,6.7,25,17.6c1.2,14-17.7,21.3-27.7,11.3c-7.3-7.2-3.4-30.1-2.4-31.3 C677.8,770.2,680.3,772.6,682,773.8"></path> <path class="st3" d="M676.7,768.7c0,0-1.7,0.9-2.4,0.7c-0.7-0.2-5.2-3.7-4.9-4.3c0.5-0.9,4.1-2.1,5.1-2 C675,763.2,678.2,767.1,676.7,768.7"></path> </g> <g> <path class="st4" d="M536.5,818.6c1.8-1.2,4.5-3.8,5.5-2.5c1,1.2,5.2,25.8-2.6,33.5c-10.7,10.7-31,2.8-29.7-12.1 C510.7,825.8,534.9,819.7,536.5,818.6"></path> <path class="st4" d="M542.1,813.2c-1.6-1.7,1.8-5.9,2.5-6c1-0.2,4.9,1.1,5.4,2.1c0.3,0.7-4.5,4.3-5.3,4.6 C544,814.2,542.1,813.2,542.1,813.2"></path> </g> <g> <path class="st4" d="M527.6,331.4c0.6-1.5,1.1-4.1,2.2-3.8c1.1,0.3,13.9,13.2,12.5,21.1c-1.9,10.9-17.3,14.7-22.8,5.2 C515.2,346.4,527.1,332.7,527.6,331.4"></path> <path class="st4" d="M528.7,325.8c-1.7-0.3-1.4-4.3-1-4.6c0.5-0.5,3.4-1.4,4.1-1c0.5,0.3-0.9,4.5-1.2,5 C530.2,325.6,528.7,325.8,528.7,325.8"></path> </g> <g> <path class="st4" d="M734.3,839c-1.7-1.1-4.2-3.5-5.2-2.4c-1,1.2-4.8,24.2,2.5,31.4c10,10,29.1,2.7,27.8-11.4 C758.4,845.7,735.7,840,734.3,839"></path> <path class="st4" d="M729,833.9c1.5-1.6-1.7-5.5-2.3-5.6c-0.9-0.2-4.6,1-5.1,2c-0.3,0.6,4.2,4.1,4.9,4.3 C727.2,834.9,729,833.9,729,833.9"></path> </g> <g> <path class="st3" d="M670.1,822.3c1.7-1.1,4.2-3.5,5.2-2.4c1,1.2,4.8,24.2-2.5,31.4c-10,10-29.1,2.7-27.8-11.4 C646,829,668.7,823.3,670.1,822.3"></path> <path class="st3" d="M675.4,817.3c-1.5-1.6,1.7-5.5,2.3-5.6c0.9-0.2,4.6,1,5.1,2c0.3,0.6-4.2,4.1-4.9,4.3 C677.2,818.2,675.4,817.3,675.4,817.3"></path> </g> <path class="st7" d="M620.1,682.7V78.3c0-8.2-4.5-12.1-12.3-15.7L482.8,24.1c-11.4-3.8-22.6,2.7-22.6,10.9v200.2"></path> <path class="st7" d="M422,240.9V168c0-8.2-1.4-14.4-13.6-22.9L268.2,80.6c-9-2.4-20,4.7-20,12.9v586.6"></path> <line class="st8" x1="17.9" y1="684.2" x2="818.5" y2="684.2"></line> <path class="st7" d="M357.2,684.3V279c0-10.6,9-15.9,19.2-19.1l97.6-31.6c10.6,0,19.2,8.6,19.2,19.1v436.9"></path> <circle class="st5" cx="204.6" cy="738.4" r="5.7"></circle> <circle class="st9" cx="104.6" cy="771.4" r="5.7"></circle> <ellipse transform="matrix(0.9985 -5.530046e-02 5.530046e-02 0.9985 -39.898 9.6592)" class="st10" cx="154.6" cy="725.8" rx="5.7" ry="5.7"></ellipse> <circle class="st3" cx="694.6" cy="839.4" r="5.7"></circle> <circle class="st6" cx="782.4" cy="829.2" r="4.9"></circle> <circle class="st10" cx="729.6" cy="776.8" r="5.7"></circle> <g> <rect x="81.2" y="628.3" class="st0" width="46" height="50"></rect> <path class="st0" d="M127.3,629.9c0,12.7-10.3,23.1-23.1,23.1c-12.7,0-23.1-10.3-23.1-23.1c0-12.7,10.3-23.1,23.1-23.1 C117,606.8,127.3,617.2,127.3,629.9z"></path> </g> <ellipse transform="matrix(3.327796e-02 -0.9994 0.9994 3.327796e-02 -526.0905 709.3513)" class="st3" cx="103.6" cy="626.6" rx="10.2" ry="10.2"></ellipse> <g> <rect x="131.2" y="628.3" class="st0" width="46" height="50"></rect> <path class="st0" d="M177.3,629.9c0,12.7-10.3,23.1-23.1,23.1c-12.7,0-23.1-10.3-23.1-23.1c0-12.7,10.3-23.1,23.1-23.1 C167,606.8,177.3,617.2,177.3,629.9z"></path> </g> <circle class="st4" cx="153.6" cy="626.6" r="10.2"></circle> <g> <rect x="181.2" y="628.3" class="st0" width="46" height="50"></rect> <path class="st0" d="M227.3,629.9c0,12.7-10.3,23.1-23.1,23.1c-12.7,0-23.1-10.3-23.1-23.1c0-12.7,10.3-23.1,23.1-23.1 C217,606.8,227.3,617.2,227.3,629.9z"></path> </g> <circle class="st6" cx="203.6" cy="626.6" r="10.2"></circle> <g> <polygon class="st0" points="645.8,588.7 757.3,588.3 746,640.6 655.4,640.6 "></polygon> <path class="st11" d="M735.5,632.7c-0.1,1.7-1.6,2.9-3.3,2.7c-1.7-0.1-2.9-1.6-2.7-3.3l2.9-33.7c0.1-1.7,1.6-2.9,3.3-2.7 c1.7,0.1,2.9,1.6,2.7,3.3L735.5,632.7z"></path> <path class="st11" d="M715.5,632.5c0,1.7-1.4,3-3,3c-1.7,0-3-1.4-3-3v-33.8c0-1.7,1.4-3,3-3c1.7,0,3,1.4,3,3V632.5z"></path> <path class="st11" d="M694.6,632.5c0,1.7-1.4,3-3,3c-1.7,0-3-1.4-3-3v-33.8c0-1.7,1.4-3,3-3c1.7,0,3,1.4,3,3V632.5z"></path> <path class="st11" d="M672.9,632.2c0.1,1.7-1.1,3.1-2.7,3.3s-3.1-1.1-3.3-2.7l-2.9-33.7c-0.1-1.7,1.1-3.1,2.7-3.3s3.1,1.1,3.3,2.7 L672.9,632.2z"></path> <path class="st0" d="M741,645.6h-84.2c-2.8,0-5.4,1.5-5.4,4.3v9.6c0,2.8,2.7,5,5.4,5h1.5c0-0.1,0-0.3,0-0.4c0-8,6.5-14.5,14.5-14.5 s14.5,6.5,14.5,14.5c0,0.1,0,0.3,0,0.4H739c2.8,0,4-2.3,5-5l2-9.2C746,647.5,743.8,645.6,741,645.6"></path> <path class="st0" d="M684.5,664.4c0,6.3-5.1,11.4-11.4,11.4c-6.3,0-11.4-5.1-11.4-11.4c0-6.3,5.1-11.4,11.4-11.4 C679.4,653.1,684.5,658.1,684.5,664.4"></path> <path class="st11" d="M680.2,664.4c0,3.9-3.2,7.1-7.1,7.1s-7.1-3.2-7.1-7.1c0-3.9,3.2-7.1,7.1-7.1S680.2,660.5,680.2,664.4"></path> <path class="st0" d="M676.7,664.4c0,2-1.6,3.5-3.5,3.5c-2,0-3.5-1.6-3.5-3.5c0-2,1.6-3.5,3.5-3.5 C675.1,660.9,676.7,662.4,676.7,664.4"></path> <g> <path class="st0" d="M810.5,664.4c0,6.3-5.1,11.4-11.4,11.4c-6.3,0-11.4-5.1-11.4-11.4c0-6.3,5.1-11.4,11.4-11.4 C805.5,653,810.5,658.1,810.5,664.4"></path> <path class="st11" d="M806.3,664.4c0,3.9-3.2,7.1-7.1,7.1c-3.9,0-7.1-3.2-7.1-7.1c0-3.9,3.2-7.1,7.1-7.1 C803.1,657.3,806.3,660.5,806.3,664.4"></path> <path class="st0" d="M802.7,664.4c0,2-1.6,3.5-3.5,3.5s-3.5-1.6-3.5-3.5c0-2,1.6-3.5,3.5-3.5S802.7,662.4,802.7,664.4"></path> </g> <path class="st0" d="M820.3,656.2h0.2v-0.8c0,0-1.1-13.1-1.1-16.2c0-1.5-2.4-3.9-2.4-3.9s-20.6-22.8-21.7-23.9 c-1.2-1.2-4.2-3.6-6.4-4.7c-2.2-1.1-5.4-1.4-5.4-1.4h-24.9l-12,58.8l38.4,0.6c0-0.2,0-0.5,0-0.7c0-8,6.5-14.5,14.5-14.5 c8,0,14.5,6.5,14.5,14.5c0,0.5,0,1.1-0.1,1.6h6.6c2,0,4-2.2,4-4.7c0-2.5-2.1-4.7-3.7-4.7 M804.6,635.4l-43.4,0.1 c0,0-1.5,0.4-1.5-0.7c0-1.2,3.5-21.1,3.5-21.1h23.2c0,0,1,0,1.7,0.8c1.9,2,17.1,19.3,17.1,19.3S805.7,635.3,804.6,635.4"></path> </g> </svg>