<svg xmlns="http://www.w3.org/2000/svg" xmlns:xlink="http://www.w3.org/1999/xlink" id="Layer_1" x="0px" y="0px" width="1920px" height="1080px" viewBox="0 0 1920 1080" xml:space="preserve"> <polyline fill="none" stroke="#E8EFEA" stroke-width="12" stroke-linecap="round" stroke-linejoin="round" stroke-miterlimit="10" points=" 233,184.963 585.163,184.963 670,92.963 839,92.963 "></polyline> <polyline fill="none" stroke="#E8EFEA" stroke-width="12" stroke-linecap="round" stroke-linejoin="round" stroke-miterlimit="10" points=" 321,800.037 233.282,874.379 232.503,184.963 100,91.709 100,984.037 -19.5,1088.5 "></polyline> <g> <path fill="#E8EFEA" d="M668.684,294.424c1.02-3.864,1.504-7.346,1.489-10.637c-0.093-20.34-15.392-37.542-35.666-40.009 l-56.853,0.014c-4.666,0.026-8.98,2.568-11.26,6.631c-1.089,1.954-1.655,4.155-1.646,6.378c0.006,1.888,0.429,3.754,1.228,5.443 l-6.86,0.019c-4.668,0.029-8.98,2.565-11.253,6.63c-1.081,1.925-1.647,4.13-1.643,6.37c0.014,1.983,0.479,3.935,1.354,5.691 c-3.667,0.763-6.88,3.092-8.705,6.361c-1.087,1.938-1.657,4.139-1.647,6.368c0.04,6.684,5.254,12.245,11.803,12.825 c-0.832,1.8-1.245,3.677-1.23,5.585c0.009,3.437,1.362,6.666,3.819,9.104c2.438,2.416,5.67,3.746,9.188,3.746l62.488-0.848 l-6.64,11.326c-6.055,10.338-0.038,24.755,9.18,30.262l5.727,3.409l31.629-53.984c2.78-4.74,5.927-10.111,5.936-16.725 c0-1.088-0.165-2.154-0.325-3.189L668.684,294.424z M614.264,283.391c-3,5.128-4.458,9.871-4.458,14.512 c0,6.832,2.545,13.672,7.023,18.964l-56.106,0.761c-1.496,0-2.902-0.576-3.96-1.628c-1.062-1.05-1.647-2.457-1.647-3.962 c-0.006-0.982,0.236-1.931,0.701-2.765c0.991-1.761,2.855-2.867,4.881-2.87c0.417-0.008,37.171-0.185,37.447-0.185 c1.979,0,3.718-1.694,3.718-3.617c0.011-0.953-0.365-1.855-1.048-2.543c-0.696-0.702-1.627-1.09-2.592-1.09h-0.005l-0.166-0.004 c-2.642,0-43.329,0.249-47.884,0.276c-3.084,0-5.607-2.511-5.626-5.599c-0.006-0.96,0.241-1.908,0.712-2.747 c0.986-1.769,2.856-2.875,4.882-2.879c0,0,47.951-0.175,48.23-0.175c2.006,0,3.703-1.661,3.708-3.629 c0.002-0.961-0.375-1.869-1.062-2.555c-0.701-0.701-1.638-1.093-2.635-1.093c-0.083,0-7.938,0.052-16.627,0.107l-22.586,0.138 c-3.079,0-5.604-2.504-5.63-5.576c0-0.968,0.248-1.926,0.712-2.76c0.986-1.767,2.861-2.871,4.898-2.874 c0.485-0.015,35.129-0.117,35.334-0.125c0.182,0.026,3.855,0.171,4.098,0.171c1.356,0,2.604-0.723,3.253-1.88 c0.299-0.518,0.457-1.118,0.461-1.741c0-2-1.652-3.64-3.651-3.646c-0.076-0.008-2.188-0.008-11.886-0.019l-9.075-0.013 c-1.492,0-2.898-0.577-3.959-1.628c-1.06-1.06-1.649-2.47-1.658-3.96c-0.003-0.967,0.244-1.925,0.716-2.76 c0.984-1.765,2.853-2.867,4.876-2.882l56.012-0.066c15.224,1.861,27.06,13.876,28.862,28.939 c-5.623-6.914-14.037-10.989-22.905-10.993C629.181,268.998,619.463,274.511,614.264,283.391z M633.923,320.398 c0,0-4.755-2.882-5.003-3.027c-7.087-3.843-11.484-11.236-11.479-19.279c0-3.883,1.044-7.711,3.016-11.07 c3.922-6.695,11.171-10.853,18.918-10.853c5.835,0.002,11.253,2.237,15.252,6.292c3.993,4.038,6.192,9.488,6.186,15.349 c0,5.315-2.381,9.828-4.608,13.636l-0.168,0.27c-1.765,3.021-23.498,40.035-27.561,46.949c-5.329-3.979-8.614-12.969-4.96-19.214 l10.914-18.75L633.923,320.398z"></path> <path fill="#E8EFEA" d="M615.828,386.635c-1.174-1.914-2.813-3.492-4.741-4.561c-1.653-0.92-3.489-1.474-5.356-1.61l3.341-5.98 c2.275-4.069,2.182-9.073-0.243-13.061c-1.151-1.895-2.79-3.46-4.749-4.555c-1.726-0.958-3.656-1.507-5.622-1.604 c1.138-3.569,0.681-7.513-1.273-10.719c-1.149-1.885-2.785-3.46-4.735-4.553c-1.995-1.102-4.253-1.662-6.526-1.615 c-4.185,0.081-8.105,2.21-10.445,5.611c-1.173-1.624-2.604-2.903-4.264-3.818c-2.963-1.653-6.503-2.065-9.797-1.138 c-3.333,0.946-6.094,3.138-7.777,6.181l-29.918,54.86l-6.621-11.331c-3.593-6.17-11.146-9.895-19.714-9.727 c-4.097,0.084-8.057,1.104-11.153,2.874l-5.775,3.318l31.186,53.45l0.347,0.595c2.765,4.74,5.897,10.122,11.667,13.378 c0.809,0.449,1.734,0.743,2.626,1.035c0.426,0.14,0.843,0.272,1.239,0.419c2.428,2.361,5.071,4.809,8.334,6.621 c6.227,3.474,13.286,5.228,20.423,5.084c12.56-0.245,24.483-6.402,31.933-16.54l27.87-49.553 C618.357,395.615,618.258,390.611,615.828,386.635z M557.43,415.797c3.905,6.697,3.971,15.058,0.17,21.806 c-3.781,6.719-10.556,10.809-18.121,10.952c-3.879,0.083-7.77-0.916-11.257-2.873c-4.636-2.627-7.397-6.916-9.627-10.733 l-27.545-47.307c1.758-0.777,3.814-1.211,5.994-1.258c5.691-0.108,10.87,2.39,13.188,6.364l10.985,18.708l0.52-0.297 c0,0,4.822-2.728,5.087-2.867c6.694-4.21,15.539-4.438,22.433-0.552C552.634,409.647,555.461,412.434,557.43,415.797z M563.73,441.339c5.115-9.095,5.073-20.271-0.108-29.163c-2.999-5.133-6.421-8.727-10.461-10.999 c-5.938-3.352-13.164-4.491-19.967-3.188l26.844-49.238c0.729-1.309,1.927-2.264,3.381-2.678c1.419-0.406,2.957-0.22,4.245,0.504 c0.854,0.472,1.571,1.156,2.072,1.974c1.054,1.729,1.095,3.894,0.109,5.665c-0.065,0.114-2.588,4.659-5.742,10.32 c-5.211,9.366-12.348,22.192-12.465,22.401c-0.478,0.842-0.592,1.879-0.323,2.852c0.266,0.938,0.852,1.707,1.646,2.148 c0.821,0.485,1.826,0.601,2.731,0.348c0.963-0.257,1.762-0.885,2.243-1.744c0.09-0.152,7.695-13.854,22.604-40.715l0.702-1.261 c0.967-1.737,2.811-2.836,4.809-2.876c0.989-0.021,1.968,0.222,2.834,0.702c0.836,0.47,1.562,1.167,2.045,1.978 c1.059,1.724,1.107,3.896,0.124,5.662c0,0-23.371,41.875-23.5,42.098c-0.467,0.821-0.595,1.839-0.347,2.792 c0.248,0.961,0.86,1.775,1.676,2.243c1.69,0.95,4.032,0.264,4.988-1.417c0.058-0.104,4.707-8.49,13.847-24.971l5.169-9.326 c0.966-1.739,2.812-2.839,4.815-2.88c0.986-0.02,1.957,0.221,2.816,0.699c0.848,0.47,1.561,1.157,2.064,1.979 c1.057,1.717,1.097,3.889,0.098,5.673c-0.183,0.346-16.972,30.395-17.233,30.851c-0.011,0.021-2.079,3.328-2.138,3.458 c-0.682,1.188-0.666,2.643,0.043,3.795c0.314,0.518,0.76,0.947,1.285,1.248c1.683,0.935,4.035,0.24,4.948-1.382 c0.049-0.063,0.607-1.054,6.699-11.845l3.612-6.393c0.729-1.316,1.929-2.267,3.379-2.677c1.414-0.396,2.954-0.229,4.258,0.492 c0.847,0.47,1.558,1.151,2.056,1.972c1.052,1.728,1.101,3.901,0.124,5.668l-27.417,48.845 c-6.136,8.347-15.635,13.251-26.056,13.458c-4.551,0.091-9.12-0.775-13.323-2.509C551.697,454.397,559.375,449.063,563.73,441.339z "></path> <path fill="#E8EFEA" d="M521.249,273.742c11.962,0,21.368-12.459,21.479-23.169l0.123-6.713l-61.934-0.075h-1.941 c-5.32,0-10.957,0.255-16.192,3.288c-0.886,0.521-1.653,1.209-2.396,1.868c-0.327,0.291-0.653,0.582-0.98,0.853 c-3.084,0.871-6.652,2.019-9.84,3.917c-17.486,10.389-24.55,32.296-16.39,51.02l28.851,48.995c2.327,3.913,6.6,6.342,11.146,6.342 h0.276c2.221-0.049,4.408-0.676,6.328-1.809c1.63-0.973,3.023-2.287,4.08-3.828l3.492,5.898c2.321,3.913,6.582,6.344,11.118,6.344 h0.294c2.223-0.053,4.409-0.687,6.326-1.821c1.695-1.012,3.141-2.396,4.217-4.058c2.445,2.7,5.98,4.284,9.621,4.284h0.281 c2.227-0.05,4.412-0.675,6.319-1.812c5.734-3.427,7.888-10.744,5.069-16.681c1.985-0.195,3.812-0.793,5.436-1.775 c2.958-1.746,5.056-4.547,5.91-7.897c0.853-3.356,0.344-6.844-1.43-9.826l-32.395-53.375L521.249,273.742L521.249,273.742z M505.43,304.403c-0.65-1.117-1.931-1.835-3.256-1.835c-0.626,0-1.232,0.162-1.742,0.465c-0.826,0.473-1.417,1.261-1.667,2.195 c-0.256,0.969-0.118,1.97,0.382,2.809c0.137,0.241,22.036,36.94,24.601,41.23c1.576,2.661,0.697,6.125-1.957,7.7 c-0.847,0.5-1.791,0.77-2.879,0.787c-1.964,0-3.812-1.052-4.818-2.746c-0.243-0.415-24.412-41.138-24.606-41.476 c-0.963-1.63-3.386-2.306-5.013-1.364c-0.829,0.484-1.419,1.271-1.665,2.21c-0.251,0.965-0.11,1.972,0.39,2.814 c0.052,0.095,4.519,7.582,13.893,23.278l6.204,10.391c0.77,1.292,0.986,2.795,0.618,4.25c-0.371,1.461-1.28,2.681-2.566,3.441 c-0.836,0.504-1.78,0.776-2.854,0.8c-1.979,0-3.83-1.056-4.841-2.768c-0.188-0.307-17.905-30.195-18.027-30.404 c-0.013-0.021-1.844-3.495-1.915-3.581c-0.664-1.15-1.888-1.866-3.198-1.866h-0.094c-0.608,0.014-1.207,0.181-1.73,0.482 c-1.726,1.018-2.299,3.273-1.279,5.01c0.038,0.068,2.088,3.565,6.671,11.377l3.909,6.666c0.77,1.292,0.988,2.803,0.617,4.257 c-0.369,1.455-1.278,2.674-2.565,3.433c-0.827,0.5-1.778,0.767-2.862,0.797c-1.972,0-3.827-1.058-4.836-2.75l-28.472-48.224 c-6.109-14.049-1.765-30.342,10.287-39.544c-3.06,8.29-2.319,17.537,2.098,25.12c5.259,9.01,14.919,14.626,25.287,14.667 c5.896,0,10.708-1.137,14.709-3.466c5.921-3.454,10.554-9.121,12.867-15.686l29.112,47.969c0.771,1.29,0.992,2.808,0.625,4.266 c-0.37,1.446-1.284,2.661-2.579,3.426c-0.833,0.498-1.781,0.775-2.857,0.795c-1.966,0-3.819-1.048-4.832-2.733 c-0.088-0.152-4.33-7.282-8.803-14.797C510.798,313.424,505.533,304.58,505.43,304.403z M470.511,321.354L470.511,321.354v-0.01 V321.354z M499.529,265.863l-0.006,0.603c0,0-0.086,5.492-0.096,5.809c0.251,8.052-3.913,15.561-10.871,19.606 c-3.309,1.938-7.123,2.958-11.078,2.958c-7.757-0.013-15-4.182-18.907-10.875c-6.078-10.444-2.688-22.97,7.894-29.138 c4.542-2.644,9.669-2.644,14.19-2.644l38.368-0.007c7.448,0,13.744,0,16.309,0.005c-0.75,6.497-6.845,13.74-14.1,13.74 L499.529,265.863z"></path> </g> <g> <linearGradient id="SVGID_1_" gradientUnits="userSpaceOnUse" x1="837" y1="798.0371" x2="1834.5" y2="798.0371"> <stop offset="0" style="stop-color:#E8EFEA"></stop> <stop offset="1" style="stop-color:#FFFFFF;stop-opacity:0"></stop> </linearGradient> <path fill="url(#SVGID_1_)" d="M1828.5,804.037H843c-3.313,0-6-2.687-6-6s2.687-6,6-6h985.5c3.313,0,6,2.687,6,6 S1831.813,804.037,1828.5,804.037z"></path> </g> <line fill="none" stroke="#E8EFEA" stroke-width="12" stroke-linecap="round" stroke-linejoin="round" stroke-miterlimit="10" x1="325" y1="798.037" x2="843" y2="798.037"></line> </svg>