<svg xmlns="http://www.w3.org/2000/svg" xmlns:xlink="http://www.w3.org/1999/xlink" id="Layer_1" x="0px" y="0px" viewBox="0 0 466 418" style="enable-background:new 0 0 466 418;" xml:space="preserve"> <style type="text/css"> .st0{fill:#00617C;} .st1{fill:#1A301A;} .st2{fill:#264C26;} .st3{fill:#162B16;} .st4{fill:#2C9516;} .st5{fill:#00ABD9;} .st6{fill:#3A4758;} </style> <g> <path class="st0" d="M141.5,343.9c0,0,42.6-14.6,112.4,12.1l10.5-104.4V137.1l-23.9-30.9l-84.8,15.9l-39.3,45.2l11.1,165 L141.5,343.9z"></path> </g> <g> <path class="st0" d="M254.1,356.5l-0.4-0.2c-36-13.8-64.5-16.3-82.2-16.1c-19.1,0.3-29.9,3.9-30,4l-0.3,0.1l-14.1-12.1L116,167.1 l0.1-0.1l39.3-45.2l0.1,0l85-15.9l24.1,31.2v114.6L254.1,356.5z M174,339.6c17.8,0,45.3,2.9,79.5,16l10.5-104l0-114.3l-23.7-30.7 l-84.5,15.8l-39.1,45l11.1,164.8l13.8,11.3c1.9-0.6,12.4-3.6,29.8-3.9C172.3,339.6,173.2,339.6,174,339.6"></path> </g> <g> <g> <path class="st1" d="M186.7,275.2h-14.8h-14.8l-0.3,9.3v9.4c0,0,2.3,5.2,15.1,5.2c12.9,0,15.1-5.2,15.1-5.2v-9.4L186.7,275.2z"></path> <path class="st2" d="M171.9,299.2c-12.9,0-15.2-5.1-15.3-5.3l0-0.1v-9.4l0.4-9.5h30l0.4,9.5l0,9.4l0,0 C187.2,294.1,184.8,299.2,171.9,299.2z M157.1,293.7c0.3,0.5,3,5,14.9,5c11.9,0,14.6-4.5,14.9-5v-9.3l-0.3-9h-29.1l-0.3,9 L157.1,293.7z"></path> </g> <g> <path class="st3" d="M171.9,299.3c-12.9,0-15.3-5.2-15.4-5.4l0-0.1v-9.4l0.4-9.6H187l0.4,9.6l0,9.4l0,0.1 C187.2,294.1,184.8,299.3,171.9,299.3 M157.1,293.7c0.3,0.5,3.1,4.9,14.8,4.9c11.8,0,14.5-4.4,14.8-4.9v-9.3l-0.3-8.9h-28.9 l-0.3,9V293.7z"></path> <path class="st3" d="M171.9,299.6c-13.1,0-15.5-5.3-15.6-5.5l0-0.2l0-9.4l0.4-9.8h30.6l0.4,9.8l0,9.5l0,0.1 C187.5,294.2,185,299.6,171.9,299.6z M157.1,275.1l-0.3,9.4l0,9.4c0.1,0.2,2.4,5.2,15.2,5.2c12.8,0,15.1-5,15.2-5.3l0,0l0-9.4 l-0.3-9.3H157.1z M171.9,298.9c-11.9,0-14.7-4.6-15-5.1l0-0.1v-9.3l0.3-9.2h29.4l0.3,9.2l0,9.4l0,0.1 C186.6,294.3,183.9,298.9,171.9,298.9z M157.4,293.6c0.4,0.7,3.3,4.8,14.5,4.8c11.3,0,14.1-4.1,14.5-4.8v-9.2l-0.3-8.7h-28.4 l-0.3,8.7L157.4,293.6z"></path> </g> <g> <polygon class="st4" points="167.5,210.2 162.8,198.7 160.7,198.7 160.7,209.4 155.1,200.6 152.2,200.6 152.2,209.4 146.3,203 146.3,210.2 138.2,204.4 138.2,211.8 131.7,206.6 131.7,213.5 125.3,211 125.3,216.4 119.9,214.1 119.9,218.6 114.2,218.6 114.2,221 108.8,221 108.8,225.2 104.9,225.2 104.9,227.8 102.6,227.8 102.6,233.7 99.9,233.7 99.9,237 98,237 98,249.7 101.4,249.7 101.4,254.1 103.2,254.1 102.5,259.8 104.5,261.4 105,263.8 106.1,268.1 107.6,268.1 107.6,271.1 108.6,273 111.7,273 111.7,275 116.3,275 116.3,277.7 120.2,277.7 121.4,278.9 125.4,278.9 125.4,282.7 132,279.1 132,284.5 139,280.8 139,287.4 146.6,282.4 146.6,289.7 153.6,283.4 153.6,291.2 156.1,291.2 161.8,282.8 161.8,292.5 164.5,292.5 168.9,281.6 168.9,293.1 172.4,293.1 175.2,281.4 177.3,281.4 177.3,293.1 180.5,293.1 180.5,282.9 180.5,280.6 183.2,280.6 186.4,293.1 188.8,293.1 188.8,283.1 195.7,293.1 197.4,293.1 197.4,283.6 204.1,291.6 205.7,291.6 205.7,284.5 211.6,290.9 212.7,289.7 212.7,283.9 219.4,288 219.4,281.3 226.3,285.7 226.3,279.3 233.4,282.4 235.3,280.3 238.3,280.3 240.5,277.9 243.6,277.9 243.6,273 246.2,270.1 249.8,270.1 251.9,267.9 251.9,263.5 254.5,263.5 254.5,258.7 256.4,258.7 256.4,255.8 258.4,255.8 258.4,250.5 260,250.5 260,242.4 257.1,242.4 257.1,237.7 254.9,237.7 254.9,230.9 252,230.9 252,225.5 248.8,225.5 248.8,221.2 244.4,221.2 244.4,216.8 239.5,216.8 239.5,212.5 236.1,212.5 232.6,215.6 232.6,209.4 225.3,214 225.3,206.1 219.6,210.2 219.6,203.3 211.5,210.2 211.5,202.1 204.4,208.7 204.4,200 196.6,209.2 196.6,198.7 194,198.7 189,210.2 187.6,210.2 187.6,198.7 185.8,198.7 183.8,210.2 173.2,210.2 171.3,198.7 169.5,198.7 169.5,210.2 "></polygon> </g> <g> <path class="st2" d="M197.7,293.5h-2.2l-6.3-9.3v9.3h-3L183,281h-2.2v12.5h-3.9v-11.7h-1.5l-2.7,11.7h-4.1v-10.2l-3.9,9.5h-3.3v-9 l-5.1,7.6h-3.1v-7.3l-7,6.3V283l-7.6,4.9v-6.6l-7,3.8v-5.4l-6.6,3.6v-4h-3.8l-1.1-1.2H116v-2.6h-4.6v-2h-3l-1.1-2.2v-2.7h-1.4 l-1.2-4.6l-0.4-2.2l-2-1.7l0.7-5.5h-1.8V250h-3.3v-13.3h1.8v-3.3h2.7v-5.9h2.3v-2.6h4v-4.1h5.3v-2.5h5.8v-4.6l5.3,2.3v-5.4 l6.4,2.5v-7.1l6.5,5.3v-7.4l8.1,5.8v-7.4l5.9,6.3v-8.2h3.4l5.1,7.9v-9.9h2.7l4.7,11.5h1.4v-11.5h2.4l1.8,11.5h10.1l2-11.5h2.4 v11.5h0.8l5-11.5h3.1v10l7.7-9.2v8.9l7.1-6.6v8.1l8.1-6.9v7l5.8-4.1v7.9l7.3-4.6v6.1l3-2.7h3.8v4.3h4.9v4.4h4.4v4.3h3.2v5.4h2.9 v6.7h2.3v4.8h2.9v8.7h-1.7v5.3h-2v3h-1.8v4.8h-2.6v4.2l-2.3,2.4h-3.6l-2.4,2.6v5.1h-3.3l-2.2,2.4h-3l-1.9,2.1l-6.9-3v6.5l-6.8-4.4 v6.7l-6.7-4.1v5.3l-1.5,1.6l-5.5-6v6.6h-2.2l-6.2-7.5V293.5z M195.9,292.8h1.2v-10.1l7.2,8.7h1.2v-7.6l6.2,6.7l0.8-0.9v-6.2 l6.7,4.1v-6.8l6.8,4.4v-6.3l7.4,3.2l1.8-2h3l2.2-2.4h2.9v-4.7l2.8-3.1h3.6l1.9-2v-4.6h2.6v-4.8h1.8v-3h2v-5.3h1.7v-7.4h-2.9V238 h-2.3v-6.7h-2.9v-5.4h-3.2v-4.3H244v-4.4h-4.9v-4.3h-2.9l-4,3.5V210l-7.3,4.6v-7.9l-5.8,4.1V204l-8.1,6.9v-8l-7.1,6.6v-8.6 l-7.7,9.2V199h-2l-5,11.5h-1.9V199h-1.2l-2,11.5h-11.2l-1.8-11.5h-1.2v11.5h-2.5l-4.7-11.5H161v11.5l-6.1-9.5h-2.4v9.2l-5.9-6.3v7 l-8.1-5.8v7.5l-6.5-5.3v6.7l-6.4-2.5v5.5l-5.3-2.3v4.3h-5.8v2.5h-5.3v4.1h-4v2.6h-2.3v5.9h-2.7v3.3h-1.8v12h3.3v4.4h1.9l-0.7,5.9 l1.9,1.6l0.5,2.4l1.1,4.1h1.6v3.2l0.9,1.7h3.2v2h4.6v2.6h3.8l1.1,1.2h4.2v3.6l6.6-3.6v5.4l7-3.8v6.5l7.6-4.9v7.1l7-6.3v8.1h2.1 l6.1-9.2v10.5h2.2l5-12.2v12.9h2.9l2.7-11.7h2.7v11.7h2.5v-12.5h3.3l3.2,12.5h1.8V282L195.9,292.8z"></path> <path class="st2" d="M197.9,293.7h-2.5l-6-8.8v8.8H186l-3.2-12.5H181v12.5h-4.3V282h-1.1l-2.7,11.7h-4.5v-9.2l-3.5,8.5h-3.7v-8.4 l-4.8,7.1H153v-7l-7,6.3v-7.5l-7.6,4.9v-6.7l-7,3.8v-5.4l-6.6,3.6v-4.2h-3.7l-1.1-1.2h-4.3v-2.6h-4.6v-2h-2.9l-1.2-2.4v-2.5h-1.4 l-1.3-4.8l-0.4-2.1l-2.1-1.7l0.6-5.3h-1.8v-4.4h-3.3v-13.8h1.8v-3.3h2.7v-5.9h2.3v-2.6h4v-4.1h5.3V218h5.8v-4.7l5.3,2.3v-5.4 l6.4,2.5v-7.3l6.5,5.3v-7.3l8.1,5.8v-7.5l5.9,6.3v-7.8h3.8l4.7,7.4v-9.3h3.1l4.7,11.5h1v-11.5h2.9l1.8,11.5h9.7l2-11.5h2.9v11.5 h0.4l5-11.5h3.5v9.5l7.7-9.2v9l7.1-6.6v8.1l8.1-6.9v7l5.8-4.1v8l7.3-4.6v6l2.7-2.4h4.1v4.3h4.9v4.4h4.4v4.3h3.2v5.4h2.9v6.7h2.3 v4.8h2.9v9.2h-1.7v5.3h-2v3h-1.8v4.8h-2.6v4l-2.4,2.6h-3.6l-2.3,2.5v5.3h-3.4l-2.2,2.4h-3l-2,2.1l-6.7-2.9v6.6l-6.8-4.4v6.7 l-6.7-4.1v5l-1.7,1.8l-5.3-5.7v6.2h-2.5l-5.9-7.1V293.7z M195.6,293.2h1.8v-9.4l6.6,7.9h1.8v-7l5.8,6.3l1.2-1.3v-5.6l6.7,4.1v-6.7 l6.8,4.4v-6.4l7.1,3l1.9-2h3l2.2-2.4h3.1v-5l2.6-2.8h3.6l2.1-2.3v-4.3h2.6v-4.8h1.8v-3h2v-5.3h1.7v-8.2h-2.9v-4.8h-2.3v-6.7h-2.9 v-5.4h-3.2v-4.3h-4.4v-4.4h-4.9v-4.3h-3.5l-3.4,3v-6.2l-7.3,4.6v-7.9l-5.8,4.1v-6.9l-8.1,6.9v-8.1l-7.1,6.6v-8.8l-7.7,9.2v-10.4 H194l-5,11.5h-1.2v-11.5h-2l-2,11.5h-10.5l-1.8-11.5h-2v11.5h-1.8l-4.7-11.5h-2.3v10.5l-5.5-8.5h-3v8.6l-5.9-6.3v7.2l-8.1-5.8v7.4 l-6.5-5.3v7l-6.4-2.5v5.4l-5.3-2.3v4.5h-5.8v2.5h-5.3v4.1h-4v2.6h-2.3v5.9h-2.7v3.3h-1.8v12.9h3.3v4.4h1.8l-0.7,5.6l2,1.7l0.5,2.3 l1.2,4.4h1.5v2.9l1,2h3.1v2h4.6v2.6h4l1.1,1.2h3.9v3.9l6.6-3.6v5.4l7-3.8v6.6l7.6-4.9v7.3l7-6.3v7.6h2.7l5.5-8.2v9.5h2.9l4.3-10.5 v11.1h3.7l2.7-11.7h2v11.7h3.4v-12.5h2.6l3.2,12.5h2.6v-9.8L195.6,293.2z M197.3,293h-1.5l-7-10.2V293h-2.3l-3.2-12.5h-2.9V293h-3 v-11.7h-2.3l-2.7,11.7H169v-11.9l-4.6,11.2h-2.6v-9.9l-5.8,8.6h-2.4v-7.8l-7,6.3v-7.2l-7.6,4.9v-6.6l-7,3.8V279l-6.6,3.6v-3.7 h-4.1l-1.1-1.2h-3.9v-2.6h-4.6v-2h-3.2l-1-1.9v-3h-1.5l-1.1-4.3l-0.5-2.4l-2-1.6l0.7-5.7h-1.8v-4.4h-3.3v-12.5h1.8v-3.3h2.7v-5.9 h2.3v-2.6h4v-4.1h5.3v-2.5h5.8v-4.4l5.3,2.3v-5.4l6.4,2.5v-6.9l6.5,5.3v-7.4l8.1,5.8v-7.1l5.9,6.3v-8.9h2.8l5.8,8.9v-10.9h2 l4.7,11.5h2.1v-11.5h1.7l1.8,11.5h10.8l2-11.5h1.7v11.5h1.5l5-11.5h2.4v10.7l7.7-9.2v8.7l7.1-6.6v8.1l8.1-6.9v6.9l5.8-4.1v7.9 l7.3-4.6v6.3l3.6-3.2h3.2v4.3h4.9v4.4h4.4v4.3h3.2v5.4h2.9v6.7h2.3v4.8h2.9v7.9h-1.7v5.3h-2v3h-1.8v4.8h-2.6v4.4l-2,2.2h-3.6 l-2.7,2.9v4.9h-3l-2.2,2.4h-3l-1.8,2l-7.2-3.1v6.4l-6.8-4.4v6.8l-6.7-4.1v5.9l-1,1.1l-6-6.4v7.2h-1.5l-6.8-8.2V293z M196,292.6 h0.8V282l7.5,9.1h0.8v-8l6.4,7l0.6-0.6v-6.6l6.7,4.1v-6.8l6.8,4.4v-6.2l7.6,3.2l1.8-1.9h3l2.2-2.4h2.8v-4.6l3-3.2h3.6l1.8-1.9 v-4.7h2.6v-4.8h1.8v-3h2v-5.3h1.7V243h-2.9v-4.8h-2.3v-6.7h-2.9v-5.4h-3.2v-4.3h-4.4v-4.4h-4.9v-4.3h-2.6l-4.3,3.8v-6.5l-7.3,4.6 v-7.8l-5.8,4.1v-6.8l-8.1,6.9v-8l-7.1,6.6v-8.5l-7.7,9.2v-11.5h-1.6l-5,11.5h-2.3v-11.5h-0.8l-2,11.5h-11.6l-1.8-11.5h-0.8v11.5 h-2.9l-4.7-11.5h-1.2v12.1l-6.5-10.1h-2v9.6l-5.9-6.3v6.8l-8.1-5.8v7.5l-6.5-5.3v6.6l-6.4-2.5v5.5l-5.3-2.3v4.1h-5.8v2.5h-5.3v4.1 h-4v2.6h-2.3v5.9h-2.7v3.3h-1.8v11.5h3.3v4.4h1.9l-0.7,6l1.9,1.6l0.5,2.5l1,3.9h1.7v3.4l0.8,1.5h3.3v2h4.6v2.6h3.6l1.1,1.2h4.3 v3.4l6.6-3.6v5.4l7-3.8v6.5l7.6-4.9v7l7-6.3v8.4h1.7l6.5-9.7v11h1.8l5.4-13.2v13.9h2.5l2.7-11.7h3.2v11.7h2V280h3.8l3.2,12.5h1.4 v-11.3L196,292.6z"></path> </g> <g> <path class="st4" d="M233.6,241.6c0,17.3-24.4,31.4-54.5,31.4c-30.1,0-54.5-14.1-54.5-31.4c0-17.3,24.4-31.4,54.5-31.4 C209.1,210.2,233.6,224.2,233.6,241.6"></path> </g> <g> <path class="st2" d="M179,273.3c-30.2,0-54.9-14.2-54.9-31.7c0-17.5,24.6-31.7,54.9-31.7c30.2,0,54.9,14.2,54.9,31.7 C233.9,259.1,209.3,273.3,179,273.3 M179,210.5c-29.9,0-54.2,13.9-54.2,31.1s24.3,31.1,54.2,31.1c29.9,0,54.2-13.9,54.2-31.1 S208.9,210.5,179,210.5"></path> <path class="st2" d="M179,273.6c-30.4,0-55.1-14.3-55.1-32s24.7-32,55.1-32s55.1,14.3,55.1,32S209.4,273.6,179,273.6z M179,210.1 c-30.1,0-54.6,14.1-54.6,31.5s24.5,31.5,54.6,31.5s54.6-14.1,54.6-31.5S209.1,210.1,179,210.1z M179,272.9 c-30,0-54.4-14-54.4-31.3c0-17.3,24.4-31.3,54.4-31.3s54.4,14,54.4,31.3C233.5,258.9,209,272.9,179,272.9z M179,210.8 c-29.8,0-54,13.8-54,30.8s24.2,30.8,54,30.8s54-13.8,54-30.8S208.8,210.8,179,210.8z"></path> </g> <g> <rect x="118" y="218" transform="matrix(0.276 -0.9611 0.9611 0.276 -133.3456 278.7649)" class="st2" width="0.7" height="19.8"></rect> </g> <g> <rect x="125.1" y="215.8" transform="matrix(0.5905 -0.807 0.807 0.5905 -128.2873 192.4371)" class="st2" width="0.7" height="13.7"></rect> </g> <g> <rect x="129.4" y="214.1" transform="matrix(0.5667 -0.8239 0.8239 0.5667 -124.6517 202.0393)" class="st2" width="0.7" height="10.9"></rect> </g> <g> <rect x="121.3" y="216.2" transform="matrix(0.4158 -0.9095 0.9095 0.4158 -133.0758 241.784)" class="st2" width="0.7" height="16.5"></rect> </g> <g> <rect x="134.2" y="212.5" transform="matrix(0.8019 -0.5975 0.5975 0.8019 -103.2202 123.4653)" class="st2" width="0.7" height="9.7"></rect> </g> <g> <rect x="139.5" y="211.4" transform="matrix(0.8615 -0.5078 0.5078 0.8615 -89.6031 100.7268)" class="st2" width="0.7" height="6.4"></rect> </g> <g> <rect x="147.2" y="209.9" transform="matrix(0.8533 -0.5214 0.5214 0.8533 -88.9431 108.0072)" class="st2" width="0.7" height="4.4"></rect> </g> <g> <rect x="152.5" y="209.2" transform="matrix(0.8974 -0.4412 0.4412 0.8974 -77.2859 89.0516)" class="st2" width="0.7" height="3"></rect> </g> <g> <rect x="114.8" y="219.5" transform="matrix(0.214 -0.9768 0.9768 0.214 -134.1887 293.3243)" class="st2" width="0.7" height="21.1"></rect> </g> <g> <rect x="113.6" y="223.6" transform="matrix(0.1102 -0.9939 0.9939 0.1102 -132.1498 322.3419)" class="st2" width="0.7" height="22.8"></rect> </g> <g> <rect x="98.5" y="239.6" transform="matrix(0.9964 -8.505650e-02 8.505650e-02 0.9964 -20.0044 10.3258)" class="st2" width="25.3" height="0.7"></rect> </g> <g> <rect x="100.9" y="246.1" transform="matrix(0.9611 -0.2761 0.2761 0.9611 -63.6556 40.6739)" class="st2" width="23.4" height="0.7"></rect> </g> <g> <rect x="97.9" y="243" transform="matrix(0.9913 -0.1319 0.1319 0.9913 -31.1308 16.8065)" class="st2" width="26.7" height="0.7"></rect> </g> <g> <rect x="103.7" y="249.8" transform="matrix(0.9432 -0.3321 0.3321 0.9432 -76.5574 52.2985)" class="st2" width="22.1" height="0.7"></rect> </g> <g> <rect x="103.3" y="256" transform="matrix(0.8964 -0.4433 0.4433 0.8964 -101.7113 77.4771)" class="st2" width="23.2" height="0.7"></rect> </g> <g> <rect x="109.1" y="264.9" transform="matrix(0.7953 -0.6063 0.6063 0.7953 -135.8587 128.1976)" class="st2" width="25.5" height="0.7"></rect> <path class="st2" d="M111.9,273.6l-0.7-0.9l0.2-0.1l20.5-15.6l0.7,0.9l-0.2,0.1L111.9,273.6z M111.9,272.8l0.1,0.1l19.9-15.2 l-0.1-0.1L111.9,272.8z"></path> </g> <g> <rect x="105.5" y="260.7" transform="matrix(0.8343 -0.5513 0.5513 0.8343 -124.3226 108.4589)" class="st2" width="25.6" height="0.7"></rect> </g> <g> <rect x="113.7" y="267.4" transform="matrix(0.7807 -0.6249 0.6249 0.7807 -139.7811 137.074)" class="st2" width="23.4" height="0.7"></rect> <path class="st2" d="M116.5,275.6l-0.7-0.9l18.6-14.9l0.7,0.9L116.5,275.6z M116.4,274.8l0.1,0.1l17.9-14.3l-0.1-0.1L116.4,274.8z "></path> </g> <g> <rect x="117.4" y="269.6" transform="matrix(0.7562 -0.6543 0.6543 0.7562 -145.1583 150.293)" class="st2" width="23.5" height="0.7"></rect> <path class="st2" d="M120.4,278.2l-0.7-0.9l18.1-15.7l0.8,0.9L120.4,278.2z M120.4,277.4l0.1,0.1l17.4-15.1l-0.1-0.1L120.4,277.4z "></path> </g> <g> <rect x="122.5" y="271.2" transform="matrix(0.734 -0.6791 0.6791 0.734 -148.9637 162.7692)" class="st2" width="21.6" height="0.7"></rect> <path class="st2" d="M125.6,279.5l-0.8-0.8l16.2-15l0.8,0.8L125.6,279.5z M125.5,278.7l0.1,0.1l15.5-14.3l-0.1-0.1L125.5,278.7z"></path> </g> <g> <rect x="128.5" y="273" transform="matrix(0.6408 -0.7677 0.7677 0.6408 -160.1768 204.2561)" class="st2" width="19.4" height="0.7"></rect> <path class="st2" d="M132.2,281.3l-0.9-0.7l12.7-15.3l0.9,0.7L132.2,281.3z M132,280.5l0.1,0.1l12.1-14.5l-0.1-0.1L132,280.5z"></path> </g> <g> <rect x="135.7" y="273.9" transform="matrix(0.6 -0.8 0.8 0.6 -161.8571 224.7961)" class="st2" width="16.3" height="0.7"></rect> <path class="st2" d="M139.3,281.3l-0.9-0.7l10.1-13.5l0.9,0.7L139.3,281.3z M139,280.5l0.1,0.1l9.5-12.7l-0.1-0.1L139,280.5z"></path> </g> <g> <rect x="142.7" y="275.9" transform="matrix(0.4507 -0.8927 0.8927 0.4507 -164.3228 285.3362)" class="st2" width="14" height="0.7"></rect> <path class="st2" d="M147,282.9l-1-0.5l6.5-12.9l1,0.5L147,282.9z M146.6,282.2l0.2,0.1l6.1-12l-0.2-0.1L146.6,282.2z"></path> </g> <g> <rect x="149" y="277.2" transform="matrix(0.2559 -0.9667 0.9667 0.2559 -152.8212 356.4368)" class="st2" width="12.3" height="0.7"></rect> <path class="st2" d="M154,283.8l-1.1-0.3l3.3-12.3l1.1,0.3L154,283.8z M153.5,283.2l0.2,0l3-11.4l-0.2,0L153.5,283.2z"></path> </g> <g> <rect x="156.6" y="276.8" transform="matrix(8.402074e-02 -0.9965 0.9965 8.402074e-02 -127.571 415.5352)" class="st2" width="11.2" height="0.7"></rect> <path class="st2" d="M162.3,283l-1.1-0.1l1-11.7l1.1,0.1L162.3,283z M161.7,282.5l0.2,0l0.9-10.7l-0.2,0L161.7,282.5z"></path> </g> <g> <rect x="166.6" y="276.2" transform="matrix(7.593561e-02 -0.9971 0.9971 7.593561e-02 -118.81 424.7693)" class="st2" width="6.4" height="0.7"></rect> <path class="st2" d="M170.1,280l-1.1-0.1l0.5-6.9l1.1,0.1L170.1,280z M169.5,279.4l0.2,0l0.5-5.9l-0.2,0L169.5,279.4z"></path> </g> <g> <rect x="171.6" y="277.5" transform="matrix(1.598917e-02 -0.9999 0.9999 1.598917e-02 -105.4042 448.5847)" class="st2" width="7.2" height="0.7"></rect> <path class="st2" d="M175.7,281.7l-1.1,0l0.1-7.7l1.1,0L175.7,281.7z M175.1,281.2l0.2,0l0.1-6.7l-0.2,0L175.1,281.2z"></path> </g> <g> <rect x="179.4" y="272.9" transform="matrix(0.9826 -0.1858 0.1858 0.9826 -48.2958 38.2133)" class="st2" width="0.7" height="7.8"></rect> <path class="st2" d="M180,281l-1.5-8.1l1.1-0.2l1.5,8.1L180,281z M179,273.2l1.4,7.2l0.2,0l-1.4-7.2L179,273.2z"></path> </g> <g> <rect x="182.2" y="273.2" transform="matrix(0.983 -0.1835 0.1835 0.983 -47.7264 38.2012)" class="st2" width="0.7" height="7.5"></rect> <path class="st2" d="M182.7,281l-1.5-7.8l1.1-0.2l1.5,7.8L182.7,281z M181.8,273.5l1.3,6.9l0.2,0l-1.3-6.9L181.8,273.5z"></path> </g> <g> <rect x="186.7" y="273" transform="matrix(0.9352 -0.3542 0.3542 0.9352 -86.1146 84.2065)" class="st2" width="0.7" height="8.7"></rect> <path class="st2" d="M188.1,281.9l-3.3-8.6l1.1-0.4l3.3,8.6L188.1,281.9z M185.4,273.5l2.9,7.7l0.2-0.1l-2.9-7.7L185.4,273.5z"></path> </g> <g> <rect x="194.4" y="272.4" transform="matrix(0.892 -0.452 0.452 0.892 -104.3864 117.9548)" class="st2" width="0.7" height="10.1"></rect> <path class="st2" d="M196.6,282.4l-4.8-9.4l1-0.5l4.8,9.4L196.6,282.4z M192.5,273.2l4.3,8.5l0.2-0.1l-4.3-8.5L192.5,273.2z"></path> </g> <g> <rect x="201.6" y="270.5" transform="matrix(0.8629 -0.5053 0.5053 0.8629 -112.8306 140.1569)" class="st2" width="0.7" height="15"></rect> <path class="st2" d="M205.4,285l-7.8-13.4l1-0.6l7.8,13.4L205.4,285z M198.2,271.8l7.4,12.6l0.2-0.1l-7.4-12.6L198.2,271.8z"></path> </g> <g> <rect x="208.3" y="268.9" transform="matrix(0.8647 -0.5023 0.5023 0.8647 -110.8728 142.2887)" class="st2" width="0.7" height="16.1"></rect> <path class="st2" d="M212.3,284.4L204,270l1-0.6l8.3,14.4L212.3,284.4z M204.7,270.2l7.9,13.5l0.2-0.1l-7.9-13.5L204.7,270.2z"></path> </g> <g> <rect x="214" y="266" transform="matrix(0.802 -0.5974 0.5974 0.802 -121.5229 182.4085)" class="st2" width="0.7" height="16.9"></rect> <path class="st2" d="M219.1,281.8l-10.4-14l0.9-0.7l10.4,14L219.1,281.8z M209.4,268l9.8,13.2l0.1-0.1l-9.8-13.2L209.4,268z"></path> </g> <g> <polygon class="st2" points="226,279.5 214.1,266.7 214.6,266.3 226.5,279.1 "></polygon> <path class="st2" d="M226,279.9l-12.2-13.2l0.8-0.8l12.2,13.2L226,279.9z M214.5,266.7l11.6,12.5l0.1-0.1l-11.6-12.5L214.5,266.7z "></path> </g> <g> <rect x="226.4" y="259.9" transform="matrix(0.6998 -0.7143 0.7143 0.6998 -126.1937 243.5535)" class="st2" width="0.7" height="24.1"></rect> <path class="st2" d="M235.1,280.9l-17.5-17.2l0.8-0.8l17.5,17.2L235.1,280.9z M218.2,263.7l16.9,16.5l0.1-0.1l-16.9-16.5 L218.2,263.7z"></path> </g> <g> <rect x="230.8" y="256.9" transform="matrix(0.669 -0.7432 0.7432 0.669 -123.8039 260.9833)" class="st2" width="0.7" height="25.2"></rect> <path class="st2" d="M240.3,278.5l-19.1-17.2l0.8-0.9l19.1,17.2L240.3,278.5z M221.9,261.3l18.4,16.5l0.1-0.1L222,261.2 L221.9,261.3z"></path> </g> <g> <rect x="233.8" y="254" transform="matrix(0.6007 -0.7995 0.7995 0.6007 -119.0723 293.3692)" class="st2" width="0.7" height="23.7"></rect> <path class="st2" d="M243.4,273.6l-19.3-14.5l0.7-0.9l19.3,14.5L243.4,273.6z M224.8,259l18.5,13.9l0.1-0.1l-18.5-13.9L224.8,259z "></path> </g> <g> <rect x="236.7" y="251.7" transform="matrix(0.6011 -0.7992 0.7992 0.6011 -115.8078 294.4548)" class="st2" width="0.7" height="23"></rect> <path class="st2" d="M246.1,270.7l-18.8-14.1l0.7-0.9l18.8,14.1L246.1,270.7z M228,256.5l18,13.5l0.1-0.1l-18-13.5L228,256.5z"></path> </g> <g> <rect x="240.5" y="247.2" transform="matrix(0.5541 -0.8324 0.8324 0.5541 -109.4826 316.6224)" class="st2" width="0.7" height="26.6"></rect> <path class="st2" d="M251.8,268.5l-22.6-15l0.6-1l22.6,15L251.8,268.5z M229.9,253.3l21.8,14.5l0.1-0.2L230,253.2L229.9,253.3z"></path> </g> <g> <rect x="241.6" y="245.7" transform="matrix(0.5185 -0.8551 0.8551 0.5185 -103.6529 330.8076)" class="st2" width="0.7" height="23.4"></rect> <path class="st2" d="M251.8,264.1l-20.4-12.4l0.6-1l20.4,12.4L251.8,264.1z M232.1,251.6l19.6,11.9l0.1-0.2l-19.6-11.9 L232.1,251.6z"></path> </g> <g> <rect x="243.2" y="240.9" transform="matrix(0.445 -0.8955 0.8955 0.445 -91.642 358.6322)" class="st2" width="0.7" height="24.6"></rect> <path class="st2" d="M254.5,259.4L232,248.2l0.5-1l22.5,11.2L254.5,259.4z M232.7,248l21.6,10.7l0.1-0.2l-21.6-10.7L232.7,248z"></path> </g> <g> <rect x="244.5" y="237.6" transform="matrix(0.4214 -0.9069 0.9069 0.4214 -85.4347 366.8762)" class="st2" width="0.7" height="25.5"></rect> <path class="st2" d="M256.3,256.4l-0.2-0.1l-23.4-10.9l0.5-1l0.2,0.1l23.4,10.9L256.3,256.4z M233.4,245.2l22.7,10.6l0.1-0.2 L233.5,245L233.4,245.2z"></path> </g> <g> <rect x="245.9" y="234.2" transform="matrix(0.2885 -0.9575 0.9575 0.2885 -61.1571 411.4099)" class="st2" width="0.7" height="25.3"></rect> <path class="st2" d="M258.4,251.1l-24.7-7.4l0.3-1.1l24.7,7.4L258.4,251.1z M234.3,243.4l23.8,7.2l0.1-0.2l-23.8-7.2L234.3,243.4z "></path> </g> <g> <rect x="245" y="230.2" transform="matrix(3.617235e-02 -0.9993 0.9993 3.617235e-02 -5.3835 478.4429)" class="st2" width="0.7" height="23.6"></rect> <path class="st2" d="M257.4,243l-24.1-0.9l0-1.1l24.1,0.9L257.4,243z M233.8,241.7l23.1,0.8l0-0.2l-23.1-0.8L233.8,241.7z"></path> </g> <g> <rect x="233.3" y="237.9" transform="matrix(0.9985 -5.508443e-02 5.508443e-02 0.9985 -12.7536 13.8077)" class="st2" width="21.5" height="0.7"></rect> <path class="st2" d="M233.1,239.4l-0.1-1.1l22-1.2l0.1,1.1L233.1,239.4z M233.6,238.7l0,0.2l21-1.2l0-0.2L233.6,238.7z"></path> </g> <g> <rect x="233.2" y="233.2" transform="matrix(0.9626 -0.271 0.271 0.9626 -54.1902 74.5169)" class="st2" width="19.1" height="0.7"></rect> <path class="st2" d="M233.5,236.7l-0.3-1.1l18.9-5.3l0.3,1.1L233.5,236.7z M233.8,235.9l0,0.2l17.9-5l0-0.2L233.8,235.9z"></path> </g> <g> <rect x="230.8" y="229.2" transform="matrix(0.9046 -0.4263 0.4263 0.9046 -74.9128 124.3251)" class="st2" width="18.8" height="0.7"></rect> </g> <g> <rect x="228.1" y="224.5" transform="matrix(0.8294 -0.5586 0.5586 0.8294 -85.0554 171.0525)" class="st2" width="18.8" height="0.7"></rect> </g> <g> <rect x="225.5" y="221.6" transform="matrix(0.7618 -0.6478 0.6478 0.7618 -88.16 204.1028)" class="st2" width="15.9" height="0.7"></rect> </g> <g> <rect x="223" y="218.6" transform="matrix(0.6068 -0.7949 0.7949 0.6068 -83.7542 268.5034)" class="st2" width="13" height="0.7"></rect> </g> <g> <rect x="218.5" y="217.2" transform="matrix(0.5784 -0.8157 0.8157 0.5784 -83.498 273.4732)" class="st2" width="8.7" height="0.7"></rect> </g> <g> <rect x="212.7" y="213.7" transform="matrix(0.51 -0.8602 0.8602 0.51 -77.6822 291.7835)" class="st2" width="9" height="0.7"></rect> </g> <g> <rect x="207.7" y="212.5" transform="matrix(0.346 -0.9382 0.9382 0.346 -62.0435 336.7227)" class="st2" width="5.7" height="0.7"></rect> </g> <g> <rect x="200.7" y="210.5" transform="matrix(0.5042 -0.8636 0.8636 0.5042 -81.316 279.9278)" class="st2" width="4.8" height="0.7"></rect> </g> <g> <polygon class="st4" points="167.5,170 162.8,158.5 160.7,158.5 160.7,169.2 155.1,160.5 152.2,160.5 152.2,169.2 146.3,162.8 146.3,170 138.2,164.2 138.2,171.6 131.7,166.4 131.7,173.3 125.3,170.8 125.3,176.3 119.9,174 119.9,178.4 114.2,178.4 114.2,180.9 108.8,180.9 108.8,185 104.9,185 104.9,187.6 102.6,187.6 102.6,193.5 99.9,193.5 99.9,196.8 98,196.8 98,209.5 101.4,209.5 101.4,213.9 103.2,213.9 102.5,219.6 104.5,221.3 105,223.6 106.1,227.9 107.6,227.9 107.6,230.9 108.6,232.8 111.7,232.8 111.7,234.8 116.3,234.8 116.3,237.5 120.2,237.5 121.4,238.7 125.4,238.7 125.4,242.5 132,239 132,244.4 139,240.6 139,247.2 146.6,242.2 146.6,249.5 153.6,243.2 153.6,251 156.1,251 161.8,242.6 161.8,252.3 164.5,252.3 168.9,241.4 168.9,252.9 172.4,252.9 175.2,241.3 177.3,241.3 177.3,252.9 180.5,252.9 180.5,242.7 180.5,240.4 183.2,240.4 186.4,252.9 188.8,252.9 188.8,242.9 195.7,252.9 197.4,252.9 197.4,243.4 204.1,251.5 205.7,251.5 205.7,244.4 211.6,250.7 212.7,249.5 212.7,243.7 219.4,247.8 219.4,241.1 226.3,245.5 226.3,239.1 233.4,242.2 235.3,240.2 238.3,240.2 240.5,237.8 243.6,237.8 243.6,232.8 246.2,230 249.8,230 251.9,227.7 251.9,223.3 254.5,223.3 254.5,218.5 256.4,218.5 256.4,215.6 258.4,215.6 258.4,210.3 260,210.3 260,202.3 257.1,202.3 257.1,197.5 254.9,197.5 254.9,190.7 252,190.7 252,185.3 248.8,185.3 248.8,181 244.4,181 244.4,176.6 239.5,176.6 239.5,172.3 236.1,172.3 232.6,175.4 232.6,169.2 225.3,173.8 225.3,165.9 219.6,170 219.6,163.1 211.5,170 211.5,161.9 204.4,168.5 204.4,159.8 196.6,169 196.6,158.5 194,158.5 189,170 187.6,170 187.6,158.5 185.8,158.5 183.8,170 173.2,170 171.3,158.5 169.5,158.5 169.5,170 "></polygon> </g> <g> <path class="st2" d="M197.7,253.3h-2.2l-6.3-9.3v9.3h-3l-3.2-12.5h-2.2v12.5h-3.9v-11.7h-1.5l-2.7,11.7h-4.1v-10.2l-3.9,9.5h-3.3 v-9l-5.1,7.6h-3.1V244l-7,6.3v-7.4l-7.6,4.9v-6.6l-7,3.8v-5.4l-6.6,3.6v-4h-3.8l-1.1-1.2H116v-2.6h-4.6v-2h-3l-1.1-2.2v-2.7h-1.4 l-1.2-4.6l-0.4-2.2l-2-1.7l0.7-5.5h-1.8v-4.4h-3.3v-13.3h1.8v-3.3h2.7v-5.9h2.3v-2.6h4v-4.1h5.3v-2.5h5.8v-4.6l5.3,2.3v-5.4 l6.4,2.5v-7.1l6.5,5.3v-7.4l8.1,5.8V162l5.9,6.3v-8.2h3.4l5.1,7.9v-9.9h2.7l4.7,11.5h1.4v-11.5h2.4l1.8,11.5h10.1l2-11.5h2.4v11.5 h0.8l5-11.5h3.1v10l7.7-9.2v8.9l7.1-6.6v8.1l8.1-6.9v7l5.8-4.1v7.9l7.3-4.6v6.1l3-2.7h3.8v4.3h4.9v4.4h4.4v4.3h3.2v5.4h2.9v6.7 h2.3v4.8h2.9v8.7h-1.7v5.3h-2v3h-1.8v4.8h-2.6v4.2l-2.3,2.4h-3.6l-2.4,2.6v5.1h-3.3l-2.2,2.4h-3l-1.9,2.1l-6.9-3v6.5l-6.8-4.4v6.7 l-6.7-4.1v5.3l-1.5,1.6l-5.5-6v6.6h-2.2l-6.2-7.5V253.3z M195.9,252.6h1.2v-10.1l7.2,8.7h1.2v-7.6l6.2,6.7l0.8-0.9v-6.2l6.7,4.1 v-6.8l6.8,4.4v-6.3l7.4,3.2l1.8-2h3l2.2-2.4h2.9v-4.7l2.8-3.1h3.6l1.9-2V223h2.6v-4.8h1.8v-3h2V210h1.7v-7.4h-2.9v-4.8h-2.3v-6.7 h-2.9v-5.4h-3.2v-4.3H244v-4.4h-4.9v-4.3h-2.9l-4,3.5v-6.4l-7.3,4.6v-7.9l-5.8,4.1v-6.8l-8.1,6.9v-8l-7.1,6.6v-8.6l-7.7,9.2v-11.1 h-2l-5,11.5h-1.9v-11.5h-1.2l-2,11.5h-11.2l-1.8-11.5h-1.2v11.5h-2.5l-4.7-11.5H161v11.5l-6.1-9.5h-2.4v9.2l-5.9-6.3v7l-8.1-5.8 v7.5l-6.5-5.3v6.7l-6.4-2.5v5.5l-5.3-2.3v4.3h-5.8v2.5h-5.3v4.1h-4v2.6h-2.3v5.9h-2.7v3.3h-1.8v12h3.3v4.4h1.9l-0.7,5.9l1.9,1.6 l0.5,2.4l1.1,4.1h1.6v3.2l0.9,1.7h3.2v2h4.6v2.6h3.8l1.1,1.2h4.2v3.6l6.6-3.6v5.4l7-3.8v6.5l7.6-4.9v7.1l7-6.3v8.1h2.1l6.1-9.2 V252h2.2l5-12.2v12.9h2.9l2.7-11.7h2.7v11.7h2.5v-12.5h3.3l3.2,12.5h1.8v-10.8L195.9,252.6z"></path> <path class="st2" d="M197.9,253.5h-2.5l-6-8.8v8.8H186l-3.2-12.5H181v12.5h-4.3v-11.7h-1.1l-2.7,11.7h-4.5v-9.2l-3.5,8.5h-3.7 v-8.4l-4.8,7.1H153v-7l-7,6.3v-7.5l-7.6,4.9v-6.7l-7,3.8v-5.4l-6.6,3.6v-4.2h-3.7L120,238h-4.3v-2.6h-4.6v-2h-2.9L107,231v-2.5 h-1.4l-1.3-4.8l-0.4-2.1l-2.1-1.7l0.6-5.3h-1.8v-4.4h-3.3v-13.8h1.8V193h2.7V187h2.3v-2.6h4v-4.1h5.3v-2.5h5.8v-4.7l5.3,2.3V170 l6.4,2.5v-7.3l6.5,5.3v-7.3l8.1,5.8v-7.5l5.9,6.3v-7.8h3.8l4.7,7.4v-9.3h3.1l4.7,11.5h1v-11.5h2.9l1.8,11.5h9.7l2-11.5h2.9v11.5 h0.4l5-11.5h3.5v9.5l7.7-9.2v9l7.1-6.6v8.1l8.1-6.9v7l5.8-4.1v8l7.3-4.6v6l2.7-2.4h4.1v4.3h4.9v4.4h4.4v4.3h3.2v5.4h2.9v6.7h2.3 v4.8h2.9v9.2h-1.7v5.3h-2v3h-1.8v4.8h-2.6v4l-2.4,2.6h-3.6l-2.3,2.5v5.3h-3.4l-2.2,2.4h-3l-2,2.1l-6.7-2.9v6.6l-6.8-4.4v6.7 l-6.7-4.1v5l-1.7,1.8l-5.3-5.7v6.2h-2.5l-5.9-7.1V253.5z M195.6,253h1.8v-9.4l6.6,7.9h1.8v-7l5.8,6.3l1.2-1.3v-5.6l6.7,4.1v-6.7 l6.8,4.4v-6.4l7.1,3l1.9-2h3l2.2-2.4h3.1v-5l2.6-2.8h3.6l2.1-2.3v-4.3h2.6v-4.8h1.8v-3h2v-5.3h1.7v-8.2h-2.9v-4.8h-2.3v-6.7h-2.9 v-5.4h-3.2v-4.3h-4.4v-4.4h-4.9v-4.3h-3.5l-3.4,3V169l-7.3,4.6v-7.9l-5.8,4.1v-6.9l-8.1,6.9v-8.1l-7.1,6.6v-8.8l-7.7,9.2v-10.4 H194l-5,11.5h-1.2v-11.5h-2l-2,11.5h-10.5l-1.8-11.5h-2v11.5h-1.8l-4.7-11.5h-2.3v10.5l-5.5-8.5h-3v8.6l-5.9-6.3v7.2l-8.1-5.8v7.4 l-6.5-5.3v7l-6.4-2.5v5.4l-5.3-2.3v4.5h-5.8v2.5h-5.3v4.1h-4v2.6h-2.3v5.9h-2.7v3.3h-1.8v12.9h3.3v4.4h1.8l-0.7,5.6l2,1.7l0.5,2.3 l1.2,4.4h1.5v2.9l1,2h3.1v2h4.6v2.6h4l1.1,1.2h3.9v3.9l6.6-3.6v5.4l7-3.8v6.6l7.6-4.9v7.3l7-6.3v7.6h2.7l5.5-8.2v9.5h2.9l4.3-10.5 V253h3.7l2.7-11.7h2V253h3.4v-12.5h2.6l3.2,12.5h2.6v-9.8L195.6,253z M197.3,252.9h-1.5l-7-10.2v10.2h-2.3l-3.2-12.5h-2.9v12.5h-3 v-11.7h-2.3l-2.7,11.7H169V241l-4.6,11.2h-2.6v-9.9l-5.8,8.6h-2.4V243l-7,6.3v-7.2L139,247v-6.6l-7,3.8v-5.4l-6.6,3.6v-3.7h-4.1 l-1.1-1.2h-3.9v-2.6h-4.6v-2h-3.2l-1-1.9v-3h-1.5l-1.1-4.3l-0.5-2.4l-2-1.6l0.7-5.7h-1.8v-4.4h-3.3v-12.5h1.8v-3.3h2.7v-5.9h2.3 v-2.6h4V181h5.3v-2.5h5.8v-4.4l5.3,2.3V171l6.4,2.5v-6.9l6.5,5.3v-7.4l8.1,5.8v-7.1l5.9,6.3v-8.9h2.8l5.8,8.9v-10.9h2l4.7,11.5 h2.1v-11.5h1.7l1.8,11.5h10.8l2-11.5h1.7v11.5h1.5l5-11.5h2.4v10.7l7.7-9.2v8.7l7.1-6.6v8.1l8.1-6.9v6.9l5.8-4.1v7.9l7.3-4.6v6.3 l3.6-3.2h3.2v4.3h4.9v4.4h4.4v4.3h3.2v5.4h2.9v6.7h2.3v4.8h2.9v7.9h-1.7v5.3h-2v3h-1.8v4.8h-2.6v4.4l-2,2.2h-3.6l-2.7,2.9v4.9h-3 l-2.2,2.4h-3l-1.8,2l-7.2-3.1v6.4l-6.8-4.4v6.8l-6.7-4.1v5.9l-1,1.1l-6-6.4v7.2h-1.5l-6.8-8.2V252.9z M196,252.4h0.8v-10.6 l7.5,9.1h0.8v-8l6.4,7l0.6-0.6v-6.6l6.7,4.1V240l6.8,4.4v-6.2l7.6,3.2l1.8-1.9h3l2.2-2.4h2.8v-4.6l3-3.2h3.6l1.8-1.9v-4.7h2.6V218 h1.8v-3h2v-5.3h1.7v-6.9h-2.9v-4.8h-2.3v-6.7h-2.9v-5.4h-3.2v-4.3h-4.4v-4.4h-4.9v-4.3h-2.6l-4.3,3.8v-6.5l-7.3,4.6V167l-5.8,4.1 v-6.8l-8.1,6.9v-8l-7.1,6.6v-8.5l-7.7,9.2v-11.5h-1.6l-5,11.5h-2.3v-11.5h-0.8l-2,11.5h-11.6l-1.8-11.5h-0.8v11.5h-2.9l-4.7-11.5 h-1.2v12.1l-6.5-10.1h-2v9.6l-5.9-6.3v6.8l-8.1-5.8v7.5l-6.5-5.3v6.6l-6.4-2.5v5.5l-5.3-2.3v4.1h-5.8v2.5h-5.3v4.1h-4v2.6h-2.3 v5.9h-2.7v3.3h-1.8v11.5h3.3v4.4h1.9l-0.7,6l1.9,1.6l0.5,2.5l1,3.9h1.7v3.4l0.8,1.5h3.3v2h4.6v2.6h3.6l1.1,1.2h4.3v3.4l6.6-3.6 v5.4l7-3.8v6.5l7.6-4.9v7l7-6.3v8.4h1.7l6.5-9.7v11h1.8l5.4-13.2v13.9h2.5l2.7-11.7h3.2v11.7h2v-12.5h3.8l3.2,12.5h1.4V241 L196,252.4z"></path> </g> <g> <path class="st4" d="M233.6,201.4c0,17.3-24.4,31.4-54.5,31.4c-30.1,0-54.5-14.1-54.5-31.4c0-17.3,24.4-31.4,54.5-31.4 C209.1,170,233.6,184.1,233.6,201.4"></path> </g> <g> <path class="st2" d="M179,233.1c-30.2,0-54.9-14.2-54.9-31.7c0-17.5,24.6-31.7,54.9-31.7c30.2,0,54.9,14.2,54.9,31.7 C233.9,218.9,209.3,233.1,179,233.1 M179,170.3c-29.9,0-54.2,13.9-54.2,31.1c0,17.1,24.3,31.1,54.2,31.1 c29.9,0,54.2-13.9,54.2-31.1C233.2,184.3,208.9,170.3,179,170.3"></path> <path class="st2" d="M179,233.4c-30.4,0-55.1-14.3-55.1-32c0-17.6,24.7-32,55.1-32s55.1,14.3,55.1,32 C234.1,219,209.4,233.4,179,233.4z M179,169.9c-30.1,0-54.6,14.1-54.6,31.5c0,17.4,24.5,31.5,54.6,31.5s54.6-14.1,54.6-31.5 C233.6,184,209.1,169.9,179,169.9z M179,232.7c-30,0-54.4-14-54.4-31.3c0-17.3,24.4-31.3,54.4-31.3s54.4,14,54.4,31.3 C233.5,218.7,209,232.7,179,232.7z M179,170.6c-29.8,0-54,13.8-54,30.8c0,17,24.2,30.8,54,30.8s54-13.8,54-30.8 C233,184.4,208.8,170.6,179,170.6z"></path> </g> <g> <rect x="118" y="177.8" transform="matrix(0.276 -0.9611 0.9611 0.276 -94.7242 249.6743)" class="st2" width="0.7" height="19.8"></rect> </g> <g> <rect x="125.1" y="175.6" transform="matrix(0.5905 -0.807 0.807 0.5905 -95.8583 175.9821)" class="st2" width="0.7" height="13.7"></rect> </g> <g> <rect x="129.4" y="173.9" transform="matrix(0.5667 -0.8239 0.8239 0.5667 -91.5445 184.6284)" class="st2" width="0.7" height="10.9"></rect> </g> <g> <rect x="121.3" y="176" transform="matrix(0.4158 -0.9095 0.9095 0.4158 -96.531 218.3082)" class="st2" width="0.7" height="16.5"></rect> </g> <g> <rect x="134.2" y="172.3" transform="matrix(0.8018 -0.5975 0.5975 0.8018 -79.2136 115.5124)" class="st2" width="0.7" height="9.7"></rect> </g> <g> <rect x="139.5" y="171.2" transform="matrix(0.8615 -0.5078 0.5078 0.8615 -69.1989 95.1608)" class="st2" width="0.7" height="6.4"></rect> </g> <g> <rect x="147.2" y="169.7" transform="matrix(0.8533 -0.5215 0.5215 0.8533 -67.9977 102.1295)" class="st2" width="0.7" height="4.4"></rect> </g> <g> <rect x="152.5" y="169" transform="matrix(0.8974 -0.4412 0.4412 0.8974 -59.5581 84.9296)" class="st2" width="0.7" height="3"></rect> </g> <g> <rect x="114.8" y="179.3" transform="matrix(0.214 -0.9768 0.9768 0.214 -94.9373 261.7419)" class="st2" width="0.7" height="21.1"></rect> </g> <g> <rect x="113.6" y="183.4" transform="matrix(0.1102 -0.9939 0.9939 0.1102 -92.2119 286.5866)" class="st2" width="0.7" height="22.8"></rect> </g> <g> <rect x="98.5" y="199.4" transform="matrix(0.9964 -8.505650e-02 8.505650e-02 0.9964 -16.5866 10.1802)" class="st2" width="25.3" height="0.7"></rect> </g> <g> <rect x="100.9" y="205.9" transform="matrix(0.9611 -0.2761 0.2761 0.9611 -52.5629 39.1124)" class="st2" width="23.4" height="0.7"></rect> </g> <g> <rect x="97.9" y="202.8" transform="matrix(0.9913 -0.1319 0.1319 0.9913 -25.8296 16.4553)" class="st2" width="26.7" height="0.7"></rect> </g> <g> <rect x="103.7" y="209.6" transform="matrix(0.9432 -0.3321 0.3321 0.9432 -63.2121 50.0176)" class="st2" width="22.1" height="0.7"></rect> </g> <g> <rect x="103.3" y="215.8" transform="matrix(0.8964 -0.4433 0.4433 0.8964 -83.9003 73.314)" class="st2" width="23.2" height="0.7"></rect> </g> <g> <rect x="109.1" y="224.7" transform="matrix(0.7953 -0.6063 0.6063 0.7953 -111.4971 119.9705)" class="st2" width="25.5" height="0.7"></rect> </g> <g> <rect x="105.5" y="220.6" transform="matrix(0.8343 -0.5513 0.5513 0.8343 -102.172 101.8022)" class="st2" width="25.6" height="0.7"></rect> </g> <g> <rect x="113.7" y="227.2" transform="matrix(0.7807 -0.6249 0.6249 0.7807 -114.6721 128.263)" class="st2" width="23.4" height="0.7"></rect> <path class="st2" d="M116.5,235.4l-0.7-0.9l18.6-14.9l0.7,0.9L116.5,235.4z M116.4,234.6l0.1,0.1l17.9-14.3l-0.1-0.1L116.4,234.6z "></path> </g> <g> <rect x="117.4" y="229.5" transform="matrix(0.7562 -0.6543 0.6543 0.7562 -118.8677 140.4985)" class="st2" width="23.5" height="0.7"></rect> <path class="st2" d="M120.4,238.1l-0.7-0.9l18.1-15.7l0.8,0.9L120.4,238.1z M120.4,237.2l0.1,0.1l17.4-15.1l-0.1-0.1L120.4,237.2z "></path> </g> <g> <rect x="122.5" y="231" transform="matrix(0.734 -0.6791 0.6791 0.734 -121.6743 152.0812)" class="st2" width="21.6" height="0.7"></rect> <path class="st2" d="M125.6,239.3l-0.8-0.8l16.2-15l0.8,0.8L125.6,239.3z M125.5,238.5l0.1,0.1l15.5-14.3l-0.1-0.1L125.5,238.5z"></path> </g> <g> <rect x="128.5" y="232.8" transform="matrix(0.6408 -0.7677 0.7677 0.6408 -129.3272 189.8212)" class="st2" width="19.4" height="0.7"></rect> <path class="st2" d="M132.2,241.1l-0.9-0.7l12.7-15.3l0.9,0.7L132.2,241.1z M132,240.3l0.1,0.1l12.1-14.5l-0.1-0.1L132,240.3z"></path> </g> <g> <rect x="135.7" y="233.7" transform="matrix(0.6 -0.8 0.8 0.6 -129.7101 208.7216)" class="st2" width="16.3" height="0.7"></rect> <path class="st2" d="M139.3,241.1l-0.9-0.7l10.1-13.5l0.9,0.7L139.3,241.1z M139,240.4l0.1,0.1l9.5-12.7l-0.1-0.1L139,240.4z"></path> </g> <g> <rect x="142.7" y="235.7" transform="matrix(0.4507 -0.8927 0.8927 0.4507 -128.4538 263.2659)" class="st2" width="14" height="0.7"></rect> <path class="st2" d="M147,242.7l-1-0.5l6.5-12.9l1,0.5L147,242.7z M146.6,242l0.2,0.1l6.1-12l-0.2-0.1L146.6,242z"></path> </g> <g> <polygon class="st2" points="153.9,243.3 153.2,243.1 156.5,230.1 157.2,230.5 "></polygon> <path class="st2" d="M154,243.6l-1.1-0.3l3.4-13.5l1.2,0.5L154,243.6z M153.5,243l0.2,0l3.2-12.4l-0.3-0.1L153.5,243z"></path> </g> <g> <rect x="156.6" y="236.6" transform="matrix(8.402074e-02 -0.9965 0.9965 8.402074e-02 -87.5305 378.7288)" class="st2" width="11.2" height="0.7"></rect> <path class="st2" d="M162.3,242.9l-1.1-0.1l1-11.7l1.1,0.1L162.3,242.9z M161.7,242.3l0.2,0l0.9-10.7l-0.2,0L161.7,242.3z"></path> </g> <g> <polygon class="st2" points="169.3,242 169.2,239.5 169.7,233.1 170.3,233.1 "></polygon> <path class="st2" d="M169.5,242l-0.5,0l-0.1-2.5l0.5-6.7l1.2,0.1L169.5,242z M169.9,233.3l-0.3,3.8l0.5-3.8L169.9,233.3z"></path> </g> <g> <polygon class="st2" points="175.5,241.3 174.8,241.3 175.1,232.8 175.8,232.9 "></polygon> <path class="st2" d="M175.7,241.5l-1.1,0l0.3-8.9l1.1,0L175.7,241.5z M175.1,241l0.2,0l0.3-7.9l-0.2,0L175.1,241z"></path> </g> <g> <rect x="179.4" y="232.7" transform="matrix(0.9826 -0.1858 0.1858 0.9826 -40.8306 37.5138)" class="st2" width="0.7" height="7.8"></rect> <path class="st2" d="M180,240.8l-1.5-8.1l1.1-0.2l1.5,8.1L180,240.8z M179,233.1l1.4,7.2l0.2,0l-1.4-7.2L179,233.1z"></path> </g> <g> <rect x="182.2" y="233" transform="matrix(0.983 -0.1835 0.1835 0.983 -40.3521 37.5188)" class="st2" width="0.7" height="7.5"></rect> <path class="st2" d="M182.7,240.8l-1.5-7.8l1.1-0.2l1.5,7.8L182.7,240.8z M181.8,233.4l1.3,6.9l0.2,0l-1.3-6.9L181.8,233.4z"></path> </g> <g> <polygon class="st2" points="188.2,241.4 185.1,233.2 185.8,233 189.7,243.1 "></polygon> <path class="st2" d="M190.4,244.4l-2.4-2.9l-3.2-8.4l1.1-0.4L190.4,244.4z M188.4,241.3l0.5,0.6l-3.3-8.5l-0.2,0.1L188.4,241.3z"></path> </g> <g> <polygon class="st2" points="196.7,241.9 192.1,233 192.7,232.7 198.7,244.2 "></polygon> <path class="st2" d="M199.8,245.7l-3.3-3.7l-4.7-9.2l1-0.5L199.8,245.7z M196.9,241.8l0.7,0.8l-5-9.6l-0.2,0.1L196.9,241.8z"></path> </g> <g> <rect x="201.6" y="230.3" transform="matrix(0.8629 -0.5053 0.5053 0.8629 -92.5244 134.6485)" class="st2" width="0.7" height="15"></rect> <path class="st2" d="M205.4,244.9l-7.8-13.4l1-0.6l7.8,13.4L205.4,244.9z M198.2,231.6l7.4,12.6l0.2-0.1l-7.4-12.6L198.2,231.6z"></path> </g> <g> <rect x="208.3" y="228.7" transform="matrix(0.8647 -0.5023 0.5023 0.8647 -90.6867 136.8449)" class="st2" width="0.7" height="16.1"></rect> <path class="st2" d="M212.3,244.2l-8.3-14.4l1-0.6l8.3,14.4L212.3,244.2z M204.7,230l7.9,13.5l0.2-0.1l-7.9-13.5L204.7,230z"></path> </g> <g> <rect x="214" y="225.8" transform="matrix(0.802 -0.5974 0.5974 0.802 -97.5192 174.4511)" class="st2" width="0.7" height="16.9"></rect> <path class="st2" d="M219.1,241.6l-10.4-14l0.9-0.7l10.4,14L219.1,241.6z M209.4,227.8l9.8,13.2l0.1-0.1l-9.8-13.2L209.4,227.8z"></path> </g> <g> <polygon class="st2" points="226,239.3 214.1,226.5 214.6,226.1 226.5,238.9 "></polygon> <path class="st2" d="M226,239.7l-12.2-13.2l0.8-0.8l12.2,13.2L226,239.7z M214.5,226.6L226,239l0.1-0.1l-11.6-12.5L214.5,226.6z"></path> </g> <g> <rect x="226.4" y="219.7" transform="matrix(0.6998 -0.7143 0.7143 0.6998 -97.4902 231.4912)" class="st2" width="0.7" height="24.1"></rect> <path class="st2" d="M235.1,240.7l-17.5-17.2l0.8-0.8l17.5,17.2L235.1,240.7z M218.2,223.5l16.9,16.5l0.1-0.1l-16.9-16.5 L218.2,223.5z"></path> </g> <g> <rect x="230.8" y="216.7" transform="matrix(0.669 -0.7432 0.7432 0.669 -93.9391 247.6909)" class="st2" width="0.7" height="25.2"></rect> <path class="st2" d="M240.3,238.3l-19.1-17.2l0.8-0.9l19.1,17.2L240.3,238.3z M221.9,221.1l18.4,16.5l0.1-0.1L222,221L221.9,221.1 z"></path> </g> <g> <rect x="233.8" y="213.9" transform="matrix(0.6007 -0.7995 0.7995 0.6007 -86.9459 277.3224)" class="st2" width="0.7" height="23.7"></rect> <path class="st2" d="M243.4,233.4l-19.3-14.5l0.7-0.9l19.3,14.5L243.4,233.4z M224.8,218.8l18.5,13.9l0.1-0.1l-18.5-13.9 L224.8,218.8z"></path> </g> <g> <rect x="236.7" y="211.5" transform="matrix(0.6011 -0.7992 0.7992 0.6011 -83.6939 278.4246)" class="st2" width="0.7" height="23"></rect> <path class="st2" d="M246.1,230.6l-18.8-14.1l0.7-0.9l18.8,14.1L246.1,230.6z M228,216.4l18,13.5l0.1-0.1l-18-13.5L228,216.4z"></path> </g> <g> <rect x="240.5" y="207" transform="matrix(0.5541 -0.8324 0.8324 0.5541 -76.0337 298.7066)" class="st2" width="0.7" height="26.6"></rect> <path class="st2" d="M251.8,228.3l-22.6-15l0.6-1l22.6,15L251.8,228.3z M229.9,213.2l21.8,14.5l0.1-0.2L230,213L229.9,213.2z"></path> </g> <g> <rect x="241.6" y="205.6" transform="matrix(0.5185 -0.8551 0.8551 0.5185 -69.294 311.4602)" class="st2" width="0.7" height="23.4"></rect> <path class="st2" d="M251.8,223.9l-20.4-12.4l0.6-1l20.4,12.4L251.8,223.9z M232.1,211.4l19.6,11.9l0.1-0.2l-19.6-11.9 L232.1,211.4z"></path> </g> <g> <rect x="243.2" y="200.8" transform="matrix(0.4451 -0.8955 0.8955 0.4451 -55.6638 336.3165)" class="st2" width="0.7" height="24.6"></rect> <path class="st2" d="M254.5,219.2L232,208l0.5-1l22.5,11.2L254.5,219.2z M232.7,207.8l21.6,10.7l0.1-0.2l-21.6-10.7L232.7,207.8z"></path> </g> <g> <rect x="244.5" y="197.5" transform="matrix(0.4214 -0.9069 0.9069 0.4214 -48.9944 343.6273)" class="st2" width="0.7" height="25.5"></rect> <path class="st2" d="M256.3,216.2l-0.2-0.1l-23.4-10.9l0.5-1l0.2,0.1l23.4,10.9L256.3,216.2z M233.4,205l22.7,10.6l0.1-0.2 l-22.7-10.6L233.4,205z"></path> </g> <g> <rect x="245.9" y="194" transform="matrix(0.2885 -0.9575 0.9575 0.2885 -22.679 382.8266)" class="st2" width="0.7" height="25.3"></rect> <path class="st2" d="M258.4,210.9l-24.7-7.4l0.3-1.1l24.7,7.4L258.4,210.9z M234.3,203.2l23.8,7.2l0.1-0.2l-23.8-7.2L234.3,203.2z "></path> </g> <g> <rect x="245" y="190" transform="matrix(3.617235e-02 -0.9993 0.9993 3.617235e-02 34.7727 439.7139)" class="st2" width="0.7" height="23.6"></rect> <path class="st2" d="M257.4,202.8l-24.1-0.9l0-1.1l24.1,0.9L257.4,202.8z M233.8,201.5l23.1,0.8l0-0.2l-23.1-0.8L233.8,201.5z"></path> </g> <g> <rect x="233.3" y="197.7" transform="matrix(0.9985 -5.508443e-02 5.508443e-02 0.9985 -10.5402 13.7467)" class="st2" width="21.5" height="0.7"></rect> <path class="st2" d="M233.1,199.2l-0.1-1.1l22-1.2l0.1,1.1L233.1,199.2z M233.6,198.6l0,0.2l21-1.2l0-0.2L233.6,198.6z"></path> </g> <g> <rect x="233.2" y="193" transform="matrix(0.9626 -0.271 0.271 0.9626 -43.3018 73.0136)" class="st2" width="19.1" height="0.7"></rect> <path class="st2" d="M233.5,196.5l-0.3-1.1l18.9-5.3l0.3,1.1L233.5,196.5z M233.8,195.8l0,0.2l17.9-5l0-0.2L233.8,195.8z"></path> </g> <g> <rect x="230.8" y="189" transform="matrix(0.9046 -0.4263 0.4263 0.9046 -57.782 120.4904)" class="st2" width="18.8" height="0.7"></rect> <path class="st2" d="M231.8,193.9l-0.5-1l17.5-8.2l0.5,1L231.8,193.9z M231.9,193.1l0.1,0.2l16.6-7.8l-0.1-0.2L231.9,193.1z"></path> </g> <g> <rect x="228.1" y="184.3" transform="matrix(0.8294 -0.5586 0.5586 0.8294 -62.6075 164.1975)" class="st2" width="18.8" height="0.7"></rect> <path class="st2" d="M229.9,190.5l-0.6-1l16-10.8l0.6,1L229.9,190.5z M229.9,189.7l0.1,0.2l15.2-10.2l-0.1-0.2L229.9,189.7z"></path> </g> <g> <rect x="225.5" y="181.4" transform="matrix(0.7618 -0.6478 0.6478 0.7618 -62.1279 194.5302)" class="st2" width="15.9" height="0.7"></rect> <path class="st2" d="M227.6,187.5l-0.7-0.9l12.5-10.6l0.7,0.9L227.6,187.5z M227.5,186.7l0.1,0.1l11.7-10l-0.1-0.1L227.5,186.7z"></path> </g> <g> <rect x="223" y="178.4" transform="matrix(0.6068 -0.7949 0.7949 0.6068 -51.8147 252.7033)" class="st2" width="13" height="0.7"></rect> <path class="st2" d="M225.9,184.4l-0.9-0.7l8.2-10.7l0.9,0.7L225.9,184.4z M225.7,183.6l0.1,0.1l7.6-9.9l-0.1-0.1L225.7,183.6z"></path> </g> <g> <rect x="218.5" y="177" transform="matrix(0.5784 -0.8157 0.8157 0.5784 -50.7194 256.5327)" class="st2" width="8.7" height="0.7"></rect> <path class="st2" d="M220.6,181.4l-0.9-0.7l5.3-7.5l0.9,0.7L220.6,181.4z M220.4,180.6l0.1,0.1l4.8-6.7l-0.1-0.1L220.4,180.6z"></path> </g> <g> <rect x="212.7" y="173.6" transform="matrix(0.51 -0.8602 0.8602 0.51 -43.1179 272.0932)" class="st2" width="9" height="0.7"></rect> <path class="st2" d="M215.3,178.3l-1-0.6l4.9-8.2l1,0.6L215.3,178.3z M215,177.5l0.2,0.1l4.4-7.4l-0.2-0.1L215,177.5z"></path> </g> <g> <rect x="207.7" y="172.4" transform="matrix(0.346 -0.9382 0.9382 0.346 -24.3437 310.4443)" class="st2" width="5.7" height="0.7"></rect> <path class="st2" d="M210,175.8l-1.1-0.4l2.1-5.8l1.1,0.4L210,175.8z M209.5,175.1l0.2,0.1l1.8-4.9l-0.2-0.1L209.5,175.1z"></path> </g> <g> <rect x="200.7" y="170.3" transform="matrix(0.5042 -0.8636 0.8636 0.5042 -46.6156 260.0063)" class="st2" width="4.8" height="0.7"></rect> <path class="st2" d="M202.3,173.2l-1-0.6l2.7-4.6l1,0.6L202.3,173.2z M202,172.4l0.2,0.1l2.2-3.7l-0.2-0.1L202,172.4z"></path> </g> <g> <rect x="177.3" y="110.8" class="st2" width="4.6" height="31.6"></rect> </g> <g> <rect x="178.7" y="138.2" class="st2" width="1.8" height="45.7"></rect> </g> <g> <polygon class="st2" points="146.5,203.3 146.2,202.7 179.6,183.5 179.7,183.6 211.7,201.8 211.3,202.4 179.6,184.3 "></polygon> <path class="st2" d="M146.4,203.6l-0.6-1l33.7-19.4l0.3,0.2l32.2,18.4l-0.6,1l-0.2-0.1l-31.7-18.1L146.4,203.6z M146.5,202.8 l0.1,0.2l33-19l0.1,0.1l31.6,18l0.1-0.2l-31.8-18.2L146.5,202.8z"></path> </g> </g> <g> <path class="st5" d="M264.2,363.7V43.6H79.6v323.7c0,33.4,41.4,46.5,92.4,46.5s92.4-13.1,92.4-46.5 C264.4,366.1,264.3,364.9,264.2,363.7 M262.6,259.3c0,0-2.2,40.3-6.3,58.9c-4.1,18.6-13.3,37.8-19.1,43.7s-17.9,18-37,16.1 c-19.1-2-25-9-32.5-16.3s-14.8-18.7-14.8-18.7s-5.6-7.1-12.2-19.1c-6.5-12-11.7-35.9-11.7-35.9l-1.5-31.8l2.4-26.4l5.8-27.1 l9.1-22.9l13-20.6l14.2-17.3l14-10.6l13.6-7.6l13.6-4.2l12.7-1.8l11.2,2.7l9.1,6.4l7.6,13.3l6.4,21.2l2.4,35.1V259.3z"></path> </g> <g> <path class="st5" d="M172,414.1c-27,0-49.7-3.7-65.5-10.8c-18.1-8.1-27.3-20.2-27.3-36.1v-324h185.3v320.4c0.1,1.3,0.2,2.5,0.2,3.6 c0,15.9-9.2,28-27.3,36.1C221.6,410.4,199,414.1,172,414.1 M79.9,51.6v315.7c0,15.6,9,27.5,26.9,35.5c15.7,7,38.3,10.7,65.2,10.7 s49.5-3.7,65.2-10.7c17.8-7.9,26.9-19.9,26.9-35.5c0-1.1-0.1-2.3-0.2-3.6l0,0V51.6H79.9z M217,380.7c-5.2,1.3-8.5,1.3-15,1.1 s-11.7,4.1-17.8,1.5c-6.1-2.6-20.7-5.5-25.6-10.4c-4.9-4.9-10.9-21.3-10.9-21.3l-16.9-27.4l-6.5-35.2l2.9-32.9l2.4-26.4l5.8-27.1 l9.1-22.9l13.1-20.7l14.3-17.4l14-10.6l13.7-7.6l13.6-4.2l12.8-1.8l0.1,0l11.3,2.8l9.2,6.5l7.6,13.4l6.4,21.3l2.4,35.1l0,62.9l0,0 l-3.3,59.8l-2.4,10.1l-6.7,18.5l-8.5,15.6c0,0-4.1,6.1-9.6,10.6C226.9,378.6,222.2,379.4,217,380.7z M239.5,364.9l11.1-14.6 l3.9-17.4l4.4-13.9l3.3-59.8v-62.8l-2.4-35.1l-6.3-21.1L246,127l-9-6.3l-11.1-2.7l-12.7,1.8l-13.5,4.2l-13.6,7.6l-13.9,10.6 L158,159.4L145,180l-9.1,22.8l-5.7,27l-2.4,26.3l1.5,31.8l2.3,33.7l20.4,26.1l16.1,21.9l18.5,10l13.7,3l19.1-2.2L239.5,364.9z"></path> </g> <g> <path class="st6" d="M456,151.1h-8c-1,0-1.9-0.8-1.9-1.9s0.8-1.9,1.9-1.9h8c1,0,1.9,0.8,1.9,1.9S457,151.1,456,151.1z M440,151.1 h-8c-1,0-1.9-0.8-1.9-1.9s0.8-1.9,1.9-1.9h8c1,0,1.9,0.8,1.9,1.9S441,151.1,440,151.1z M424,151.1h-8c-1,0-1.9-0.8-1.9-1.9 s0.8-1.9,1.9-1.9h8c1,0,1.9,0.8,1.9,1.9S425,151.1,424,151.1z M408,151.1h-8c-1,0-1.9-0.8-1.9-1.9s0.8-1.9,1.9-1.9h8 c1,0,1.9,0.8,1.9,1.9S409,151.1,408,151.1z M392,151.1h-8c-1,0-1.9-0.8-1.9-1.9s0.8-1.9,1.9-1.9h8c1,0,1.9,0.8,1.9,1.9 S393,151.1,392,151.1z M376,151.1h-8c-1,0-1.9-0.8-1.9-1.9s0.8-1.9,1.9-1.9h8c1,0,1.9,0.8,1.9,1.9S377,151.1,376,151.1z M360,151.1 h-8c-1,0-1.9-0.8-1.9-1.9s0.8-1.9,1.9-1.9h8c1,0,1.9,0.8,1.9,1.9S361,151.1,360,151.1z M344,151.1h-8c-1,0-1.9-0.8-1.9-1.9 s0.8-1.9,1.9-1.9h8c1,0,1.9,0.8,1.9,1.9S345,151.1,344,151.1z M328,151.1h-8c-1,0-1.9-0.8-1.9-1.9s0.8-1.9,1.9-1.9h8 c1,0,1.9,0.8,1.9,1.9S329,151.1,328,151.1z M312,151.1h-8c-1,0-1.9-0.8-1.9-1.9s0.8-1.9,1.9-1.9h8c1,0,1.9,0.8,1.9,1.9 S313,151.1,312,151.1z M296,151.1h-8c-1,0-1.9-0.8-1.9-1.9s0.8-1.9,1.9-1.9h8c1,0,1.9,0.8,1.9,1.9S297,151.1,296,151.1z M280,151.1 h-8c-1,0-1.9-0.8-1.9-1.9s0.8-1.9,1.9-1.9h8c1,0,1.9,0.8,1.9,1.9S281,151.1,280,151.1z M264,151.1h-8c-1,0-1.9-0.8-1.9-1.9 s0.8-1.9,1.9-1.9h8c1,0,1.9,0.8,1.9,1.9S265,151.1,264,151.1z M248,151.1h-8c-1,0-1.9-0.8-1.9-1.9s0.8-1.9,1.9-1.9h8 c1,0,1.9,0.8,1.9,1.9S249,151.1,248,151.1z M232,151.1h-8c-1,0-1.9-0.8-1.9-1.9s0.8-1.9,1.9-1.9h8c1,0,1.9,0.8,1.9,1.9 S233,151.1,232,151.1z M216,151.1h-8c-1,0-1.9-0.8-1.9-1.9s0.8-1.9,1.9-1.9h8c1,0,1.9,0.8,1.9,1.9S217,151.1,216,151.1z M200,151.1 h-8c-1,0-1.9-0.8-1.9-1.9s0.8-1.9,1.9-1.9h8c1,0,1.9,0.8,1.9,1.9S201,151.1,200,151.1z"></path> </g> <g> <path class="st0" d="M171.6,87.1c-50.8,0-92.1-18.9-92.1-42.2c0-23.3,41.3-42.2,92.1-42.2c50.8,0,92.1,18.9,92.1,42.2 C263.6,68.1,222.4,87.1,171.6,87.1"></path> </g> </svg>