<?xml version="1.0" encoding="UTF-8"?> <!-- Generator: Adobe Illustrator 16.0.0, SVG Export Plug-In . SVG Version: 6.00 Build 0) --> <svg xmlns="http://www.w3.org/2000/svg" xmlns:xlink="http://www.w3.org/1999/xlink" version="1.1" id="Layer_1" x="0px" y="0px" width="426px" height="105.333px" viewBox="0 0 426 105.333" xml:space="preserve"> <path fill="#F48220" d="M100.566,32.332c0.391-1.48,0.577-2.813,0.571-4.074c-0.035-7.792-5.896-14.379-13.661-15.325L65.7,12.938 c-1.787,0.011-3.439,0.982-4.312,2.539c-0.417,0.749-0.634,1.593-0.63,2.444c0.002,0.724,0.165,1.438,0.47,2.085L58.6,20.014 c-1.788,0.011-3.44,0.982-4.31,2.539c-0.414,0.738-0.631,1.582-0.628,2.441c0.004,0.759,0.183,1.506,0.519,2.178 c-1.405,0.292-2.635,1.186-3.334,2.438c-0.417,0.741-0.635,1.584-0.631,2.438c0.016,2.559,2.012,4.69,4.521,4.912 c-0.318,0.69-0.477,1.409-0.471,2.141c0.003,1.316,0.521,2.553,1.462,3.486c0.935,0.925,2.172,1.435,3.519,1.435l23.935-0.324 l-2.543,4.337c-2.319,3.96-0.014,9.483,3.516,11.591l2.193,1.306l12.116-20.678c1.063-1.813,2.269-3.871,2.272-6.405 c0-0.417-0.062-0.825-0.124-1.221L100.566,32.332z M79.723,28.105c-1.149,1.964-1.708,3.781-1.708,5.558 c0,2.618,0.975,5.236,2.69,7.264l-21.49,0.291c-0.573,0-1.112-0.219-1.517-0.622c-0.407-0.403-0.631-0.941-0.631-1.518 c-0.002-0.376,0.09-0.741,0.269-1.059c0.38-0.676,1.094-1.098,1.87-1.1c0.159-0.003,14.237-0.069,14.342-0.069 c0.758,0,1.424-0.648,1.424-1.385c0.004-0.367-0.14-0.712-0.401-0.975c-0.267-0.27-0.624-0.418-0.993-0.418h-0.002l-0.063-0.001 c-1.012,0-16.596,0.095-18.341,0.105c-1.181,0-2.147-0.961-2.154-2.144c-0.002-0.368,0.092-0.731,0.272-1.053 c0.377-0.677,1.094-1.101,1.87-1.103c0,0,18.366-0.067,18.474-0.067c0.768,0,1.418-0.636,1.42-1.391 c0-0.367-0.144-0.715-0.407-0.978c-0.268-0.27-0.627-0.419-1.009-0.419c-0.032,0-3.041,0.02-6.369,0.041l-8.651,0.053 c-1.179,0-2.146-0.959-2.156-2.137c0-0.371,0.095-0.736,0.272-1.057c0.378-0.676,1.097-1.098,1.877-1.1 c0.186-0.004,13.455-0.045,13.533-0.048c0.069,0.01,1.477,0.066,1.569,0.066c0.52,0,0.998-0.277,1.246-0.721 c0.114-0.199,0.175-0.428,0.177-0.667c0-0.766-0.633-1.392-1.398-1.395c-0.029-0.003-0.838-0.003-4.553-0.007l-3.476-0.006 c-0.571,0-1.11-0.22-1.516-0.623c-0.406-0.406-0.632-0.945-0.635-1.515c-0.001-0.373,0.093-0.739,0.274-1.059 c0.377-0.676,1.093-1.098,1.867-1.103l21.454-0.026c5.831,0.713,10.364,5.316,11.054,11.086c-2.154-2.649-5.376-4.21-8.772-4.213 C85.436,22.591,81.714,24.704,79.723,28.105z M87.252,42.279c0,0-1.821-1.103-1.916-1.159c-2.715-1.472-4.399-4.303-4.396-7.384 c0-1.487,0.399-2.954,1.155-4.239c1.502-2.565,4.278-4.158,7.246-4.158c2.235,0.002,4.31,0.857,5.842,2.41 c1.529,1.547,2.371,3.635,2.37,5.879c0,2.035-0.913,3.765-1.767,5.224l-0.063,0.104c-0.676,1.156-9,15.333-10.556,17.982 c-2.042-1.524-3.3-4.968-1.9-7.36l4.18-7.181L87.252,42.279z"></path> <path fill="#1FC3F3" d="M80.322,67.65c-0.45-0.733-1.078-1.337-1.816-1.747c-0.633-0.353-1.336-0.564-2.052-0.616l1.28-2.291 c0.872-1.559,0.835-3.476-0.093-5.002c-0.441-0.726-1.069-1.326-1.819-1.746c-0.662-0.367-1.4-0.577-2.154-0.614 c0.436-1.367,0.261-2.877-0.487-4.104c-0.44-0.723-1.067-1.326-1.814-1.744c-0.764-0.422-1.629-0.638-2.5-0.62 c-1.603,0.031-3.104,0.848-4,2.151c-0.45-0.623-0.998-1.113-1.633-1.463c-1.135-0.634-2.491-0.792-3.752-0.437 c-1.276,0.362-2.334,1.201-2.979,2.367L45.042,72.799l-2.536-4.343c-1.376-2.363-4.27-3.788-7.551-3.723 c-1.569,0.031-3.086,0.422-4.272,1.1l-2.212,1.271l11.945,20.472l0.133,0.229c1.059,1.816,2.259,3.877,4.469,5.124 c0.31,0.172,0.665,0.285,1.006,0.396c0.163,0.053,0.323,0.104,0.475,0.16c0.93,0.905,1.943,1.842,3.192,2.538 c2.385,1.329,5.089,2.002,7.822,1.947c4.811-0.095,9.378-2.454,12.231-6.336l10.675-18.98C81.291,71.09,81.253,69.173,80.322,67.65z M57.954,78.819c1.496,2.566,1.521,5.767,0.065,8.353c-1.449,2.571-4.043,4.138-6.941,4.195c-1.485,0.03-2.976-0.352-4.311-1.101 c-1.776-1.006-2.834-2.649-3.687-4.111L32.529,68.036c0.673-0.299,1.461-0.465,2.296-0.481c2.18-0.042,4.163,0.915,5.051,2.437 l4.208,7.166l0.199-0.113c0,0,1.848-1.044,1.949-1.099c2.564-1.614,5.951-1.7,8.592-0.212C56.117,76.464,57.2,77.531,57.954,78.819z M60.367,88.603c1.959-3.483,1.943-7.763-0.042-11.17c-1.148-1.965-2.459-3.342-4.007-4.213c-2.274-1.283-5.042-1.72-7.648-1.221 l10.282-18.858c0.279-0.502,0.738-0.867,1.295-1.026c0.543-0.155,1.132-0.084,1.626,0.192c0.327,0.181,0.602,0.444,0.793,0.757 c0.404,0.662,0.42,1.492,0.042,2.167c-0.025,0.046-0.992,1.785-2.2,3.954c-1.996,3.588-4.729,8.5-4.774,8.581 c-0.183,0.321-0.227,0.719-0.124,1.091c0.102,0.36,0.327,0.654,0.63,0.825c0.314,0.185,0.7,0.229,1.046,0.132 c0.369-0.098,0.675-0.337,0.859-0.667c0.034-0.058,2.947-5.306,8.658-15.595l0.269-0.483c0.371-0.665,1.077-1.086,1.842-1.101 c0.378-0.008,0.753,0.084,1.085,0.269c0.32,0.179,0.598,0.446,0.783,0.756c0.405,0.66,0.424,1.493,0.047,2.169 c0,0-8.952,16.041-9.001,16.125c-0.179,0.313-0.228,0.704-0.133,1.068c0.095,0.368,0.329,0.68,0.642,0.858 c0.647,0.365,1.544,0.103,1.911-0.542c0.022-0.038,1.803-3.251,5.304-9.564l1.979-3.571c0.37-0.667,1.077-1.089,1.844-1.104 c0.377-0.008,0.75,0.084,1.079,0.269c0.325,0.179,0.598,0.442,0.791,0.757c0.404,0.659,0.42,1.49,0.037,2.173 c-0.07,0.133-6.5,11.64-6.602,11.817c-0.004,0.008-0.796,1.275-0.818,1.325c-0.261,0.454-0.255,1.011,0.016,1.452 c0.121,0.198,0.292,0.362,0.493,0.479c0.644,0.357,1.545,0.091,1.895-0.53c0.019-0.025,0.233-0.404,2.566-4.537l1.383-2.449 c0.279-0.504,0.739-0.868,1.294-1.026c0.541-0.151,1.131-0.086,1.63,0.19c0.325,0.179,0.597,0.441,0.788,0.756 c0.403,0.662,0.421,1.493,0.047,2.17L67.478,89.986c-2.351,3.196-5.988,5.076-9.98,5.154c-1.744,0.035-3.493-0.297-5.103-0.961 C55.758,93.605,58.699,91.562,60.367,88.603z"></path> <path fill="#72BE44" d="M44.096,24.41c4.582,0,8.185-4.771,8.227-8.875l0.047-2.571l-23.722-0.029l-0.743-0.001 c-2.038,0-4.196,0.098-6.202,1.26c-0.339,0.2-0.633,0.462-0.918,0.715c-0.125,0.112-0.25,0.223-0.375,0.326 c-1.182,0.334-2.548,0.774-3.77,1.501c-6.698,3.979-9.402,12.37-6.277,19.542l11.05,18.765c0.892,1.5,2.528,2.43,4.27,2.43h0.105 c0.851-0.02,1.688-0.26,2.424-0.694c0.625-0.372,1.159-0.875,1.562-1.466l1.338,2.26c0.889,1.5,2.521,2.429,4.259,2.429h0.113 c0.851-0.02,1.689-0.261,2.423-0.697c0.649-0.387,1.203-0.918,1.615-1.554c0.937,1.033,2.291,1.641,3.685,1.641h0.108 c0.853-0.019,1.689-0.259,2.42-0.693c2.197-1.314,3.021-4.117,1.942-6.389c0.76-0.075,1.459-0.305,2.082-0.681 c1.133-0.668,1.937-1.742,2.263-3.026c0.327-1.286,0.132-2.621-0.547-3.763L39.067,24.398L44.096,24.41L44.096,24.41z M38.037,36.153c-0.25-0.426-0.739-0.702-1.247-0.702c-0.24,0-0.472,0.062-0.667,0.178c-0.316,0.181-0.543,0.481-0.638,0.842 c-0.098,0.37-0.045,0.753,0.146,1.076c0.053,0.091,8.44,14.148,9.422,15.791c0.604,1.02,0.267,2.345-0.75,2.951 c-0.324,0.19-0.686,0.293-1.103,0.3c-0.752,0-1.46-0.403-1.846-1.051c-0.093-0.158-9.35-15.757-9.425-15.885 c-0.369-0.626-1.297-0.885-1.92-0.523c-0.317,0.186-0.544,0.486-0.638,0.846c-0.096,0.369-0.042,0.754,0.149,1.077 c0.02,0.036,1.73,2.904,5.321,8.916l2.376,3.98c0.294,0.494,0.378,1.071,0.236,1.629s-0.49,1.024-0.983,1.317 c-0.32,0.192-0.682,0.297-1.093,0.307c-0.757,0-1.467-0.406-1.854-1.061c-0.072-0.118-6.858-11.566-6.905-11.645 c-0.005-0.009-0.706-1.339-0.733-1.373c-0.254-0.44-0.723-0.713-1.225-0.713h-0.036c-0.233,0.004-0.462,0.068-0.663,0.184 c-0.661,0.39-0.88,1.254-0.49,1.919c0.015,0.025,0.8,1.365,2.555,4.357l1.497,2.554c0.295,0.495,0.379,1.074,0.236,1.631 c-0.142,0.557-0.49,1.024-0.982,1.315c-0.317,0.19-0.681,0.294-1.096,0.303c-0.756,0-1.466-0.404-1.853-1.051L12.925,35.149 c-2.34-5.381-0.676-11.621,3.94-15.146c-1.171,3.176-0.888,6.717,0.804,9.622c2.014,3.451,5.714,5.603,9.685,5.616 c2.259,0,4.102-0.435,5.634-1.326c2.268-1.323,4.042-3.494,4.928-6.009L49.067,46.28c0.295,0.494,0.38,1.076,0.239,1.634 c-0.142,0.554-0.492,1.02-0.987,1.312c-0.32,0.191-0.683,0.297-1.095,0.306c-0.753,0-1.463-0.403-1.851-1.048 c-0.034-0.058-1.659-2.789-3.372-5.667C40.093,39.608,38.076,36.221,38.037,36.153z M24.662,42.646L24.662,42.646v-0.003V42.646z M35.777,21.393l-0.002,0.229c0,0-0.032,2.104-0.036,2.225c0.096,3.083-1.499,5.96-4.164,7.509 c-1.267,0.743-2.729,1.133-4.243,1.133c-2.971-0.005-5.746-1.602-7.242-4.165c-2.328-4.001-1.029-8.798,3.023-11.161 c1.739-1.012,3.703-1.012,5.435-1.012l14.696-0.003c2.852,0,5.264,0,6.246,0.002c-0.287,2.488-2.622,5.263-5.4,5.263L35.777,21.393z "></path> <g> <path fill="#4A596E" d="M355.215,39.236c-0.319,0-8.995,0.049-8.995,0.049v-0.008c-1.175-0.007-2.125-0.959-2.125-2.137 c0-1.176,0.95-2.127,2.125-2.135v-0.012l16.739,0.01v-7.647c0,0-16.695,0-16.72,0c-5.424,0-9.821,4.398-9.821,9.821 c0,5.426,4.359,9.755,9.784,9.755c0.385,0,9.662-0.007,9.662-0.007v0.002c0.004,0,0.006-0.002,0.01-0.002 c1.179,0,2.136,0.988,2.136,2.21c0,1.219-0.957,2.21-2.136,2.21c-0.004,0-0.006-0.002-0.01-0.002v0.02l-18.096-0.02v7.713h17.074 c0.125,0.005,0.249,0.017,0.375,0.017c5.456,0,9.881-4.441,9.881-9.918C365.096,43.675,360.671,39.236,355.215,39.236z"></path> <path fill="#4A596E" d="M124.483,51.111c-4.344,0-7.868-3.524-7.868-7.871c0-4.345,3.524-7.869,7.868-7.869 c4.347,0,7.871,3.524,7.871,7.869C132.354,47.587,128.83,51.111,124.483,51.111 M140.142,40.897l-0.027-27.52h-8.629v16.169 c-1.48-1.292-4.554-2.043-7.371-2.043c-8.692,0-15.559,7.045-15.559,15.737c0,8.694,7.143,15.739,15.834,15.739 c8.692,0,15.787-7.407,15.787-16.101C140.177,42.332,140.194,41.429,140.142,40.897"></path> <path fill="#4A596E" d="M403.137,35.418c-4.031-1.486-8.502,0.439-10.394,4.242c4.925-0.141,10.051,0.109,14.976-0.029 C406.718,37.847,405.036,36.167,403.137,35.418 M394.365,57.959c-7.028-2.846-11.132-10.51-9.656-17.949 c1.394-7.023,7.883-12.565,15.086-12.621c6.775-0.287,13.363,4.427,15.583,10.884c1.247,3.628,0.355,7.822,0.355,7.822 s-23.02,0.032-23.088,0.032c1.453,2.451,4.104,5.115,6.965,5.36c1.394,0.119,2.832-0.126,4.114-0.704 c0.345-0.175,2.613-1.797,2.642-1.771c1.807,1.692,3.619,3.385,5.42,5.075C407.436,58.667,400.267,60.483,394.365,57.959"></path> <path fill="#4A596E" d="M317.644,35.338c-10.178,0-9.804,16.445,0.345,15.758c3.978-0.248,7.325-3.028,7.684-7.132 C326.075,39.381,322.311,35.188,317.644,35.338C317.017,35.338,318.275,35.319,317.644,35.338 M333.531,58.997 c0.012-0.007-7.839-0.012-7.839-0.005c0,0.005,0.024-2.132,0.005-2.137c-8.711,4.964-19.914,0.578-22.93-8.998 c-3.111-9.507,4.226-19.773,14.1-20.305c4.303-0.23,8.553,1.297,11.708,4.235c4.165,3.874,4.976,8.864,4.957,14.28 C333.517,50.363,333.531,54.701,333.531,58.997"></path> <path fill="#4A596E" d="M215.664,27.53v17.315c0,1.901-0.221,3.487-1.331,4.617c-0.469,0.374-1.731,1.605-3.407,1.605 c-1.758,0-2.657-0.413-3.827-1.605c-1.297-1.326-1.646-2.584-1.646-4.17V27.53h-8.874v17.121c0,1.593-0.034,3.228-1.323,4.544 c-1.183,1.207-2.395,1.855-4.117,1.855c-1.668,0-2.268-0.505-3.487-1.748c-1.151-1.178-1.428-2.684-1.428-4.457V27.53h-8.879 v17.315c0,3.174,1.574,7.363,4.228,10.069c2.693,2.746,5.884,4.062,9.683,4.062c3.988,0,7.142-1.496,9.711-4.009 c2.621,2.851,6.314,4.068,10.309,4.009c3.791-0.051,6.31-1.69,8.876-4.116c2.615-2.664,4.037-5.559,4.037-10.015V27.53H215.664z"></path> <path fill="#4A596E" d="M375.666,35.234c2.162,0,7.83,0.021,7.83,0.021c0,0.037-0.039-7.778,0-7.815c0,0-7.788,0.034-7.83,0.034 c-0.024,0-0.039-14.098-0.024-14.1c0.015-0.002-8.036-0.02-8.021-0.02c0.128,0-0.168,28.358,0.138,31.024 c0.962,8.303,6.936,14.503,15.812,14.6v-5.705v-2.086c0,0.083-2.302-0.354-2.542-0.435c-1.151-0.384-2.093-0.983-2.978-1.805 c-2.292-2.135-2.382-4.687-2.395-7.55c-0.01-2.004,0.01-4.007,0.01-6.008"></path> <path fill="#4A596E" d="M158.295,51.111c-4.342,0-7.869-3.524-7.869-7.869c0-4.347,3.526-7.871,7.869-7.871 c4.344,0,7.868,3.524,7.868,7.871C166.164,47.587,162.64,51.111,158.295,51.111 M158.295,27.503 c-8.694,0-15.738,7.045-15.738,15.739c0,8.692,7.044,15.739,15.738,15.739c8.691,0,15.739-7.047,15.739-15.739 C174.034,34.549,166.987,27.503,158.295,27.503"></path> <path fill="#4A596E" d="M244.453,27.53c-8.553,0-16.027,6.71-16.248,15.46l-0.002,15.989h8.899l0.012-15.989 c0.216-5.835,3.529-7.706,7.732-7.706c4.189,0,7.057,2.88,7.057,6.945v16.75h8.93V42.22 C260.833,33.874,252.987,27.53,244.453,27.53"></path> <path fill="#4A596E" d="M298.739,65.619c0.004-0.138,0.026-0.262,0.026-0.406v-0.106c0-0.017,0.002-0.032,0.002-0.049 c0-0.026-0.002-0.048-0.002-0.075V27.53h-8.366l-0.028,37.489c0.002,0.634,0.004,1.001,0.004,1.037 c0,2.883-2.337,5.222-5.222,5.222c-2.884,0-5.22-2.339-5.22-5.222c0-0.116-0.011-38.453-0.011-38.453h-8.685 c0,0,0.015,38.422,0.015,38.453c0,2.883-2.337,5.222-5.222,5.222c-2.884,0-5.221-2.339-5.221-5.222c0-0.051-0.01-4.097-0.01-4.097 h-8.878c0,0,0.028,2.519,0.028,3.099c0,7.747,6.16,14.027,13.907,14.027c3.639,0,6.943-1.396,9.436-3.67 c2.494,2.276,5.807,3.67,9.448,3.67c7.079,0,12.917-5.25,13.874-12.065c0.021-0.131,0.044-0.26,0.061-0.396 C298.711,66.294,298.726,65.957,298.739,65.619z"></path> </g> <g> </g> <g> </g> <g> </g> <g> </g> <g> </g> <g> </g> <g> </g> <g> </g> <g> </g> <g> </g> <g> </g> <g> </g> <g> </g> <g> </g> <g> </g> </svg> 