<svg xmlns="http://www.w3.org/2000/svg" xmlns:xlink="http://www.w3.org/1999/xlink" id="Layer_1" x="0px" y="0px" viewBox="0 0 466 425" style="enable-background:new 0 0 466 425;" xml:space="preserve"> <style type="text/css"> .st0{fill:#DBB315;} .st1{fill:#C7A313;} .st2{fill:#A78910;} .st3{fill:#7C660B;} .st4{fill:#63510A;} .st5{fill:#493809;} .st6{fill:#56440A;} .st7{fill:#977B0D;} .st8{fill:#A98B0E;} .st9{fill:#725F0D;} .st10{fill:#987C0C;} .st11{fill:#7B640D;} .st12{fill:#5C4C07;} .st13{fill:#8D730C;} .st14{fill:#8A710B;} .st15{fill:#DAB213;} .st16{fill:#E8BD34;} .st17{fill:#9F820E;} .st18{fill:#3A4758;} </style> <g> <g> <polygon class="st0" points="21.4,56.4 21.3,336.2 127.9,416.8 320.4,377.1 320.5,327.7 332.2,303.7 332.2,124.9 319.5,115.8 319.8,98.7 213.4,17 "></polygon> </g> <g> <path class="st0" d="M128.1,417.2l-0.1-0.1L21.4,336.1l0-279.7l192.1-39.7l0.1,0.1l106.4,81.8l-0.2,17.2l12.7,9v179.1l-11.7,23.9 v50.1l-0.3,0.1L128.1,417.2z M21.1,336.2l107.1,80.2l191.9-39.1v-49.7l11.7-23.9V125.1l-12.7-9l0.2-17.2L213.3,17.5L21.1,56.3 V336.2z"></path> </g> <g> <polygon class="st1" points="21.1,56.2 128.1,138.3 320.4,98.7 213.8,16.6 "></polygon> </g> <g> <polygon class="st2" points="21.1,56.2 128.1,138.8 128.3,417.2 21.1,336.3 "></polygon> </g> <g> <path class="st3" d="M116,98.8c0,2.7-5.4,4.9-12,4.9c-6.6,0-12-2.2-12-4.9c0-2.7,5.4-4.9,12-4.9C110.6,93.8,116,96.1,116,98.8"></path> </g> <g> <path class="st3" d="M119.1,294.7c-2.7,0.4-5.7-4.6-6.7-11.1c-1-6.5,0.4-12.2,3.1-12.6c2.7-0.4,5.7,4.6,6.7,11.1 C123.2,288.7,121.8,294.3,119.1,294.7"></path> </g> <g> <path class="st3" d="M265.1,68.4c0,2.3-4.5,4.2-10.2,4.2c-5.6,0-10.2-1.9-10.2-4.2c0-2.3,4.5-4.2,10.2-4.2 C260.5,64.2,265.1,66.1,265.1,68.4"></path> </g> <g> <polygon class="st4" points="157.9,161.1 157.9,340.6 331.2,305 331.2,125.9 "></polygon> </g> <g> <rect x="145.2" y="149.7" class="st5" width="69.2" height="150.9"></rect> </g> <g> <polygon class="st6" points="157.9,299.4 215.2,287.7 258.8,321 157.9,340.6 "></polygon> </g> <g> <polygon class="st7" points="174.4,157.8 208.3,183.9 269,171.5 235.5,145.6 "></polygon> </g> <g> <polygon class="st8" points="260.9,246.2 260.9,281.7 302.4,273 302.4,237.6 "></polygon> </g> <g> <polygon class="st9" points="169.5,213.8 260.9,281.7 260.9,246.2 157.8,179.7 157.8,204.4 "></polygon> </g> <g> <polygon class="st10" points="172.7,337.5 169.2,338 169.2,226.2 172.7,226.2 "></polygon> </g> <g> <path class="st11" d="M158.7,217.9v4.8c0,2.7,5.4,4.8,12.1,4.8c6.7,0,12.1-2.2,12.1-4.8v-4.8H158.7z"></path> </g> <g> <path class="st12" d="M183,217.9c0,2.7-5.4,4.8-12.1,4.8c-6.7,0-12.1-2.2-12.1-4.8c0-2.7,5.4-4.8,12.1-4.8 C177.6,213,183,215.2,183,217.9"></path> </g> <g> <polygon class="st4" points="183.6,218.5 157.1,197.7 157.1,189.9 185.7,213.7 185.2,217.3 "></polygon> </g> <g> <path class="st13" d="M188.5,216.6c0-1.6-1.3-2.8-2.8-2.8c-1.6,0-2.8,1.3-2.8,2.8c0,1.6,1.3,2.8,2.8,2.8 C187.2,219.4,188.5,218.2,188.5,216.6"></path> </g> <g> <polygon class="st3" points="220.8,242.4 157.7,194 157.7,181.2 220.8,223.4 "></polygon> </g> <g> <polygon class="st14" points="174.4,157.8 208.3,183.9 208.3,224.2 157.8,184 157.8,161.4 "></polygon> </g> <g> <polygon class="st3" points="302.4,237.6 250.2,197.4 226.2,219.8 260.9,246.2 "></polygon> </g> <g> <path class="st15" d="M208.3,183.9v40.4h3.5c0,0,0.5,24.5,26,21.7c0,0,25.7-4,27.7-33.6l3.5-0.7v-40.2L208.3,183.9z"></path> </g> <g> <path class="st14" d="M253.5,219.4c0,7-5.7,12.7-12.7,12.7c-7,0-12.7-5.7-12.7-12.7c0-7,5.7-12.7,12.7-12.7 C247.8,206.7,253.5,212.4,253.5,219.4"></path> </g> <g> <path class="st15" d="M256.1,220.6c0,6.5-5.5,11.8-12.3,11.8c-6.8,0-12.3-5.3-12.3-11.8c0-6.5,5.5-11.8,12.3-11.8 C250.6,208.7,256.1,214,256.1,220.6"></path> </g> <g> <path class="st1" d="M271.4,138.2l1,57.8l29-6.3c0,0,1.5-6.9-2.6-12.9l-13.8,2.5l-0.4-43.7L271.4,138.2z"></path> </g> <g> <path class="st2" d="M275.5,188.9c0.2,3.8-1.2,7-3,7c-1.8,0.1-3.5-2.9-3.6-6.7c-0.2-3.8,1.2-7,3-7 C273.7,182.1,275.3,185.1,275.5,188.9"></path> </g> <g> <polygon class="st3" points="305.7,131.1 305.7,309.5 331.3,304.9 331.3,125.9 "></polygon> </g> <g> <polygon class="st16" points="331.2,125.9 311.8,109.3 135.6,145.9 157.9,161.1 "></polygon> </g> <g> <polygon class="st1" points="135.6,145.9 157.9,159.7 157.9,339.2 135.6,376.7 "></polygon> </g> <g> <polygon class="st16" points="135.6,376.7 311.8,340.6 331.2,305 157.9,340.6 "></polygon> </g> <g> <path class="st16" d="M149.1,52c-9.7-5.2-24.9-8.6-41.8-8.6c-17,0-32.1,3.3-41.8,8.6H54v13.9c0,12.4,23.8,22.4,53.2,22.4 c29.4,0,53.2-10,53.2-22.4V52H149.1z"></path> </g> <g> <path class="st4" d="M54,52c0,12.4,23.8,22.4,53.2,22.4c29.4,0,53.2-10,53.2-22.4c0-12.4-23.8-22.4-53.2-22.4 C77.9,29.6,54,39.6,54,52"></path> </g> <g> <path class="st17" d="M107.3,45.4c22.8,0,42.2,6,49.8,14.5c2.2-2.5,3.4-5.1,3.4-7.9c0-12.4-23.8-22.4-53.2-22.4 C77.9,29.6,54,39.6,54,52c0,2.8,1.2,5.4,3.4,7.9C65,51.4,84.5,45.4,107.3,45.4"></path> </g> </g> <g> <path class="st18" d="M453,178.1h-8c-1,0-1.9-0.8-1.9-1.9s0.8-1.9,1.9-1.9h8c1,0,1.9,0.8,1.9,1.9S454,178.1,453,178.1z M437,178.1 h-8c-1,0-1.9-0.8-1.9-1.9s0.8-1.9,1.9-1.9h8c1,0,1.9,0.8,1.9,1.9S438,178.1,437,178.1z M421,178.1h-8c-1,0-1.9-0.8-1.9-1.9 s0.8-1.9,1.9-1.9h8c1,0,1.9,0.8,1.9,1.9S422,178.1,421,178.1z M405,178.1h-8c-1,0-1.9-0.8-1.9-1.9s0.8-1.9,1.9-1.9h8 c1,0,1.9,0.8,1.9,1.9S406,178.1,405,178.1z M389,178.1h-8c-1,0-1.9-0.8-1.9-1.9s0.8-1.9,1.9-1.9h8c1,0,1.9,0.8,1.9,1.9 S390,178.1,389,178.1z M373,178.1h-8c-1,0-1.9-0.8-1.9-1.9s0.8-1.9,1.9-1.9h8c1,0,1.9,0.8,1.9,1.9S374,178.1,373,178.1z M357,178.1 h-8c-1,0-1.9-0.8-1.9-1.9s0.8-1.9,1.9-1.9h8c1,0,1.9,0.8,1.9,1.9S358,178.1,357,178.1z M341,178.1h-8c-1,0-1.9-0.8-1.9-1.9 s0.8-1.9,1.9-1.9h8c1,0,1.9,0.8,1.9,1.9S342,178.1,341,178.1z M325,178.1h-8c-1,0-1.9-0.8-1.9-1.9s0.8-1.9,1.9-1.9h8 c1,0,1.9,0.8,1.9,1.9S326,178.1,325,178.1z M309,178.1h-8c-1,0-1.9-0.8-1.9-1.9s0.8-1.9,1.9-1.9h8c1,0,1.9,0.8,1.9,1.9 S310,178.1,309,178.1z M293,178.1h-8c-1,0-1.9-0.8-1.9-1.9s0.8-1.9,1.9-1.9h8c1,0,1.9,0.8,1.9,1.9S294,178.1,293,178.1z M277,178.1 h-8c-1,0-1.9-0.8-1.9-1.9s0.8-1.9,1.9-1.9h8c1,0,1.9,0.8,1.9,1.9S278,178.1,277,178.1z"></path> </g> <g> <path class="st18" d="M456,288.3h-8c-1,0-1.9-0.8-1.9-1.9s0.8-1.9,1.9-1.9h8c1,0,1.9,0.8,1.9,1.9S457,288.3,456,288.3z M440,288.3 h-8c-1,0-1.9-0.8-1.9-1.9s0.8-1.9,1.9-1.9h8c1,0,1.9,0.8,1.9,1.9S441,288.3,440,288.3z M424,288.3h-8c-1,0-1.9-0.8-1.9-1.9 s0.8-1.9,1.9-1.9h8c1,0,1.9,0.8,1.9,1.9S425,288.3,424,288.3z M408,288.3h-8c-1,0-1.9-0.8-1.9-1.9s0.8-1.9,1.9-1.9h8 c1,0,1.9,0.8,1.9,1.9S409,288.3,408,288.3z M392,288.3h-8c-1,0-1.9-0.8-1.9-1.9s0.8-1.9,1.9-1.9h8c1,0,1.9,0.8,1.9,1.9 S393,288.3,392,288.3z M376,288.3h-8c-1,0-1.9-0.8-1.9-1.9s0.8-1.9,1.9-1.9h8c1,0,1.9,0.8,1.9,1.9S377,288.3,376,288.3z M360,288.3 h-8c-1,0-1.9-0.8-1.9-1.9s0.8-1.9,1.9-1.9h8c1,0,1.9,0.8,1.9,1.9S361,288.3,360,288.3z M344,288.3h-8c-1,0-1.9-0.8-1.9-1.9 s0.8-1.9,1.9-1.9h8c1,0,1.9,0.8,1.9,1.9S345,288.3,344,288.3z M328,288.3h-8c-1,0-1.9-0.8-1.9-1.9s0.8-1.9,1.9-1.9h8 c1,0,1.9,0.8,1.9,1.9S329,288.3,328,288.3z M312,288.3h-8c-1,0-1.9-0.8-1.9-1.9s0.8-1.9,1.9-1.9h8c1,0,1.9,0.8,1.9,1.9 S313,288.3,312,288.3z M296,288.3h-8c-1,0-1.9-0.8-1.9-1.9s0.8-1.9,1.9-1.9h8c1,0,1.9,0.8,1.9,1.9S297,288.3,296,288.3z M280,288.3 h-8c-1,0-1.9-0.8-1.9-1.9s0.8-1.9,1.9-1.9h8c1,0,1.9,0.8,1.9,1.9S281,288.3,280,288.3z M264,288.3h-8c-1,0-1.9-0.8-1.9-1.9 s0.8-1.9,1.9-1.9h8c1,0,1.9,0.8,1.9,1.9S265,288.3,264,288.3z M248,288.3h-8c-1,0-1.9-0.8-1.9-1.9s0.8-1.9,1.9-1.9h8 c1,0,1.9,0.8,1.9,1.9S249,288.3,248,288.3z M232,288.3h-8c-1,0-1.9-0.8-1.9-1.9s0.8-1.9,1.9-1.9h8c1,0,1.9,0.8,1.9,1.9 S233,288.3,232,288.3z M216,288.3h-8c-1,0-1.9-0.8-1.9-1.9s0.8-1.9,1.9-1.9h8c1,0,1.9,0.8,1.9,1.9S217,288.3,216,288.3z M200,288.3 h-8c-1,0-1.9-0.8-1.9-1.9s0.8-1.9,1.9-1.9h8c1,0,1.9,0.8,1.9,1.9S201,288.3,200,288.3z M184,288.3h-8c-1,0-1.9-0.8-1.9-1.9 s0.8-1.9,1.9-1.9h8c1,0,1.9,0.8,1.9,1.9S185,288.3,184,288.3z"></path> </g> </svg>