<?xml version="1.0" encoding="UTF-8"?> <!-- Generator: Adobe Illustrator 16.0.0, SVG Export Plug-In . SVG Version: 6.00 Build 0) --> <svg xmlns="http://www.w3.org/2000/svg" xmlns:xlink="http://www.w3.org/1999/xlink" version="1.1" id="Layer_1" x="0px" y="0px" width="1080px" height="1080px" viewBox="0 0 1080 1080" xml:space="preserve"> <g> <path fill="#F7CB14" d="M49.5,1080.641c0,10.74-6.655,19.449-15,19.449l0,0c-8.344,0-15-8.709-15-19.449V698.537 c0-10.742,6.656-19.449,15-19.449l0,0c8.345,0,15,8.707,15,19.449V1080.641z"></path> <path fill="#34B219" d="M278.5,1080.641c0,10.74-6.154,19.449-14.5,19.449l0,0c-8.342,0-14.5-8.709-14.5-19.449V698.537 c0-10.742,6.158-19.449,14.5-19.449l0,0c8.346,0,14.5,8.707,14.5,19.449V1080.641z"></path> <path fill="#F17E52" d="M508.5,1080.641c0,10.74-7.158,19.449-15.5,19.449l0,0c-8.344,0-15.5-8.709-15.5-19.449V698.537 c0-10.742,7.156-19.449,15.5-19.449l0,0c8.342,0,15.5,8.707,15.5,19.449V1080.641z"></path> <path fill="#00BFF2" d="M737.5,1080.641c0,10.74-6.655,19.449-15,19.449l0,0c-8.343,0-15-8.709-15-19.449V698.537 c0-10.742,6.657-19.449,15-19.449l0,0c8.345,0,15,8.707,15,19.449V1080.641z"></path> <path fill="#C17E9C" d="M966.5,1080.641c0,10.74-6.654,19.449-15,19.449l0,0c-8.344,0-15-8.709-15-19.449V698.537 c0-10.742,6.656-19.449,15-19.449l0,0c8.346,0,15,8.707,15,19.449V1080.641z"></path> </g> </svg> 