<?xml version="1.0" encoding="UTF-8"?>
<svg xmlns="http://www.w3.org/2000/svg" viewBox="0 0 860 1080">
  <defs>
    <style>
      .cls-1 {
        fill: #f17e52;
      }

      .cls-2 {
        fill: #f48220;
      }

      .cls-3 {
        fill: #0db14b;
      }

      .cls-4 {
        stroke: #f7cb14;
        stroke-width: 2.74px;
      }

      .cls-4, .cls-5, .cls-6, .cls-7, .cls-8 {
        fill: none;
      }

      .cls-4, .cls-8 {
        stroke-miterlimit: 10;
      }

      .cls-9 {
        fill: #00adef;
      }

      .cls-10 {
        fill: #e8efea;
      }

      .cls-11 {
        fill: #fdf5d0;
      }

      .cls-12 {
        fill: #998079;
      }

      .cls-13 {
        fill: #00bff2;
      }

      .cls-5 {
        stroke-width: 17.23px;
      }

      .cls-5, .cls-6, .cls-7 {
        stroke-linecap: round;
        stroke-linejoin: round;
      }

      .cls-5, .cls-8 {
        stroke: #4a596e;
      }

      .cls-14 {
        fill: #bdc8d4;
      }

      .cls-15 {
        fill: #49a447;
      }

      .cls-16 {
        fill: #4a596e;
      }

      .cls-6 {
        stroke-width: 3.83px;
      }

      .cls-6, .cls-7 {
        stroke: #e8efea;
      }

      .cls-17 {
        fill: #f7cb14;
      }

      .cls-7, .cls-8 {
        stroke-width: 10px;
      }

      .cls-18 {
        fill: #0081b9;
      }
    </style>
  </defs>
  <g id="Layer_5" data-name="Layer 5">
    <g>
      <polyline class="cls-7" points="492.82 52.5 492.82 -171.19 547.42 -246.77 559.47 -246.77"></polyline>
      <line class="cls-7" x1="273.55" y1="52.5" x2="273.55" y2="-713.49"></line>
    </g>
  </g>
  <g id="Layer_6" data-name="Layer 6">
    <line class="cls-7" x1="493.08" y1="117.14" x2="493.08" y2="-78.74"></line>
    <line class="cls-7" x1="273.81" y1="178.16" x2="273.81" y2="-72.74"></line>
    <path class="cls-16" d="M785.01,957.26c0,6.46-5.13,11.69-11.45,11.69h-156.1c-6.32,0-11.45-5.23-11.45-11.69v-121.57c0-6.46,5.13-11.69,11.45-11.69h156.1c6.33,0,11.45,5.23,11.45,11.69v121.57h0Z"></path>
    <g>
      <line class="cls-6" x1="486.61" y1="752.37" x2="486.61" y2="115.19"></line>
      <line class="cls-6" x1="498.51" y1="752.3" x2="498.51" y2="118.97"></line>
      <path class="cls-10" d="M500.07,882.47c0,5.69-3.47,10.3-7.53,10.3s-7.53-4.61-7.53-10.3v-159.53c0-5.69,3.47-10.3,7.53-10.3s7.53,4.61,7.53,10.3v159.53Z"></path>
    </g>
    <g>
      <line class="cls-6" x1="268.61" y1="752.37" x2="268.61" y2="175.42"></line>
      <line class="cls-6" x1="280.51" y1="752.3" x2="280.51" y2="179.92"></line>
      <path class="cls-10" d="M282.07,882.47c0,5.69-3.47,10.3-7.53,10.3s-7.53-4.61-7.53-10.3v-159.53c0-5.69,3.47-10.3,7.53-10.3s7.53,4.61,7.53,10.3v159.53Z"></path>
    </g>
    <path class="cls-10" d="M176.07,882.47c0,5.69-3.47,10.3-7.53,10.3s-7.53-4.61-7.53-10.3v-115.47c0-5.69,3.47-10.3,7.53-10.3s7.53,4.61,7.53,10.3v115.47Z"></path>
    <path class="cls-10" d="M126.06,882.47c0,5.69-3.47,10.3-7.53,10.3s-7.53-4.61-7.53-10.3v-115.47c0-5.69,3.47-10.3,7.53-10.3s7.53,4.61,7.53,10.3v115.47Z"></path>
    <path class="cls-10" d="M76.06,882.47c0,5.69-3.47,10.3-7.53,10.3s-7.53-4.61-7.53-10.3v-115.47c0-5.69,3.47-10.3,7.53-10.3s7.53,4.61,7.53,10.3v115.47Z"></path>
    <g>
      <line class="cls-6" x1="379.61" y1="752.37" x2="379.61" y2="324.87"></line>
      <line class="cls-6" x1="391.51" y1="752.3" x2="391.51" y2="321.87"></line>
      <path class="cls-10" d="M393.07,882.47c0,5.69-3.47,10.3-7.53,10.3s-7.53-4.61-7.53-10.3v-159.53c0-5.69,3.47-10.3,7.53-10.3s7.53,4.61,7.53,10.3v159.53Z"></path>
    </g>
    <path class="cls-10" d="M611.91,881.63c-2.2-.41-557.16-.62-557.16-.62-13.17,0-27.85,13.93-27.85,31s14.68,31,27.85,31h594.04l-36.88-61.38Z"></path>
    <g>
      <path class="cls-3" d="M275.03,895.98c1.9-1.1,4.72-3.53,5.68-2.25.96,1.28,3.76,26.07-4.43,33.39-11.29,10.08-31.18,1.17-29.03-13.74,1.67-11.63,26.17-16.47,27.78-17.4"></path>
      <path class="cls-3" d="M280.98,890.88c-1.54-1.78,2.16-5.78,2.8-5.85,1.01-.11,4.84,1.37,5.3,2.41.3.67-4.74,4.09-5.51,4.31-.77.22-2.59-.87-2.59-.87"></path>
    </g>
    <g>
      <path class="cls-3" d="M272.05,511.28c.7-1.31,1.46-3.72,2.48-3.32,1.01.4,11.46,13.68,9.34,20.82-2.91,9.83-17.55,11.78-21.62,2.42-3.18-7.3,9.21-18.81,9.81-19.92"></path>
      <path class="cls-3" d="M273.66,506.21c-1.52-.48-.81-4.1-.47-4.37.54-.42,3.28-.94,3.92-.5.41.28-1.27,4.05-1.64,4.45-.36.4-1.8.42-1.8.42"></path>
    </g>
    <g>
      <path class="cls-2" d="M711.42,865.34c1.35-1.77,3.04-5.12,4.44-4.29,1.4.83,13.59,22.88,8.77,32.88-6.64,13.77-28.65,13.14-32.41-1.6-2.93-11.5,18.06-25.48,19.2-26.98"></path>
      <path class="cls-2" d="M715,858.28c-2.12-1.07-.22-6.23.35-6.54.9-.5,5.05-.59,5.89.2.54.51-2.85,5.66-3.48,6.16-.63.5-2.75.18-2.75.18"></path>
    </g>
    <g>
      <path class="cls-13" d="M372.6,898.35c.25-2.23-.02-6.01,1.62-6.02,1.64,0,23.63,12.77,24.64,23.93,1.39,15.37-18,26.23-28.9,15.41-8.5-8.44,2.43-31.43,2.65-33.32"></path>
      <path class="cls-13" d="M372.05,890.37c-2.39.17-3.42-5.28-3.09-5.85.52-.89,4.06-3.13,5.2-2.88.73.16.46,6.38.18,7.14-.29.76-2.29,1.58-2.29,1.58"></path>
    </g>
    <g>
      <path class="cls-13" d="M382.76,610.25c.8-1.43,1.68-4.05,2.78-3.59,1.1.46,12.29,15.25,9.83,23.04-3.4,10.73-19.5,12.57-23.78,2.22-3.34-8.07,10.5-20.46,11.17-21.67"></path>
      <path class="cls-13" d="M384.63,604.73c-1.66-.56-.81-4.52-.43-4.8.6-.45,3.62-.96,4.31-.47.45.32-1.48,4.42-1.89,4.85-.41.43-1.99.42-1.99.42"></path>
    </g>
    <g>
      <path class="cls-9" d="M760.42,920.74c1.48-.97,3.64-3.04,4.47-2.05.83.99,4.16,20.78-2.11,27.01-8.63,8.59-24.99,2.29-23.91-9.78.84-9.41,20.3-14.36,21.56-15.18"></path>
      <path class="cls-9" d="M764.98,916.38c-1.31-1.36,1.48-4.74,1.99-4.82.8-.14,3.95.89,4.36,1.71.27.53-3.64,3.49-4.24,3.7-.61.21-2.11-.59-2.11-.59"></path>
    </g>
    <g>
      <path class="cls-9" d="M748.73,847.95c1.45.95,23.98,6.68,24.95,17.57,1.24,13.97-17.69,21.26-27.68,11.32-7.25-7.21-3.4-30.11-2.44-31.26.96-1.15,3.46,1.25,5.17,2.37"></path>
      <path class="cls-9" d="M743.46,842.9s-1.75.93-2.45.68c-.7-.24-5.22-3.68-4.91-4.29.48-.95,4.12-2.13,5.05-1.98.59.1,3.82,4,2.31,5.58"></path>
    </g>
    <g>
      <path class="cls-3" d="M645.73,851.95c1.45.95,23.98,6.68,24.95,17.57,1.24,13.97-17.69,21.26-27.68,11.32-7.25-7.21-3.4-30.11-2.44-31.26.96-1.15,3.46,1.25,5.17,2.37"></path>
      <path class="cls-3" d="M640.46,846.9s-1.75.93-2.45.68c-.7-.24-5.22-3.68-4.91-4.29.48-.95,4.12-2.13,5.05-1.98.59.1,3.82,4,2.31,5.58"></path>
    </g>
    <g>
      <path class="cls-2" d="M500.23,896.82c1.84-1.21,4.52-3.78,5.55-2.55s5.16,25.8-2.62,33.53c-10.72,10.66-31.03,2.85-29.69-12.14,1.04-11.68,25.21-17.83,26.76-18.85"></path>
      <path class="cls-2" d="M505.89,891.41c-1.63-1.69,1.84-5.88,2.47-5.98,1-.17,4.9,1.1,5.42,2.12.33.66-4.52,4.34-5.27,4.6-.75.26-2.63-.74-2.63-.74"></path>
    </g>
    <g>
      <path class="cls-2" d="M491.32,409.58c.59-1.49,1.11-4.14,2.24-3.84,1.13.3,13.88,13.24,12.48,21.11-1.93,10.85-17.33,14.69-22.8,5.18-4.27-7.41,7.58-21.2,8.08-22.46"></path>
      <path class="cls-2" d="M492.43,403.98c-1.68-.33-1.36-4.28-1.03-4.61.52-.52,3.39-1.39,4.12-1.01.47.25-.88,4.48-1.22,4.95-.34.47-1.88.66-1.88.66"></path>
    </g>
    <g>
      <path class="cls-2" d="M698.04,917.19c-1.72-1.13-4.23-3.54-5.19-2.39-.97,1.16-4.83,24.16,2.45,31.41,10.04,9.98,29.06,2.67,27.81-11.37-.98-10.94-23.61-16.7-25.07-17.65"></path>
      <path class="cls-2" d="M692.74,912.12c1.53-1.59-1.73-5.51-2.32-5.6-.93-.16-4.59,1.03-5.08,1.99-.31.61,4.23,4.06,4.93,4.31.7.24,2.46-.69,2.46-.69"></path>
    </g>
    <g>
      <path class="cls-3" d="M633.91,900.53c1.72-1.13,4.23-3.54,5.19-2.39.97,1.15,4.83,24.16-2.45,31.41-10.04,9.99-29.06,2.67-27.81-11.37.98-10.95,23.61-16.7,25.07-17.65"></path>
      <path class="cls-3" d="M639.21,895.46c-1.52-1.59,1.73-5.51,2.32-5.6.93-.16,4.59,1.03,5.08,1.98.31.61-4.23,4.06-4.94,4.31-.7.24-2.46-.69-2.46-.69"></path>
    </g>
    <g>
      <polygon class="cls-16" points="604.08 664.41 715.67 664.1 704.36 716.4 613.71 716.3 604.08 664.41"></polygon>
      <path class="cls-14" d="M693.83,708.47c-.15,1.66-1.61,2.89-3.27,2.74-1.66-.15-2.89-1.61-2.74-3.27l2.94-33.67c.15-1.66,1.61-2.89,3.27-2.74,1.66.15,2.89,1.61,2.75,3.27l-2.94,33.66Z"></path>
      <path class="cls-14" d="M673.78,708.27c0,1.67-1.35,3.02-3.02,3.02s-3.02-1.35-3.02-3.02v-33.79c0-1.67,1.35-3.02,3.02-3.02s3.02,1.35,3.02,3.02v33.79Z"></path>
      <path class="cls-14" d="M652.95,708.27c0,1.67-1.35,3.02-3.02,3.02s-3.02-1.35-3.02-3.02v-33.79c0-1.67,1.35-3.02,3.02-3.02s3.02,1.35,3.02,3.02v33.79Z"></path>
      <path class="cls-14" d="M631.25,707.94c.15,1.66-1.08,3.13-2.74,3.27s-3.12-1.09-3.27-2.74l-2.95-33.66c-.15-1.66,1.09-3.13,2.75-3.27s3.12,1.08,3.27,2.74l2.95,33.67Z"></path>
      <path class="cls-16" d="M699.33,721.34h-84.18c-2.78,0-5.45,1.52-5.45,4.3v9.58c0,2.78,2.66,5.03,5.45,5.03h1.49c0-.14-.02-.27-.02-.4,0-7.99,6.48-14.47,14.47-14.47s14.47,6.48,14.47,14.47c0,.14-.02.27-.02.4h51.77c2.78,0,4.01-2.31,5.04-5.04l2.02-9.21c0-2.78-2.26-4.67-5.04-4.67"></path>
      <path class="cls-16" d="M642.83,740.15c0,6.27-5.08,11.35-11.35,11.35s-11.35-5.08-11.35-11.35,5.08-11.35,11.35-11.35c6.27,0,11.35,5.08,11.35,11.35"></path>
      <path class="cls-14" d="M638.57,740.15c0,3.92-3.18,7.09-7.09,7.09s-7.1-3.18-7.1-7.09,3.18-7.1,7.1-7.1,7.09,3.18,7.09,7.1"></path>
      <path class="cls-16" d="M635.02,740.15c0,1.96-1.59,3.55-3.55,3.55s-3.55-1.59-3.55-3.55,1.59-3.55,3.55-3.55,3.55,1.59,3.55,3.55"></path>
      <g>
        <path class="cls-16" d="M768.87,740.15c0,6.27-5.08,11.35-11.35,11.35s-11.35-5.08-11.35-11.35,5.08-11.35,11.35-11.35c6.27,0,11.35,5.08,11.35,11.35"></path>
        <path class="cls-14" d="M764.61,740.15c0,3.92-3.18,7.09-7.09,7.09s-7.1-3.18-7.1-7.09,3.18-7.1,7.1-7.1c3.92,0,7.09,3.18,7.09,7.1"></path>
        <path class="cls-16" d="M761.06,740.15c0,1.96-1.59,3.55-3.55,3.55s-3.55-1.59-3.55-3.55,1.59-3.55,3.55-3.55,3.55,1.59,3.55,3.55"></path>
      </g>
      <path class="cls-16" d="M778.63,731.98h.16v-.81s-1.11-13.09-1.11-16.21c0-1.52-2.45-3.86-2.45-3.86,0,0-20.55-22.77-21.71-23.92-1.16-1.16-4.24-3.62-6.44-4.67-2.22-1.06-5.4-1.38-5.4-1.38h-24.91l-11.96,58.8,38.39.65c-.02-.24-.04-.48-.04-.73,0-7.99,6.48-14.47,14.47-14.47s14.47,6.48,14.47,14.47c0,.54-.03,1.07-.09,1.59h6.63c2.01,0,4.03-2.23,4.03-4.73s-2.09-4.73-3.68-4.73M762.95,711.14l-43.41.12s-1.54.41-1.54-.74,3.51-21.1,3.51-21.1h23.19s.97.02,1.71.81c1.86,2,17.06,19.35,17.06,19.35,0,0,.53,1.49-.51,1.57"></path>
    </g>
    <path class="cls-8" d="M583.85,760.91V156.53c0-8.16-4.48-12.06-12.33-15.68l-124.95-38.59c-11.4-3.8-22.56,2.73-22.56,10.89v200.15"></path>
    <path class="cls-8" d="M385.72,319.05v-72.87c0-8.16-1.4-14.44-13.57-22.88l-140.19-64.54c-9.02-2.37-19.95,4.73-19.95,12.9v586.61"></path>
    <line class="cls-5" x1="-18.29" y1="762.39" x2="808.29" y2="762.39"></line>
    <path class="cls-8" d="M321.01,762.5v-405.31c0-10.57,9.05-15.91,19.19-19.14l97.65-31.58c10.57,0,19.16,8.57,19.16,19.14v436.89"></path>
    <circle class="cls-13" cx="168.36" cy="816.55" r="5.74"></circle>
    <circle class="cls-15" cx="68.36" cy="849.55" r="5.74"></circle>
    <circle class="cls-1" cx="118.36" cy="803.94" r="5.74" transform="translate(-44.28 7.78) rotate(-3.17)"></circle>
    <circle class="cls-3" cx="658.36" cy="917.55" r="5.73"></circle>
    <circle class="cls-9" cx="746.16" cy="907.43" r="4.93"></circle>
    <circle class="cls-1" cx="693.36" cy="854.94" r="5.73"></circle>
    <g>
      <rect class="cls-16" x="45.01" y="706.5" width="46" height="50"></rect>
      <path class="cls-16" d="M91.09,708.1c0,12.75-10.33,23.08-23.08,23.08s-23.08-10.33-23.08-23.08,10.33-23.08,23.08-23.08c12.74,0,23.08,10.33,23.08,23.08Z"></path>
    </g>
    <circle class="cls-3" cx="67.41" cy="704.82" r="10.19" transform="translate(-639.26 748.73) rotate(-88.09)"></circle>
    <g>
      <rect class="cls-16" x="95.01" y="706.5" width="46" height="50"></rect>
      <path class="cls-16" d="M141.09,708.1c0,12.75-10.33,23.08-23.08,23.08s-23.08-10.33-23.08-23.08,10.33-23.08,23.08-23.08c12.74,0,23.08,10.33,23.08,23.08Z"></path>
    </g>
    <circle class="cls-2" cx="117.41" cy="704.82" r="10.19"></circle>
    <g>
      <rect class="cls-16" x="145.01" y="706.5" width="46" height="50"></rect>
      <path class="cls-16" d="M191.09,708.1c0,12.75-10.33,23.08-23.08,23.08s-23.08-10.33-23.08-23.08,10.33-23.08,23.08-23.08c12.74,0,23.08,10.33,23.08,23.08Z"></path>
    </g>
    <circle class="cls-9" cx="167.41" cy="704.82" r="10.19"></circle>
    <g>
      <g>
        <path class="cls-11" d="M640.85,251.87c-.52,0-1.01.24-1.33.65-.33.4-.46.94-.36,1.46l8.29,51.14c.16.84.88,1.45,1.72,1.44l27.28-.05c.84,0,1.55-.62,1.7-1.46l7.96-51.44c.09-.51-.05-1.05-.38-1.46-.33-.4-.83-.64-1.35-.63l-43.53.35Z"></path>
        <path class="cls-4" d="M640.85,251.87c-.52,0-1.01.24-1.33.65-.33.4-.46.94-.36,1.46l8.29,51.14c.16.84.88,1.45,1.72,1.44l27.28-.05c.84,0,1.55-.62,1.7-1.46l7.96-51.44c.09-.51-.05-1.05-.38-1.46-.33-.4-.83-.64-1.35-.63l-43.53.35Z"></path>
        <path class="cls-17" d="M663.77,305.62c0,.52-.58.94-1.29.94h-1.25c-.71,0-1.29-.42-1.29-.94v-44.81c0-.52.58-.94,1.29-.94h1.25c.71,0,1.29.42,1.29.94v44.81Z"></path>
        <path class="cls-17" d="M668.55,260.46c0,.83-.92,1.5-2.06,1.5h-9.28c-1.14,0-2.06-.67-2.06-1.5v-.48c0-.83.92-1.5,2.06-1.5h9.28c1.14,0,2.06.67,2.06,1.5v.48Z"></path>
        <path class="cls-11" d="M640.85,305.26c-.52,0-1.01.24-1.33.65-.33.41-.46.94-.36,1.46l8.29,51.14c.16.85.88,1.45,1.72,1.44l27.28-.05c.84,0,1.55-.62,1.7-1.45l7.96-51.44c.09-.52-.05-1.06-.38-1.46-.33-.4-.83-.64-1.35-.63l-43.53.35Z"></path>
        <path class="cls-4" d="M640.85,305.26c-.52,0-1.01.24-1.33.65-.33.41-.46.94-.36,1.46l8.29,51.14c.16.85.88,1.45,1.72,1.44l27.28-.05c.84,0,1.55-.62,1.7-1.45l7.96-51.44c.09-.52-.05-1.06-.38-1.46-.33-.4-.83-.64-1.35-.63l-43.53.35Z"></path>
        <path class="cls-17" d="M663.77,359.01c0,.52-.58.94-1.29.94h-1.25c-.71,0-1.29-.42-1.29-.94v-44.81c0-.52.58-.94,1.29-.94h1.25c.71,0,1.29.42,1.29.94v44.81Z"></path>
        <path class="cls-17" d="M668.55,313.85c0,.83-.92,1.5-2.06,1.5h-9.28c-1.14,0-2.06-.67-2.06-1.5v-.48c0-.83.92-1.5,2.06-1.5h9.28c1.14,0,2.06.67,2.06,1.5v.48Z"></path>
        <path class="cls-11" d="M640.85,360.3c-.52,0-1.01.24-1.33.65-.33.41-.46.94-.36,1.46l8.29,51.14c.16.85.88,1.45,1.72,1.44l27.28-.05c.84,0,1.55-.62,1.7-1.46l7.96-51.44c.09-.52-.05-1.06-.38-1.46-.33-.4-.83-.64-1.35-.63l-43.53.35Z"></path>
        <path class="cls-4" d="M640.85,360.3c-.52,0-1.01.24-1.33.65-.33.41-.46.94-.36,1.46l8.29,51.14c.16.85.88,1.45,1.72,1.44l27.28-.05c.84,0,1.55-.62,1.7-1.46l7.96-51.44c.09-.52-.05-1.06-.38-1.46-.33-.4-.83-.64-1.35-.63l-43.53.35Z"></path>
        <path class="cls-17" d="M663.77,414.05c0,.52-.58.94-1.29.94h-1.25c-.71,0-1.29-.42-1.29-.94v-44.82c0-.52.58-.94,1.29-.94h1.25c.71,0,1.29.42,1.29.94v44.82Z"></path>
        <path class="cls-17" d="M668.55,368.88c0,.83-.92,1.5-2.06,1.5h-9.28c-1.14,0-2.06-.67-2.06-1.5v-.48c0-.83.92-1.5,2.06-1.5h9.28c1.14,0,2.06.67,2.06,1.5v.48Z"></path>
      </g>
      <g>
        <path class="cls-11" d="M640.85,457.87c-.52,0-1.01.24-1.33.65-.33.41-.46.94-.36,1.46l8.29,51.14c.16.85.88,1.45,1.72,1.44l27.28-.05c.84,0,1.55-.62,1.7-1.46l7.96-51.44c.09-.52-.05-1.05-.38-1.46-.33-.4-.83-.64-1.35-.63l-43.53.35Z"></path>
        <path class="cls-4" d="M640.85,457.87c-.52,0-1.01.24-1.33.65-.33.41-.46.94-.36,1.46l8.29,51.14c.16.85.88,1.45,1.72,1.44l27.28-.05c.84,0,1.55-.62,1.7-1.46l7.96-51.44c.09-.52-.05-1.05-.38-1.46-.33-.4-.83-.64-1.35-.63l-43.53.35Z"></path>
        <path class="cls-17" d="M663.77,511.62c0,.52-.58.94-1.29.94h-1.25c-.71,0-1.29-.42-1.29-.94v-44.81c0-.52.58-.94,1.29-.94h1.25c.71,0,1.29.42,1.29.94v44.81Z"></path>
        <path class="cls-17" d="M668.55,466.46c0,.83-.92,1.5-2.06,1.5h-9.28c-1.14,0-2.06-.67-2.06-1.5v-.48c0-.83.92-1.5,2.06-1.5h9.28c1.14,0,2.06.67,2.06,1.5v.48Z"></path>
        <path class="cls-11" d="M640.85,511.26c-.52,0-1.01.24-1.33.65-.33.41-.46.94-.36,1.46l8.29,51.14c.16.84.88,1.45,1.72,1.44l27.28-.05c.84,0,1.55-.62,1.7-1.46l7.96-51.44c.09-.52-.05-1.06-.38-1.46-.33-.4-.83-.64-1.35-.63l-43.53.35Z"></path>
        <path class="cls-4" d="M640.85,511.26c-.52,0-1.01.24-1.33.65-.33.41-.46.94-.36,1.46l8.29,51.14c.16.84.88,1.45,1.72,1.44l27.28-.05c.84,0,1.55-.62,1.7-1.46l7.96-51.44c.09-.52-.05-1.06-.38-1.46-.33-.4-.83-.64-1.35-.63l-43.53.35Z"></path>
        <path class="cls-17" d="M663.77,565.01c0,.52-.58.94-1.29.94h-1.25c-.71,0-1.29-.42-1.29-.94v-44.81c0-.52.58-.94,1.29-.94h1.25c.71,0,1.29.42,1.29.94v44.81Z"></path>
        <path class="cls-17" d="M668.55,519.85c0,.83-.92,1.5-2.06,1.5h-9.28c-1.14,0-2.06-.67-2.06-1.5v-.48c0-.83.92-1.5,2.06-1.5h9.28c1.14,0,2.06.67,2.06,1.5v.48Z"></path>
        <path class="cls-11" d="M640.85,566.29c-.52,0-1.01.24-1.33.65-.33.41-.46.94-.36,1.46l8.29,51.14c.16.84.88,1.45,1.72,1.44l27.28-.05c.84,0,1.55-.62,1.7-1.46l7.96-51.44c.09-.52-.05-1.06-.38-1.46-.33-.4-.83-.64-1.35-.63l-43.53.35Z"></path>
        <path class="cls-4" d="M640.85,566.29c-.52,0-1.01.24-1.33.65-.33.41-.46.94-.36,1.46l8.29,51.14c.16.84.88,1.45,1.72,1.44l27.28-.05c.84,0,1.55-.62,1.7-1.46l7.96-51.44c.09-.52-.05-1.06-.38-1.46-.33-.4-.83-.64-1.35-.63l-43.53.35Z"></path>
        <path class="cls-17" d="M663.77,620.05c0,.52-.58.94-1.29.94h-1.25c-.71,0-1.29-.42-1.29-.94v-44.82c0-.52.58-.94,1.29-.94h1.25c.71,0,1.29.42,1.29.94v44.82Z"></path>
        <path class="cls-17" d="M668.55,574.88c0,.83-.92,1.5-2.06,1.5h-9.28c-1.14,0-2.06-.67-2.06-1.5v-.48c0-.83.92-1.5,2.06-1.5h9.28c1.14,0,2.06.67,2.06,1.5v.48Z"></path>
      </g>
      <g>
        <path class="cls-17" d="M696.08,420.67c0-3.41-2.77-6.35-6.18-6.35h-80.39c-3.41,0-6.18,2.93-6.18,6.35,0,1.56.59,3.07,1.55,4.16l46.45,32,24.54-.1,17.48-30.42c1.63-2.75,2.74-3.94,2.74-5.64"></path>
        <path class="cls-16" d="M695.35,428.68c0,1.59-1.28,2.87-2.87,2.87h-109.11c-1.59,0-2.87-1.29-2.87-2.87h-.13c0-1.58,1.41-2.87,3-2.87h109.11c1.59,0,2.87,1.29,2.87,2.87"></path>
        <path class="cls-16" d="M598.16,464.1c0,1.58-1.28,2.87-2.87,2.87s-2.87-1.29-2.87-2.87v-45.94c0-1.58,1.28-2.87,2.87-2.87s2.87,1.29,2.87,2.87v45.94Z"></path>
        <path class="cls-16" d="M598.34,466.15c-1.25,1.13-3.18,1.03-4.31-.23l-.05-.06c-1.13-1.25-1.03-3.18.23-4.31l38.44-31.41c1.25-1.13,3.19-1.03,4.31.23l.49-.39c1.13,1.25.58,3.63-.67,4.76l-38.44,31.41Z"></path>
      </g>
      <g>
        <circle class="cls-13" cx="663.24" cy="643.26" r="4.65"></circle>
        <ellipse class="cls-15" cx="661.91" cy="654.74" rx="4.29" ry="4.47"></ellipse>
        <ellipse class="cls-16" cx="669.87" cy="632.4" rx="6.48" ry="6.76"></ellipse>
        <ellipse class="cls-16" cx="653.12" cy="657.42" rx="2.96" ry="3.09"></ellipse>
        <circle class="cls-1" cx="651.18" cy="645.79" r="5.77"></circle>
        <circle class="cls-18" cx="656.52" cy="631.86" r="4.79"></circle>
        <circle class="cls-18" cx="673.48" cy="649.93" r="4.1"></circle>
      </g>
      <g>
        <circle class="cls-18" cx="648.86" cy="207.83" r="6.24"></circle>
        <circle class="cls-16" cx="652.12" cy="185.57" r="6.5"></circle>
        <circle class="cls-16" cx="598.12" cy="190.57" r="6.5"></circle>
        <circle class="cls-13" cx="614.65" cy="184.04" r="6.53"></circle>
        <circle class="cls-15" cx="635.59" cy="210.1" r="5.47"></circle>
        <circle class="cls-15" cx="661.12" cy="198.07" r="6"></circle>
        <circle class="cls-15" cx="602.12" cy="174.07" r="6"></circle>
        <circle class="cls-16" cx="626.12" cy="187.57" r="4.5"></circle>
        <circle class="cls-16" cx="645.21" cy="196.08" r="3.59"></circle>
        <circle class="cls-16" cx="619.21" cy="172.08" r="3.59"></circle>
        <circle class="cls-16" cx="668.12" cy="208.57" r="4.5"></circle>
        <circle class="cls-12" cx="633.13" cy="198.07" r="5.51"></circle>
        <circle class="cls-18" cx="613.53" cy="198.16" r="5.41"></circle>
        <circle class="cls-1" cx="637.81" cy="186.89" r="4.19"></circle>
        <circle class="cls-1" cx="622.81" cy="203.89" r="4.19"></circle>
        <circle class="cls-1" cx="631.55" cy="176.14" r="5.93"></circle>
        <g>
          <path class="cls-17" d="M696.08,215.61c0-3.41-2.77-5.99-6.18-5.99h-80.39c-3.41,0-6.18,2.57-6.18,5.99,0,1.57.59,2.89,1.55,3.98l46.45,31.91,24.54-.14,17.48-30.26c1.63-2.74,2.74-3.78,2.74-5.49"></path>
          <path class="cls-16" d="M695.35,223.02c0,1.59-1.28,2.87-2.87,2.87h-110.07c-1.59,0-2.87-1.29-2.87-2.87h-.03c0-1.58,1.32-2.87,2.9-2.87h110.07c1.59,0,2.87,1.29,2.87,2.87"></path>
          <path class="cls-16" d="M598.16,259.39c0,1.59-1.28,2.87-2.87,2.87s-2.87-1.29-2.87-2.87v-45.94c0-1.58,1.28-2.87,2.87-2.87s2.87,1.29,2.87,2.87v45.94Z"></path>
          <path class="cls-16" d="M598.34,260.73c-1.25,1.13-3.18,1.03-4.31-.23l-.05-.06c-1.13-1.25-1.03-3.18.23-4.31l38.44-31.41c1.25-1.13,3.19-1.03,4.31.23l.49-.39c1.13,1.25.58,3.63-.67,4.76l-38.44,31.41Z"></path>
        </g>
      </g>
    </g>
  </g>
</svg>
