<svg xmlns="http://www.w3.org/2000/svg" xmlns:xlink="http://www.w3.org/1999/xlink" id="Layer_1" x="0px" y="0px" viewBox="0 0 841.5 771.1" style="enable-background:new 0 0 841.5 771.1;" xml:space="preserve"> <style type="text/css"> .st0{fill:none;stroke:#4A596E;stroke-width:10.5675;stroke-miterlimit:10;} .st1{fill:none;stroke:#4A596E;stroke-width:12;stroke-miterlimit:10;} .st2{fill:#4A596E;} .st3{fill:#FFFFFF;} .st4{fill:#0DB14B;} .st5{fill:#073856;} .st6{fill:#F48220;} .st7{fill:#00ADEF;} .st8{fill:#FDC00F;} .st9{fill:#16C5D5;} .st10{fill:#A4CAD8;} .st11{fill:#FC611F;} .st12{fill:#13A4B2;} .st13{fill:#FF9F1E;} .st14{fill:#9B1A00;} .st15{fill:#1695A4;} .st16{fill:#C7D3CB;} .st17{fill:#7F7F7F;} .st18{fill:#55BA52;} .st19{fill:#00934A;} .st20{fill-rule:evenodd;clip-rule:evenodd;fill:#00934A;} .st21{fill-rule:evenodd;clip-rule:evenodd;fill:#FFFFFF;} .st22{fill:#FF7200;} .st23{fill:#D4582A;} .st24{fill-rule:evenodd;clip-rule:evenodd;fill:#D4582A;} .st25{fill:#009BCE;} .st26{fill:#0081B9;} .st27{fill-rule:evenodd;clip-rule:evenodd;fill:#0081B9;} </style> <g> <g> <path class="st0" d="M610.5,631.3H230c-12.4,0-22.5-10.1-22.5-22.5V241.4c0-12.4,10.1-22.5,22.5-22.5h380.5 c12.4,0,22.5,10.1,22.5,22.5v367.4C633,621.2,622.9,631.3,610.5,631.3z"></path> <line class="st1" x1="291.3" y1="362.6" x2="546.8" y2="362.6"></line> <g> <g> <path class="st2" d="M495.2,261.1H345.5c-11,0-20-9-20-20V102.8c0-11,9-20,20-20h149.7c11,0,20,9,20,20v138.3 C515.2,252.1,506.2,261.1,495.2,261.1z"></path> <g> <path class="st3" d="M349.7,246.9h141.2c5.5,0,10-4.5,10-10V106c0-5.5-4.5-10-10-10H349.7c-5.5,0-10,4.5-10,10v130.9 C339.7,242.4,344.2,246.9,349.7,246.9z"></path> </g> </g> <g> <path class="st2" d="M477.9,130.8c0,3-2.1,5.4-4.7,5.4h-91.9c-2.6,0-4.7-2.4-4.7-5.4l0,0c0-3,2.1-5.4,4.7-5.4h91.9 C475.8,125.4,477.9,127.8,477.9,130.8L477.9,130.8z"></path> </g> <g> <path class="st2" d="M477.9,173.9c0,3-2.1,5.4-4.7,5.4h-91.9c-2.6,0-4.7-2.4-4.7-5.4l0,0c0-3,2.1-5.4,4.7-5.4h91.9 C475.8,168.5,477.9,170.9,477.9,173.9L477.9,173.9z"></path> </g> <g> <path class="st2" d="M480.7,219.3c0,3-2.1,5.5-4.8,5.5h-94.1c-2.7,0-4.8-2.5-4.8-5.5l0,0c0-3,2.2-5.5,4.8-5.5h94.1 C478.6,213.7,480.7,216.2,480.7,219.3L480.7,219.3z"></path> </g> <g> <g> <path class="st4" d="M389.8,130.4c0,7.9-6.4,14.4-14.4,14.4c-7.9,0-14.4-6.4-14.4-14.4c0-7.9,6.4-14.4,14.4-14.4 C383.3,116.1,389.8,122.5,389.8,130.4z"></path> </g> <g> <polygon class="st5" points="360.8,119.6 376.1,140.2 393.3,110.7 375.5,128.6 "></polygon> </g> </g> <g> <g> <path class="st6" d="M389.8,172.9c0,7.9-6.4,14.4-14.4,14.4c-7.9,0-14.4-6.4-14.4-14.4c0-7.9,6.4-14.4,14.4-14.4 C383.3,158.5,389.8,165,389.8,172.9z"></path> </g> <g> <polygon class="st5" points="360.8,162.1 376.1,182.7 393.3,153.2 375.5,171.1 "></polygon> </g> </g> <g> <g> <path class="st7" d="M389.8,217c0,7.9-6.4,14.4-14.4,14.4c-7.9,0-14.4-6.4-14.4-14.4c0-7.9,6.4-14.4,14.4-14.4 C383.3,202.6,389.8,209.1,389.8,217z"></path> </g> <g> <polygon class="st5" points="360.8,206.2 376.1,226.8 393.3,197.3 375.5,215.2 "></polygon> </g> </g> </g> <g> <g> <path class="st2" d="M290.7,435.3H141c-11,0-20-9-20-20V314.9c0-11,9-20,20-20h149.7c11,0,20,9,20,20v100.4 C310.7,426.4,301.8,435.3,290.7,435.3z"></path> <g> <path class="st3" d="M145.3,421.1h141.2c5.5,0,10-4.5,10-10v-92c0-5.5-4.5-10-10-10H145.3c-5.5,0-10,4.5-10,10v92 C135.3,416.6,139.8,421.1,145.3,421.1z"></path> </g> </g> <g> <g> <g> <polygon class="st8" points="285.8,408.1 285.8,319.3 278.8,332.9 274.7,328.1 265.4,336.4 265.4,408.1 "></polygon> </g> <g> <polygon class="st9" points="256,408.1 256,350.6 242.8,373.1 235.6,373.6 235.6,408.1 "></polygon> </g> <g> <g> <polygon class="st10" points="226.2,408.1 226.2,374.3 216.3,375.1 205.9,391.7 205.9,408.1 "></polygon> </g> </g> <g> <g> <polygon class="st11" points="267.5,324.7 270.4,328.1 251.2,345.2 236.6,369.8 209.8,371.8 195.7,398.8 195.7,409.1 198.3,409.1 214.2,378.6 240.9,376.6 256.5,349.9 275,333.4 278,336.8 286,319.3 "></polygon> </g> <polygon class="st5" points="197,407.3 197,319.3 193.3,319.3 193.3,411 285.8,411 285.8,407.3 "></polygon> </g> </g> <g> <rect x="145.8" y="319.4" class="st8" width="30.4" height="2.8"></rect> <rect x="145.8" y="328.3" class="st9" width="30.4" height="2.8"></rect> <rect x="145.8" y="337.2" class="st10" width="30.4" height="2.8"></rect> </g> <g> <rect x="145.8" y="354.6" class="st9" width="30.4" height="2.8"></rect> <rect x="145.8" y="363.5" class="st10" width="30.4" height="2.8"></rect> <rect x="145.8" y="372.4" class="st8" width="30.4" height="2.8"></rect> </g> <g> <rect x="145.8" y="390.4" class="st9" width="30.4" height="2.8"></rect> <rect x="145.8" y="399.3" class="st8" width="30.4" height="2.8"></rect> <rect x="145.8" y="408.2" class="st10" width="30.4" height="2.8"></rect> </g> </g> </g> <g> <g> <path class="st2" d="M698.2,435.3H548.4c-11,0-20-9-20-20V314.9c0-11,9-20,20-20h149.7c11,0,20,9,20,20v100.4 C718.2,426.4,709.2,435.3,698.2,435.3z"></path> <g> <path class="st3" d="M552.7,421.1h141.2c5.5,0,10-4.5,10-10v-92c0-5.5-4.5-10-10-10H557c-7.9,0-14.3,6.4-14.3,14.3v87.7 C542.7,416.6,547.2,421.1,552.7,421.1z"></path> </g> </g> <g> <g> <rect x="642.4" y="402.9" class="st5" width="50.6" height="9.5"></rect> <rect x="584.8" y="402.9" class="st11" width="36.1" height="9.5"></rect> <rect x="620.9" y="402.9" class="st12" width="21.5" height="9.5"></rect> <rect x="553.6" y="402.9" class="st13" width="31.1" height="9.5"></rect> </g> <polygon class="st5" points="623.9,339 601.3,362.6 569,326.7 553.6,362.6 553.6,396.8 692.4,396.8 692.4,391.7 "></polygon> <polygon class="st12" points="669.3,377.5 645.6,343.8 623,367.5 590.7,341.3 573.9,365.5 553.6,377.2 553.6,396.8 692.4,396.8 692.4,391.7 "></polygon> <polygon class="st11" points="675.1,356.2 657.7,377.2 640.4,367.9 623,377.2 605.7,353.5 588.3,370.4 571,363.8 553.6,386.8 553.6,396.8 692.4,396.8 692.4,386.8 "></polygon> <polygon class="st13" points="671.4,327.1 653.9,386.8 645.6,377.6 637.3,386.8 623.3,363.2 609.4,386.8 597.4,369.6 585.3,386.8 569.5,373 553.6,386.8 553.6,396.8 692.4,396.8 692.4,386.8 "></polygon> </g> </g> <line class="st1" x1="422.1" y1="302.7" x2="422.1" y2="505.3"></line> <g> <g> <path class="st2" d="M495.2,434.8H345.5c-11,0-20-9-20-20V314.4c0-11,9-20,20-20h149.7c11,0,20,9,20,20v100.4 C515.2,425.9,506.2,434.8,495.2,434.8z"></path> <g> <path class="st3" d="M349.7,420.6h141.2c5.5,0,10-4.5,10-10v-92c0-5.5-4.5-10-10-10H349.7c-5.5,0-10,4.5-10,10v92 C339.7,416.1,344.2,420.6,349.7,420.6z"></path> </g> </g> <g> <g> <path class="st13" d="M388,350.2c6,6.8,16.4,7.5,23.2,1.5c1.4-1.3,2.6-2.7,3.5-4.3c3.4-5.9,2.8-13.5-1.9-19 c-1-1.2-2.2-2.2-3.5-3c-5-3.3-11.5-3.5-16.8-0.6c-1,0.6-2,1.2-2.9,2c-3.7,3.2-5.6,7.8-5.6,12.4 C384,343.2,385.3,347.1,388,350.2z"></path> <path class="st11" d="M389.5,319.6c-1.4,0.8-2.7,1.7-4,2.8c-5.1,4.4-7.7,10.7-7.7,16.9l22.5,0L389.5,319.6z"></path> <path class="st11" d="M435.3,355.1c8.7,2.6,17.9-2.4,20.4-11.1c0.5-1.8,0.7-3.7,0.7-5.4c-0.3-6.8-4.9-13-11.7-15 c-1.5-0.4-3-0.7-4.5-0.7c-6-0.1-11.6,3.2-14.6,8.5c-0.6,1-1,2.1-1.4,3.3c-1.4,4.7-0.6,9.6,1.9,13.4 C428.1,351.4,431.3,354,435.3,355.1z"></path> <path class="st14" d="M462.7,338.7c-0.5-9.8-7-18.6-16.9-21.6c-2.2-0.6-4.3-1-6.5-1l-0.2,23.7L462.7,338.7z"></path> <path class="st9" d="M417.5,369.2c-9.1,0-16.5,7.4-16.5,16.4c0,9.1,7.5,16.4,16.5,16.4V369.2z"></path> <path class="st12" d="M417.5,407.7c12.2,0,22.2-9.9,22.2-22.1c0-12.2-10-22.1-22.2-22.1V407.7z"></path> <rect x="386.8" y="358.2" class="st13" width="25.8" height="3.4"></rect> <rect x="386.8" y="358.2" class="st11" width="6.7" height="3.4"></rect> <rect x="428.9" y="357.9" class="st11" width="25.8" height="3.4"></rect> <rect x="428.9" y="357.9" class="st14" width="4.5" height="3.4"></rect> <rect x="405.4" y="409.7" class="st12" width="25.8" height="3.4"></rect> <rect x="405.4" y="409.7" class="st9" width="12.9" height="3.4"></rect> </g> <g> <g> <rect x="454.5" y="394.6" class="st15" width="36.1" height="2.1"></rect> <rect x="454.5" y="401.3" class="st15" width="36.1" height="2.1"></rect> <rect x="454.5" y="408.1" class="st15" width="36.1" height="2.1"></rect> </g> <g> <rect x="350" y="394.6" class="st15" width="36.1" height="2.1"></rect> <rect x="350" y="401.3" class="st15" width="36.1" height="2.1"></rect> <rect x="350" y="408.1" class="st15" width="36.1" height="2.1"></rect> </g> </g> </g> </g> </g> <path class="st2" d="M275.1,589.8c-0.2-1.9-0.4-3.8-0.7-5.7c-0.6-3.6-1.3-7.2-2-10.7c-0.6-2.5-1.3-5-2-7.4 c-0.7-2.4-1.4-4.8-2.3-7.2c-0.6-1.5-1-3-1-4.7c0.3-5-0.4-9.8-1.9-14.5c-1.7-5.3-4.1-10.1-7.2-14.6c-2.3-3.3-5.1-6.2-7.7-9.2 c-0.6-0.7-1-1.4-1.1-2.4c-0.1-1.5-0.3-3.1-0.7-4.6c-1.3-4.8-3.8-9-7.3-12.7c-6-6.3-13.2-10.7-21.1-14.1c-0.9-0.4-1.8-0.8-2.9-1.3 c2.1-3.6,4.9-6.1,8.1-8.2c3.2-2.1,6.7-3.8,10.3-5.2c-1.5-0.3-2.9-0.6-4.4-0.6c-2.4,0.1-4.8-0.5-7.1-1c-2.8-0.6-5.6-1.6-8.5-2.2 c-1.6-0.4-3.3-0.8-5,0.2c-0.2,0.1-0.7,0.1-1-0.1c-1.5-0.8-3-1-4.6-0.9c-1.7,0.1-3.4,0.1-5.1,0c-4.1-0.1-8.1,0.8-12,2 c-0.8,0.2-1.5,0.6-2.2,1c-1.4,0.9-1.4,2.3,0,3.2c1,0.6,2.1,1.1,3.1,1.6c3.1,1.5,6.3,2.9,9.3,4.5c2.3,1.2,4,3.1,5.2,5.6 c-0.5,0.3-1,0.5-1.4,0.7c-0.8,0.3-1.6,0.6-2.4,1c-4.9,2.3-9.6,4.8-13.9,8.1c-4.5,3.4-8.4,7.4-11.1,12.5c-1.6,3-2.8,6.1-2.8,9.6 c0,1.1-0.4,2-1.2,2.9c-5,5-9.2,10.6-12.3,17.1c-2,4-3.4,8.2-4.2,12.6c-0.7,3.4-0.9,6.9-0.8,10.4c0,0.7-0.2,1.5-0.4,2.2 c-1.1,3.4-2.4,6.8-3.5,10.3c-0.8,2.6-1.4,5.3-2,7.9c-0.9,3.8-0.8,7.6-1,11.5c0,0.6,0.3,1.1,0.3,1.6c0,4.5,0,9,0,13.5 c0,0.4-0.4,0.9-0.3,1.3c0.3,1.6,0.1,3.3,0.3,4.9c0.2,1.6,0.6,2.9,2.2,3.6c2.4,1.1,4.8,2,7.4,2.4c1.3,0.2,2.5,0.4,3.7,0.7 c3.1,0.6,6.1,1,9.3,1.3c4.7,0.5,9.4,0.8,14.1,1.3c3.9,0.4,7.7,0.4,11.6,0.5c1.5,0.1,2.9-1.4,4.4,0.6c10.7,0,21.3,0,32,0 c0.4,0,0.8-0.3,1.2-0.3c3.2-0.1,6.5-0.2,9.7-0.3c0.6,0,1.2-0.1,1.7-0.2c0.9-0.1,1.9-0.3,2.8-0.4c3.1-0.3,6.3-0.4,9.4-0.9 c2.8-0.4,5.5-1.2,8.3-1.7c2.3-0.4,4.4-1.1,6.5-2.1c1.6-0.7,2.8-1.9,3.3-3.7C275.8,603.2,275.7,596.5,275.1,589.8z"></path> <g> <g> <g> <path class="st2" d="M299,736.1c0,7.6-6.2,13.8-13.8,13.8c-7.6,0-13.8-6.2-13.8-13.8c0-7.6,6.2-13.8,13.8-13.8 C292.8,722.3,299,728.5,299,736.1"></path> <path class="st16" d="M295.4,736.1c0,5.7-4.6,10.2-10.2,10.2c-5.7,0-10.2-4.6-10.2-10.2c0-5.7,4.6-10.2,10.2-10.2 C290.8,725.8,295.4,730.4,295.4,736.1"></path> <path class="st2" d="M271.7,709.4l0.5,2.5c0.2,1.3,1.4,2.2,2.7,2.2H296c1.3,0,2.4-0.9,2.7-2.2l0.5-2.5c0.3-1.7-1-3.2-2.7-3.2 h-22.1C272.7,706.1,271.4,707.7,271.7,709.4"></path> <path class="st17" d="M278.6,714l3.6,22.9c0.2,1.4,1.4,2.4,2.8,2.4h0.3c1.4,0,2.6-1,2.8-2.3l4.3-23H278.6z"></path> <path class="st2" d="M286.5,736.1c0,0.7-0.6,1.3-1.3,1.3c-0.7,0-1.3-0.6-1.3-1.3c0-0.7,0.6-1.3,1.3-1.3 C285.9,734.8,286.5,735.4,286.5,736.1"></path> </g> <g> <path class="st2" d="M167.3,736.1c0,7.6-6.2,13.8-13.8,13.8c-7.6,0-13.8-6.2-13.8-13.8c0-7.6,6.2-13.8,13.8-13.8 C161.2,722.3,167.3,728.5,167.3,736.1"></path> <path class="st16" d="M163.8,736.1c0,5.7-4.6,10.2-10.2,10.2c-5.7,0-10.2-4.6-10.2-10.2c0-5.7,4.6-10.2,10.2-10.2 C159.2,725.8,163.8,730.4,163.8,736.1"></path> <path class="st2" d="M140.1,709.4l0.5,2.5c0.2,1.3,1.4,2.2,2.7,2.2h21.1c1.3,0,2.4-0.9,2.7-2.2l0.5-2.5c0.3-1.7-1-3.2-2.7-3.2 h-22.1C141.1,706.1,139.8,707.7,140.1,709.4"></path> <path class="st17" d="M146.9,714l3.6,22.9c0.2,1.4,1.4,2.4,2.8,2.4h0.3c1.4,0,2.6-1,2.8-2.3l4.3-23H146.9z"></path> <path class="st2" d="M154.8,736.1c0,0.7-0.6,1.3-1.3,1.3c-0.7,0-1.3-0.6-1.3-1.3c0-0.7,0.6-1.3,1.3-1.3 C154.3,734.8,154.8,735.4,154.8,736.1"></path> </g> <path class="st18" d="M101.4,549.4v30.2c7.8,0,14.1,6.3,14.1,14.1v92.6c0,12.7,10.3,22.9,22.9,22.9h160.2 c12.7,0,22.9-10.3,22.9-22.9v-92.6c0-3.4,1.2-6.6,3.3-9.1c0.3-0.3,0.6-0.6,0.9-0.9c2.6-2.6,6.1-4.1,10-4.1v-30.2h-14.1v-4.3 H115.6v4.3H101.4z"></path> <path class="st19" d="M230.2,559c47.4,0,67,2.4,105.3,6.6V553l-233.9,0.2v12.6C139.4,561.7,183,559,230.2,559z"></path> <path class="st18" d="M94.1,555.4h248.9c5.7,0,10.2-4.6,10.2-10.2c0-5.7-4.6-10.2-10.2-10.2H94.1c-5.7,0-10.2,4.6-10.2,10.2 C83.9,550.8,88.5,555.4,94.1,555.4z"></path> <path class="st19" d="M97.4,548.7h63c2.3,0,4.2-1.9,4.2-4.2c0-2.3-1.9-4.2-4.2-4.2h-63c-2.3,0-4.2,1.9-4.2,4.2 C93.2,546.8,95,548.7,97.4,548.7z"></path> </g> <circle class="st20" cx="212.6" cy="631.7" r="64.7"></circle> <g> <path class="st21" d="M249.9,602.4c-0.2,0-32.8-17.5-32.8-17.5c-4.8,2.1-38.1,15.8-38.3,15.8c0,0-10,11-12.6,13.7 c-0.8,0.8-1.1,1.8-0.8,3.3c0.5,0.4,1.1,1.1,1.8,1.6c3.6,2.3,7.1,4.6,10.9,7c0,2.6,0,12.5,0,15c0,2.4,0.9,4.4,2.9,5.7 c3,1.9,29.7,18.9,31.8,20.2c1.2,0.8,2.6,1.4,4,1.1c1.1-0.2,32-13,33.8-15.2c2-2.5,3.2-5.2,3.3-8.5c0-2.3,0-11.9,0-14.2 c0.4-0.2,8.5-3.7,12.2-5.2c1.8-0.8,2.3-2.5,1.2-4.1C266.9,620.5,249.9,602.4,249.9,602.4z M219.1,591.6 c0.2,0.2,26.2,14.2,26,14.4c0.2,0-25.5,9.9-25.5,9.9C219.6,615.7,219.3,591.6,219.1,591.6z M170.4,616.7c2.7-3.6,6.7-7,9.8-10.2 c8.8,5.6,19.3,11.5,28.1,17.1c-3.1,3.2-6.7,7-9.8,10.3C189.8,628.3,179.3,622.4,170.4,616.7z M208,657.9 c-3.4-2.1-6.7-4.3-10.1-6.4c-4.5-2.9-9-5.8-13.6-8.6c-0.8-0.5-1.3-1.2-1.3-2.1c-0.1-1.2,0-9.8,0-11.4c4.5,2.9,8.7,5.6,12.9,8.2 c0.4,0.3,0.9,0.5,1.4,0.7c1.9,1,2.4,0.9,3.9-0.7c2.2-2.3,4.4-4.7,6.6-7c0.4-0.4,0.8-0.8,1.4-1.3c0.1,0.5,0.3,0.7,0.3,0.9 c0,6.9,0,21.1,0,28.2C208.8,658.2,208.4,658.1,208,657.9z M212.1,620l-28.2-16.1c9.5-4.2,21.7-8.5,30.9-12.5 c0,9.2,0.1,18.4,0.1,27.4C213.8,619.2,212.8,619.6,212.1,620z M248.7,643.6c0.1,3.7-1.8,6.2-4.8,7.8c-1.5,0.8-3.2,1.4-4.8,2.1 c-3.6,1.5-7.3,3-10.9,4.5c-3.3,1.4-6.6,2.8-9.9,4.1c-0.9,0.4-2,0.5-3,0.7c-0.6-0.7-0.9-1.4-0.9-2.3c0-7.6,0-22.6,0-30.3 c0.9,0.5,1.8,1.4,2.5,2.2c0.7,0.9,1.5,1.9,2.3,2.8c1.4,1.6,2.8,3.2,4.2,4.9c1.2,1.5,2.5,1.7,4.1,1c5.7-2.4,11.4-4.7,17-7 c1.2-0.5,2.5-1.1,3.8-1.8c0.1,0.6,0.3,1,0.3,1.3C248.8,634.5,248.7,642.7,248.7,643.6z M227.4,636.4c-3.4-3.9-7.5-8.5-11-12.5 c11.4-4.7,22.6-9.4,34.1-14.1c1.7,1.9,3.4,3.9,5,5.8c1.6,1.9,4.1,4.6,5.9,6.7C250,627,238.7,631.7,227.4,636.4z"></path> </g> </g> <path class="st2" d="M487.3,589.8c-0.2-1.9-0.4-3.8-0.7-5.7c-0.6-3.6-1.3-7.2-2-10.7c-0.6-2.5-1.3-5-2-7.4 c-0.7-2.4-1.4-4.8-2.3-7.2c-0.6-1.5-1-3-1-4.7c0.3-5-0.4-9.8-1.9-14.5c-1.7-5.3-4.1-10.1-7.2-14.6c-2.3-3.3-5.1-6.2-7.7-9.2 c-0.6-0.7-1-1.4-1.1-2.4c-0.1-1.5-0.3-3.1-0.7-4.6c-1.3-4.8-3.8-9-7.3-12.7c-6-6.3-13.2-10.7-21.1-14.1c-0.9-0.4-1.8-0.8-2.9-1.3 c2.1-3.6,4.9-6.1,8.1-8.2c3.2-2.1,6.7-3.8,10.3-5.2c-1.5-0.3-2.9-0.6-4.4-0.6c-2.4,0.1-4.8-0.5-7.1-1c-2.8-0.6-5.6-1.6-8.5-2.2 c-1.6-0.4-3.3-0.8-5,0.2c-0.2,0.1-0.7,0.1-1-0.1c-1.5-0.8-3-1-4.6-0.9c-1.7,0.1-3.4,0.1-5.1,0c-4.1-0.1-8.1,0.8-12,2 c-0.8,0.2-1.5,0.6-2.2,1c-1.4,0.9-1.4,2.3,0,3.2c1,0.6,2.1,1.1,3.1,1.6c3.1,1.5,6.3,2.9,9.3,4.5c2.3,1.2,4,3.1,5.2,5.6 c-0.5,0.3-1,0.5-1.4,0.7c-0.8,0.3-1.6,0.6-2.4,1c-4.9,2.3-9.6,4.8-13.9,8.1c-4.5,3.4-8.4,7.4-11.1,12.5c-1.6,3-2.8,6.1-2.8,9.6 c0,1.1-0.4,2-1.2,2.9c-5,5-9.2,10.6-12.3,17.1c-2,4-3.4,8.2-4.2,12.6c-0.7,3.4-0.9,6.9-0.8,10.4c0,0.7-0.2,1.5-0.4,2.2 c-1.1,3.4-2.4,6.8-3.5,10.3c-0.8,2.6-1.4,5.3-2,7.9c-0.9,3.8-0.8,7.6-1,11.5c0,0.6,0.3,1.1,0.3,1.6c0,4.5,0,9,0,13.5 c0,0.4-0.4,0.9-0.3,1.3c0.3,1.6,0.1,3.3,0.3,4.9c0.2,1.6,0.6,2.9,2.2,3.6c2.4,1.1,4.8,2,7.4,2.4c1.3,0.2,2.5,0.4,3.7,0.7 c3.1,0.6,6.1,1,9.3,1.3c4.7,0.5,9.4,0.8,14.1,1.3c3.9,0.4,7.7,0.4,11.6,0.5c1.5,0.1,2.9-1.4,4.4,0.6c10.7,0,21.3,0,32,0 c0.4,0,0.8-0.3,1.2-0.3c3.2-0.1,6.5-0.2,9.7-0.3c0.6,0,1.2-0.1,1.7-0.2c0.9-0.1,1.9-0.3,2.8-0.4c3.1-0.3,6.3-0.4,9.4-0.9 c2.8-0.4,5.5-1.2,8.3-1.7c2.3-0.4,4.4-1.1,6.5-2.1c1.6-0.7,2.8-1.9,3.3-3.7C488,603.2,487.9,596.5,487.3,589.8z"></path> <g> <g> <g> <path class="st2" d="M504.8,736.1c0,7.6-6.2,13.8-13.8,13.8c-7.6,0-13.8-6.2-13.8-13.8c0-7.6,6.2-13.8,13.8-13.8 C498.6,722.3,504.8,728.5,504.8,736.1"></path> <path class="st16" d="M501.3,736.1c0,5.7-4.6,10.2-10.2,10.2c-5.7,0-10.2-4.6-10.2-10.2c0-5.7,4.6-10.2,10.2-10.2 C496.7,725.8,501.3,730.4,501.3,736.1"></path> <path class="st2" d="M477.6,709.4l0.5,2.5c0.2,1.3,1.4,2.2,2.7,2.2h21.1c1.3,0,2.4-0.9,2.7-2.2l0.5-2.5c0.3-1.7-1-3.2-2.7-3.2 h-22.1C478.5,706.1,477.3,707.7,477.6,709.4"></path> <path class="st17" d="M484.4,714l3.6,22.9c0.2,1.4,1.4,2.4,2.8,2.4h0.3c1.4,0,2.6-1,2.8-2.3l4.3-23H484.4z"></path> <path class="st2" d="M492.3,736.1c0,0.7-0.6,1.3-1.3,1.3c-0.7,0-1.3-0.6-1.3-1.3c0-0.7,0.6-1.3,1.3-1.3 C491.7,734.8,492.3,735.4,492.3,736.1"></path> </g> <g> <path class="st2" d="M373.2,736.1c0,7.6-6.2,13.8-13.8,13.8c-7.6,0-13.8-6.2-13.8-13.8c0-7.6,6.2-13.8,13.8-13.8 C367,722.3,373.2,728.5,373.2,736.1"></path> <path class="st16" d="M369.6,736.1c0,5.7-4.6,10.2-10.2,10.2c-5.7,0-10.2-4.6-10.2-10.2c0-5.7,4.6-10.2,10.2-10.2 C365,725.8,369.6,730.4,369.6,736.1"></path> <path class="st2" d="M345.9,709.4l0.5,2.5c0.2,1.3,1.4,2.2,2.7,2.2h21.1c1.3,0,2.4-0.9,2.7-2.2l0.5-2.5c0.3-1.7-1-3.2-2.7-3.2 h-22.1C346.9,706.1,345.6,707.7,345.9,709.4"></path> <path class="st17" d="M352.8,714l3.6,22.9c0.2,1.4,1.4,2.4,2.8,2.4h0.3c1.4,0,2.6-1,2.8-2.3l4.3-23H352.8z"></path> <path class="st2" d="M360.7,736.1c0,0.7-0.6,1.3-1.3,1.3c-0.7,0-1.3-0.6-1.3-1.3c0-0.7,0.6-1.3,1.3-1.3 C360.1,734.8,360.7,735.4,360.7,736.1"></path> </g> <path class="st22" d="M307.3,549.4v30.2c7.8,0,14.1,6.3,14.1,14.1v92.6c0,12.7,10.3,22.9,22.9,22.9h160.2 c12.7,0,22.9-10.3,22.9-22.9v-92.6c0-3.4,1.2-6.6,3.3-9.1c0.3-0.3,0.6-0.6,0.9-0.9c2.6-2.6,6.1-4.1,10-4.1v-30.2h-14.1v-4.3 H321.4v4.3H307.3z"></path> <path class="st23" d="M436.1,559c47.4,0,67,2.4,105.3,6.6V553l-233.9,0.2v12.6C345.2,561.7,388.8,559,436.1,559z"></path> <path class="st22" d="M300,555.4h248.9c5.7,0,10.2-4.6,10.2-10.2c0-5.7-4.6-10.2-10.2-10.2H300c-5.7,0-10.2,4.6-10.2,10.2 C289.7,550.8,294.3,555.4,300,555.4z"></path> <path class="st23" d="M303.2,548.7h63c2.3,0,4.2-1.9,4.2-4.2c0-2.3-1.9-4.2-4.2-4.2h-63c-2.3,0-4.2,1.9-4.2,4.2 C299,546.8,300.9,548.7,303.2,548.7z"></path> </g> <circle class="st24" cx="418.5" cy="631.7" r="64.7"></circle> <g> <g> <path class="st21" d="M414.6,644.6c0,2.1,0,5,0,7.1c0,1.3-0.5,2.4-1.6,3.3c-1.3,1-2.1,1.1-4.3,1.8c-1.1,0.4-2.3,0.7-3-0.5 c-0.6-1-0.3-1.9,0.8-2.6c0.9-0.4,3.2-1.5,3.6-2.3c0.6-1.3,0.4-3.4,0.4-5c0-2.8,0-5.5,0-8.3c0-1.5,0.8-2.4,2-2.4 c1.2,0,2,0.9,2,2.4C414.6,640.3,414.6,642.5,414.6,644.6z"></path> <path class="st21" d="M386.4,620.2c0,3.2,0,6.4,0,9.6c0,1.5-0.8,2.4-2,2.4c-1.3,0-2-0.9-2-2.5c0-6.4,0-12.8,0-19.2 c0-1.6,0.8-2.5,2-2.5c1.3,0,2,0.9,2,2.5C386.4,613.8,386.4,617,386.4,620.2z"></path> <g> <path class="st21" d="M373.9,631.4c0-7.3,0-14.7,0-22c0-3.6,1.1-6.9,3.2-9.8c0.3-0.4,0.3-0.7,0-1.1c-1.6-2.3-1.5-5,0.3-7.2 c1.6-2,3.8-3.1,6.1-4c3.4-1.3,6.9-1.9,10.5-2.2c3.7-0.3,7.4-0.3,11,0.3c3.9,0.6,7.7,1.4,11.1,3.4c1.4,0.8,2.7,1.9,3.6,3.3 c1.3,2.1,1.2,4.2-0.2,6.3c-0.4,0.5-0.3,0.8,0,1.3c2.1,3.1,3.1,6.5,3.1,10.2c-0.1,5.4,0,10.9,0,16.3c0,8.8-0.1,17.7,0,26.5 c0.1,4.1-1.7,6.9-5,9c-3,1.9-6.4,3-9.9,3.6c-7.6,1.4-15.3,1.2-22.8-0.9c-3.2-0.9-6.3-2.3-8.7-4.8c-1.7-1.7-2.5-3.7-2.5-6.1 C374,646.2,373.9,638.8,373.9,631.4z M416,601.7c-5.6,2.8-11.5,3.6-17.6,3.6c-6.1,0-12.1-0.8-17.6-3.6 c-0.1,0.1-0.1,0.2-0.2,0.2c-1.5,2.2-2.4,4.7-2.4,7.4c0,2.4,0,4.9,0,7.3c0,12.4,0,24.7,0,37.1c0,1.2,0.4,2.1,1.2,3 c1,1.1,2.3,1.9,3.7,2.6c2.9,1.3,6.1,2,9.3,2.4c3.8,0.5,7.6,0.5,11.3,0.1c2.9-0.3,5.8-0.8,8.5-1.8c1.7-0.6,3.3-1.4,4.7-2.6 c1.2-1,1.9-2.2,1.9-3.9c0-14.6,0-29.2,0-43.8C418.6,606.8,417.7,604.1,416,601.7z M398,589.1c-1.1,0.1-2.7,0.1-4.2,0.3 c-2.9,0.3-5.8,0.8-8.6,1.8c-1.5,0.6-2.9,1.2-4.1,2.3c-1.4,1.2-1.4,2.1,0,3.4c1.5,1.4,3.3,2.1,5.2,2.7c2.7,0.9,5.4,1.3,8.2,1.5 c5.4,0.4,10.8,0.1,16-1.5c1.8-0.5,3.5-1.3,4.9-2.4c1.7-1.4,1.7-2.6-0.1-3.9c0,0-0.1-0.1-0.2-0.1c-1.2-0.6-2.3-1.3-3.5-1.8 C407.3,589.6,402.9,589.2,398,589.1z"></path> <path class="st21" d="M404.7,598.2c-1.7-0.1-3-0.3-3.9-1.5c-0.8-1.2-0.6-2.7,0.5-3.6c1.6-1.3,4.4-1.3,6-0.1 c0.9,0.7,1.3,1.6,1.1,2.7c-0.2,1.2-1,1.9-2.2,2.3C405.7,598.1,405.1,598.2,404.7,598.2z"></path> </g> </g> <g> <path class="st21" d="M434.7,625c-0.6-0.7-1.1-1.5-1.5-2.4c-1.3-2.7-0.4-5,2.4-6c2.1-0.8,4.2-0.9,6.4-0.6 c8.5,1.2,16.3,4.4,23.4,9.2c3.3,2.2,6.3,4.7,8.2,8.4c0.3,0.6,0.5,1.2,0.5,1.8c0,6.4,0,12.8,0,19.1c0,1.9-0.7,3.4-2.2,4.4 c-1.8,1.2-3.7,2.4-5.8,3c-8.4,2.8-17,2.9-25.7,1c-3.3-0.7-6.5-1.8-9.2-4c-1.4-1.2-2.2-2.6-2.2-4.6c0.1-6.3,0.1-12.7,0-19 c-0.1-2.8,1.1-4.7,3.4-6.1c1.3-0.8,2.6-1.4,4-2.2C435.9,626.4,435.3,625.7,434.7,625z M432.8,639.5c0,0.4,0,0.9,0,1.4 c0,4.4,0.1,8.7,0,13.1c0,1.6,0.6,2.7,1.9,3.3c2.2,0.9,4.5,1.9,6.9,2.3c7.6,1.4,15.2,1.4,22.7-0.6c1.5-0.4,3-1.1,4.5-1.8 c1.5-0.8,2.1-2.1,1.7-4c-0.8,0.4-1.6,0.8-2.4,1.1c-5.2,2.1-10.7,2.9-16.3,2.8c-1.1,0-1.8-0.7-1.8-1.7c0-1.1,0.7-1.8,2-1.8 c3.9-0.1,7.7-0.3,11.5-1.3c1.8-0.5,3.5-1.2,5.2-2c1.6-0.7,2.4-2,1.9-3.9c-0.2,0.1-0.4,0.1-0.6,0.2c-4,2.1-8.4,3-12.9,3.5 c-1.7,0.2-3.4,0.2-5,0.2c-1.3,0-2.1-0.7-2.1-1.8c0-1.1,0.8-1.7,2.1-1.8c3.9-0.1,7.7-0.4,11.5-1.3c2.1-0.5,4.1-1.2,5.9-2.5 c1.1-0.8,1.4-1.9,1-3.2C457.8,644.9,445.3,645,432.8,639.5z M437.4,619.6c-1.3,0.3-1.7,1-1,2.1c0.7,1.1,1.5,2.2,2.5,3 c5,4.3,10.8,7.2,17,9.4c3.2,1.2,6.5,2,9.9,2.3c1.2,0.1,2.4,0,3.6-0.2c0.7-0.1,1.1-0.6,0.8-1.3c-0.2-0.6-0.4-1.4-0.9-1.8 c-1.5-1.5-3-3-4.7-4.2c-6.7-4.5-13.9-7.8-21.9-9.2c-1.2-0.2-2.3-0.3-3.5-0.4C438.7,619.5,438.1,619.5,437.4,619.6z M453.6,637.1 c-4.6-1.7-8.9-3.9-12.9-6.7c-0.3-0.2-1-0.4-1.4-0.2c-1.7,0.6-3.5,1.1-5.1,2c-2.1,1.1-2,2.7-0.1,4.1c2.2,1.5,4.7,2.2,7.3,2.7 c5.9,1.1,11.8,1.2,17.7,0.4c0.2,0,0.3-0.1,0.6-0.1C457.7,638.5,455.6,637.9,453.6,637.1z"></path> <path class="st21" d="M436.1,650.4c0,1.1,0,2.2,0,3.3c0,1.2,0.7,1.9,1.8,1.9c1,0,1.8-0.7,1.8-1.9c0-2.2,0-4.5,0-6.7 c0-1.1-0.8-1.8-1.8-1.8c-1,0-1.7,0.7-1.7,1.8C436,648.1,436.1,649.2,436.1,650.4z"></path> </g> </g> </g> <path class="st2" d="M697.5,589.8c-0.2-1.9-0.4-3.8-0.7-5.7c-0.6-3.6-1.3-7.2-2-10.7c-0.6-2.5-1.3-5-2-7.4 c-0.7-2.4-1.4-4.8-2.3-7.2c-0.6-1.5-1-3-1-4.7c0.3-5-0.4-9.8-1.9-14.5c-1.7-5.3-4.1-10.1-7.2-14.6c-2.3-3.3-5.1-6.2-7.7-9.2 c-0.6-0.7-1-1.4-1.1-2.4c-0.1-1.5-0.3-3.1-0.7-4.6c-1.3-4.8-3.8-9-7.3-12.7c-6-6.3-13.2-10.7-21.1-14.1c-0.9-0.4-1.8-0.8-2.9-1.3 c2.1-3.6,4.9-6.1,8.1-8.2c3.2-2.1,6.7-3.8,10.3-5.2c-1.5-0.3-2.9-0.6-4.4-0.6c-2.4,0.1-4.8-0.5-7.1-1c-2.8-0.6-5.6-1.6-8.5-2.2 c-1.6-0.4-3.3-0.8-5,0.2c-0.2,0.1-0.7,0.1-1-0.1c-1.5-0.8-3-1-4.6-0.9c-1.7,0.1-3.4,0.1-5.1,0c-4.1-0.1-8.1,0.8-12,2 c-0.8,0.2-1.5,0.6-2.2,1c-1.4,0.9-1.4,2.3,0,3.2c1,0.6,2.1,1.1,3.1,1.6c3.1,1.5,6.3,2.9,9.3,4.5c2.3,1.2,4,3.1,5.2,5.6 c-0.5,0.3-1,0.5-1.4,0.7c-0.8,0.3-1.6,0.6-2.4,1c-4.9,2.3-9.6,4.8-13.9,8.1c-4.5,3.4-8.4,7.4-11.1,12.5c-1.6,3-2.8,6.1-2.8,9.6 c0,1.1-0.4,2-1.2,2.9c-5,5-9.2,10.6-12.3,17.1c-2,4-3.4,8.2-4.2,12.6c-0.7,3.4-0.9,6.9-0.8,10.4c0,0.7-0.2,1.5-0.4,2.2 c-1.1,3.4-2.4,6.8-3.5,10.3c-0.8,2.6-1.4,5.3-2,7.9c-0.9,3.8-0.8,7.6-1,11.5c0,0.6,0.3,1.1,0.3,1.6c0,4.5,0,9,0,13.5 c0,0.4-0.4,0.9-0.3,1.3c0.3,1.6,0.1,3.3,0.3,4.9c0.2,1.6,0.6,2.9,2.2,3.6c2.4,1.1,4.8,2,7.4,2.4c1.3,0.2,2.5,0.4,3.7,0.7 c3.1,0.6,6.1,1,9.3,1.3c4.7,0.5,9.4,0.8,14.1,1.3c3.9,0.4,7.7,0.4,11.6,0.5c1.5,0.1,2.9-1.4,4.4,0.6c10.7,0,21.3,0,32,0 c0.4,0,0.8-0.3,1.2-0.3c3.2-0.1,6.5-0.2,9.7-0.3c0.6,0,1.2-0.1,1.7-0.2c0.9-0.1,1.9-0.3,2.8-0.4c3.1-0.3,6.3-0.4,9.4-0.9 c2.8-0.4,5.5-1.2,8.3-1.7c2.3-0.4,4.4-1.1,6.5-2.1c1.6-0.7,2.8-1.9,3.3-3.7C698.2,603.2,698.1,596.5,697.5,589.8z"></path> <g> <g> <g> <path class="st2" d="M709.4,736.1c0,7.6-6.2,13.8-13.8,13.8c-7.6,0-13.8-6.2-13.8-13.8c0-7.6,6.2-13.8,13.8-13.8 C703.2,722.3,709.4,728.5,709.4,736.1"></path> <path class="st16" d="M705.9,736.1c0,5.7-4.6,10.2-10.2,10.2c-5.7,0-10.2-4.6-10.2-10.2c0-5.7,4.6-10.2,10.2-10.2 C701.3,725.8,705.9,730.4,705.9,736.1"></path> <path class="st2" d="M682.2,709.4l0.5,2.5c0.2,1.3,1.4,2.2,2.7,2.2h21.1c1.3,0,2.4-0.9,2.7-2.2l0.5-2.5c0.3-1.7-1-3.2-2.7-3.2 h-22.1C683.1,706.1,681.9,707.7,682.2,709.4"></path> <path class="st17" d="M689,714l3.6,22.9c0.2,1.4,1.4,2.4,2.8,2.4h0.3c1.4,0,2.6-1,2.8-2.3l4.3-23H689z"></path> <path class="st2" d="M696.9,736.1c0,0.7-0.6,1.3-1.3,1.3s-1.3-0.6-1.3-1.3c0-0.7,0.6-1.3,1.3-1.3S696.9,735.4,696.9,736.1"></path> </g> <g> <path class="st2" d="M577.8,736.1c0,7.6-6.2,13.8-13.8,13.8s-13.8-6.2-13.8-13.8c0-7.6,6.2-13.8,13.8-13.8 S577.8,728.5,577.8,736.1"></path> <path class="st16" d="M574.2,736.1c0,5.7-4.6,10.2-10.2,10.2c-5.7,0-10.2-4.6-10.2-10.2c0-5.7,4.6-10.2,10.2-10.2 C569.6,725.8,574.2,730.4,574.2,736.1"></path> <path class="st2" d="M550.5,709.4l0.5,2.5c0.2,1.3,1.4,2.2,2.7,2.2h21.1c1.3,0,2.4-0.9,2.7-2.2l0.5-2.5c0.3-1.7-1-3.2-2.7-3.2 h-22.1C551.5,706.1,550.2,707.7,550.5,709.4"></path> <path class="st17" d="M557.4,714l3.6,22.9c0.2,1.4,1.4,2.4,2.8,2.4h0.3c1.4,0,2.6-1,2.8-2.3l4.3-23H557.4z"></path> <path class="st2" d="M565.3,736.1c0,0.7-0.6,1.3-1.3,1.3c-0.7,0-1.3-0.6-1.3-1.3c0-0.7,0.6-1.3,1.3-1.3 C564.7,734.8,565.3,735.4,565.3,736.1"></path> </g> <path class="st25" d="M511.9,549.4v30.2c7.8,0,14.1,6.3,14.1,14.1v92.6c0,12.7,10.3,22.9,22.9,22.9h160.2 c12.7,0,22.9-10.3,22.9-22.9v-92.6c0-3.4,1.2-6.6,3.3-9.1c0.3-0.3,0.6-0.6,0.9-0.9c2.6-2.6,6.1-4.1,10-4.1v-30.2h-14.1v-4.3H526 v4.3H511.9z"></path> <path class="st26" d="M640.6,559c47.4,0,67.7,2.4,105.4,6.6V553l-233.9-0.4v12.6C550.9,560.9,593.3,559,640.6,559z"></path> <path class="st25" d="M504.6,555.4h248.9c5.7,0,10.2-4.6,10.2-10.2c0-5.7-4.6-10.2-10.2-10.2H504.6c-5.7,0-10.2,4.6-10.2,10.2 C494.3,550.8,498.9,555.4,504.6,555.4z"></path> <path class="st26" d="M507.8,548.7h63c2.3,0,4.2-1.9,4.2-4.2c0-2.3-1.9-4.2-4.2-4.2h-63c-2.3,0-4.2,1.9-4.2,4.2 C503.6,546.8,505.5,548.7,507.8,548.7z"></path> </g> <circle class="st27" cx="629" cy="631.7" r="64.7"></circle> <g> <path class="st21" d="M658.2,603.4c1,0.5,1.7,1.2,1.7,2.4c0,1.9,0,1,0,2.9c0,0.4-0.1,0.6-0.5,0.6c-3.9,0-7.9,0-11.8,0 c-0.1,0-0.3,0-0.5-0.1c0-1,0-1.5,0-2.4c0-1,0,0.3,0-0.7c0-1.5,0.7-2.4,2.1-2.8C649.2,603.3,658,603.3,658.2,603.4z"></path> <path class="st21" d="M673.2,635.7c-1-4.4-2.3-8.7-4.4-12.7c-1.7-3.3-4.2-5.8-7.8-7c-0.9-0.3-1.3-0.2-1.2-0.9l0-2.8 c-4.2,0-8.3,0-12.5,0c0,1.1,0,2,0,3.2c0,0.4-0.1,0.4-0.5,0.5c-2.3,0.8-4.2,2.2-5.8,3.9c-2.4,2.6-4,5.6-5.2,8.8 c-2.1,5.7-3.1,11.6-3.2,17.6c-0.1,4.6,0.3,9.2,1.7,13.7c0.7,2.4,1.7,4.7,3.4,6.6c1.1,1.3,2.4,2,4.1,2c7.7,0,15.4,0.1,23.1,0.1 c1.6,0,3-0.6,4.1-1.8c0.7-0.8,1.3-1.7,1.9-2.7c1.2-2.1,1.9-4.4,2.4-6.7C675,650.3,674.8,643,673.2,635.7z M659.4,620.9 c2.4-1.1,4.6,2.8,5.6,4.4c1.9,3.2,3.1,7.4,4.2,12.6c0.8,3.5-1.1,6.6-4.1,6.1c-1.3-0.2-2.1-1.8-2.6-3.4c-1.7-5.6-2-7.2-3.7-12.7 c-0.3-1-0.8-3.2-1.1-4C657.4,623,657.9,621.6,659.4,620.9z M670.2,646.8c0,4.7-0.6,9.4-2.3,13.8c-0.5,1.3-1.1,2.6-2.2,3.5 c-0.3,0.2-0.7,0.4-1,0.4c-7.6,0-15.2-0.1-22.7-0.1c-0.4,0-0.9-0.3-1.1-0.5c-1.3-1.4-2-3.1-2.5-4.9c-1.5-4.7-1.9-9.6-1.7-14.6 c0.2-4.5,1.3-9.4,2.5-13.6c0.2-0.4,2.9-11.1,9.3-11.3c5.3-0.1,8.5,17.8,10.7,23.6c1.4,5.2,6.3,6.5,10.8,3.5 C670.4,646,670.2,646.7,670.2,646.8z"></path> <g> <path class="st21" d="M618.9,587.8c0-2.9,0-0.9-0.1-3.9c0-1.8-0.4-3-2-3.7c-0.2-0.1-14.1-0.2-14.2-0.1c-2.1,0.7-3.1,2.1-3.1,4.4 c0,1.6,0,2,0,3.4C599.9,587.9,618.9,587.8,618.9,587.8z"></path> <path class="st21" d="M626.7,617.9c0.6-1.1,1.3-2,1.6-3.1c0.9-4.3,0.9-8.5-1.9-12.1c-1.4-1.9-3-3.6-4.7-5.3 c-3.7-3.8-2.3-7.3-2.9-7.3c-0.8,0-2.1,0-2.8,0c-0.2,0-0.6,0.3-0.6,0.5c-0.2,3,0.1,5.8,2.4,8.1c1.3,1.4,2.6,2.8,4,4.1 c2.8,2.6,3.7,5.9,3.3,9.6c-0.2,2.1-1.8,3.6-3.7,3.4c-1.2-0.1-3.8-0.1-3.9-0.1c-1,0-1.9,0.8-1.9,1.9c0,1,0.7,1.8,1.7,1.9v0 c0.2,0,2.8,0.1,4.1,0.1c1.6,0,2.9,0.8,3.4,2.1c0.6,1.6,0.3,4.1-0.7,5c-0.7,0.7-1.5,1.1-2.5,1c-1.2-0.1-3.9-0.1-4-0.1 c-1,0-1.9,0.8-1.9,1.9c0,1,0.7,1.7,1.6,1.9c0,0,3,0.1,4.4,0.1c0.5,0,1,0.1,1.4,0.3c1.7,0.9,2.3,2.6,1.9,4.9 c-0.2,1.6-2,2.9-3.5,2.9c-1.5,0-4.2,0-4.2,0.1c-0.9,0.1-1.7,0.9-1.7,1.9c0,1,0.8,1.9,1.9,1.9c0.8,0,2.5,0,3.6-0.1 c2.1,0,4,1.6,4,4c-0.1,4.6,0,9.2,0,13.8c0,2-2.1,4.3-4,4.5c-2.4,0.2-3.1-0.1-5.8-1.3c-1-0.6-2.6-1.5-5.5-1.4 c-2.5,0.1-4.7,0.8-6.2,1.5c-1.2,0.5-2.5,1.2-5.7,1.1c-1.9-0.1-4-2-4-3.8c0-5,0-10,0-15c0-1.8,1.5-3.2,3.4-3.2c1.2,0,4.5,0,4.7,0 c1,0,1.9-0.8,1.9-1.9c0-1-0.8-1.9-1.9-1.9c-0.1,0-5.3,0-5.8-0.2c-2.4-0.9-3.3-5.1-1.4-6.9c0.7-0.7,1.5-1.1,2.6-1.1 c1.2,0,4.4-0.1,4.6-0.1c1,0,1.9-0.8,1.9-1.9c0-1-0.8-1.9-1.9-1.9c-0.2,0-3.5,0.1-4.9,0c-0.4,0-0.8-0.1-1.2-0.3 c-1.8-0.9-2.3-2.4-1.8-5.3c0.3-1.5,1.7-2.5,3.1-2.5c1.2,0,2.5,0,3.7,0c0.2,0,0.9-0.1,1.1-0.1c1,0,1.9-0.8,1.9-1.9 c0-1-0.9-1.9-1.9-1.9c-0.2,0-3,0-4.6,0c-1.7,0-3.6-1.6-3.5-3.6c0-0.7,0-1.5,0-2.2c-0.1-2.3,0.6-4.2,2.1-5.9 c1.4-1.6,2.8-3.1,4.3-4.5c2.6-2.4,3.7-5.5,3.5-9c0-0.2-0.2-0.6-0.3-0.6c-1.1,0-2.2,0-3.5,0c0,2.7-1.3,5.7-3.4,7.8 c-0.4,0.4-0.8,0.8-1.2,1.3c-1.2,1.4-2.5,2.8-3.5,4.4c-2.6,4.1-2.4,10.2,0.3,14.2c-2.9,4.5-2.9,7.6,0,11.9c-2.8,4-2.8,8,0,12.1 c-1.9,1.8-2.1,4.3-2.1,6.8c0,4.3,0,8.5,0,12.8c0,0.4,0,0.9,0.1,1.3c0.9,3.9,4.7,6.8,8.6,6.8c0.7,0,1.4,0.1,2,0 c1-0.1,2.3-0.5,3.2-0.9c2.3-1.3,3.8-1.7,5.9-1.7c1.4,0,4.3,1,4.6,1.1c1.5,0.8,3.6,1.7,6.3,1.7c4-0.1,8.1-4.5,8.1-8.6 c0-4.1,0-8.3,0-12.4c0-2.6-0.3-5-2.2-6.9c2.9-4.2,2.9-7.8,0-12C629.5,625.6,629.5,621.9,626.7,617.9z"></path> </g> </g> </g> </g> </svg>