<svg xmlns="http://www.w3.org/2000/svg" id="Layer_1" viewBox="0 0 716.66 671.83"><defs><style>.cls-1{fill:#00bff2;}.cls-2{fill:#0081b9;}.cls-3{fill:#ffd039;}.cls-4{fill:#ff7200;}.cls-5{fill:#009bce;}.cls-6{fill:#998079;}.cls-7{fill:#d4582a;}.cls-8{fill:#4a596e;}.cls-9{fill:#55ba52;}.cls-10{fill:none;stroke:#e8efea;stroke-linecap:round;stroke-linejoin:round;stroke-width:15px;}</style></defs><g><path class="cls-4" d="M463.18,118.12c5.56-5.05,13.01-14.93,17.68-11.85,4.67,3.09,39.41,76.42,18.01,105.96-29.48,40.71-108.22,30.87-115.67-16.6-5.81-37.02,75.29-73.26,79.99-77.53"></path><path class="cls-4" d="M478.92,97.3c-7.19-4.1,1.78-19.56,3.94-20.34,3.42-1.23,18.37-.04,21.04,2.73,1.72,1.8-12.54,16.68-15.02,18.01-2.47,1.34-9.96-.4-9.96-.4"></path></g><g><path class="cls-4" d="M294.07,65.56c3.14-6.54,6.02-18.26,11.73-16.83,5.72,1.43,69.35,59.64,61.54,94.39-10.75,47.87-89.28,63.7-116.27,21.22-21.04-33.12,40.36-93.24,43-98.77"></path><path class="cls-4" d="M300.21,40.86c-8.51-1.58-6.54-19.05-4.82-20.47,2.71-2.25,17.33-5.91,21.02-4.13,2.39,1.15-4.84,19.75-6.62,21.81-1.77,2.05-9.58,2.79-9.58,2.79"></path></g><g><path class="cls-5" d="M434.56,68.29c6.48-3.71,15.95-11.62,19.59-7.83,3.64,3.79,18.22,79.39-9.26,103.2-37.84,32.81-109.57,8.76-104.86-37.37,3.68-35.96,89.03-54.86,94.53-58"></path><path class="cls-5" d="M454.53,51.64c-5.75-5.22,6.51-18.1,8.74-18.42,3.53-.52,17.31,3.4,19.14,6.53,1.18,2.01-15.95,13.35-18.6,14.15-2.66,.8-9.28-2.25-9.28-2.25"></path></g><g><path class="cls-8" d="M225.68,93.67c-5.22-5.05-12.2-14.93-16.58-11.85-4.38,3.09-36.96,76.42-16.88,105.96,27.65,40.71,101.49,30.87,108.48-16.6,5.45-37.02-70.6-73.26-75.02-77.53"></path><path class="cls-8" d="M212.56,78.5c8.14,.35,11.82-16.53,10.72-18.24-1.74-2.71-13.73-9.31-17.61-8.44-2.5,.57-1.8,19.65-.84,21.98s7.73,4.7,7.73,4.7"></path></g><g><path class="cls-2" d="M329.09,312.11c-6.88-5.81-16.11-17.22-21.88-13.65-5.79,3.56-48.79,88.1-22.29,122.17,36.49,46.93,133.94,35.59,143.17-19.13,7.2-42.67-93.17-84.46-99-89.38"></path><path class="cls-2" d="M309.6,288.12c8.88-4.73-2.2-22.55-4.87-23.45-4.23-1.41-22.73-.05-26.05,3.15-2.13,2.08,15.53,19.22,18.59,20.76,3.05,1.55,12.32-.47,12.32-.47"></path></g><g><path class="cls-5" d="M286.12,131.2c6.57-3.6,16.56-11.55,19.29-7.26,2.74,4.29,4.01,86.47-25.12,110.44-40.13,33.03-102.32,2.89-90.55-46.43,9.17-38.45,90.82-53.7,96.38-56.75"></path><path class="cls-5" d="M307.2,114.48c-4.46-5.95,8.9-19.08,11.01-19.29,3.33-.35,15.4,4.7,16.58,8.17,.76,2.24-16.83,13.4-19.4,14.1-2.58,.7-8.18-2.98-8.18-2.98"></path></g><g><path class="cls-9" d="M428.26,152.16c-3.14-6.54-6.02-18.26-11.73-16.83-5.72,1.43-69.35,59.64-61.54,94.39,10.75,47.87,89.28,63.7,116.27,21.22,21.04-33.12-40.36-93.24-43-98.77"></path><path class="cls-9" d="M422.13,127.46c8.51-1.58,6.54-19.05,4.82-20.47-2.71-2.25-17.33-5.91-21.02-4.13-2.39,1.15,4.84,19.75,6.62,21.81,1.77,2.05,9.58,2.79,9.58,2.79"></path></g><g><path class="cls-7" d="M346.47,150.12c4.68-5.15,10.52-15.04,15.48-12.36s48.77,70.75,32.15,100.25c-22.9,40.65-100.49,35.87-114.31-9.08-10.76-35.05,62.73-74.45,66.69-78.82"></path><path class="cls-7" d="M358.83,129.3c-7.53-3.5-.99-18.81,.98-19.67,3.14-1.38,17.78-1.12,20.75,1.38,1.92,1.62-9.84,16.68-12.04,18.1-2.21,1.42-9.7,.2-9.7,.2"></path></g><g><path class="cls-4" d="M343.33,221.97c-2.69-6.83-4.86-18.79-10.49-17.93-5.63,.86-70.59,52.67-64.88,88.07,7.87,48.77,83.31,72.23,111.83,32.53,22.23-30.96-34.18-96.9-36.46-102.67"></path><path class="cls-4" d="M338.7,196.75c8.35-.75,7.39-18.36,5.8-19.94-2.51-2.51-16.52-7.58-20.21-6.17-2.38,.92,3.65,20.17,5.26,22.39s9.15,3.72,9.15,3.72"></path></g><g><path class="cls-6" d="M487.5,210.15c5.56-5.05,13.01-14.93,17.68-11.85,4.67,3.09,39.41,76.42,18.01,105.96-29.48,40.71-108.22,30.87-115.67-16.6-5.81-37.02,75.29-73.26,79.99-77.53"></path><path class="cls-6" d="M503.26,189.33c-7.19-4.1,1.78-19.56,3.94-20.34,3.42-1.23,18.37-.04,21.04,2.73,1.72,1.8-12.54,16.68-15.02,18.01-2.47,1.34-9.96-.4-9.96-.4"></path></g><g><path class="cls-6" d="M320.39,376.38c7.43,1.93,20.23,2.9,19.83,8.27-.41,5.38-49.14,71.21-86.95,68.99-52.08-3.03-83.57-71.96-44.31-102.38,30.62-23.71,105.14,23.49,111.43,25.11"></path><path class="cls-6" d="M347.36,378.48c.04-7.93,18.67-8.6,20.48-7.25,2.86,2.14,9.48,14.88,8.32,18.48-.74,2.32-21.58-1.62-24.06-2.94s-4.74-8.28-4.74-8.28"></path></g><g><path class="cls-9" d="M270.46,239.65c5.86-4.54,11.2-5.6,15.65-1.91,4.45,3.7,36.94,74.56,13.73,102.42-31.98,38.38-109.66,19.38-113.99-30.13-3.38-38.6,79.65-66.55,84.61-70.39"></path><path class="cls-9" d="M285.75,226.21c-6.87-5.02,3.03-19.85,5.24-20.4,3.48-.87,18.27,2.03,20.75,5.19,1.6,2.04-13.57,15.67-16.11,16.76s-9.88-1.55-9.88-1.55"></path></g><g><path class="cls-3" d="M424.99,226.45c7.5-3.38,19.22-11.57,21.56-5.86,2.33,5.71-7.59,106.91-41.91,131.75-47.29,34.23-109.41-12.69-90.11-71.44,15.05-45.8,104.13-51.58,110.47-54.44"></path><path class="cls-3" d="M449.74,209.25c-3.93-8.02,12.11-22.03,14.38-21.96,3.6,.1,15.76,8.21,16.54,12.67,.5,2.88-19.77,13.8-22.61,14.25s-8.31-4.96-8.31-4.96"></path></g><g><path class="cls-8" d="M410.43,271.62c-1.12-8.14-5.62-21.14,.49-23.08,6.13-1.94,100.15,17.24,114.2,55.36,19.35,52.5-43.13,113.48-93.88,88.16-39.56-19.74-19.87-113.54-20.81-120.43"></path><path class="cls-8" d="M400.98,244.2c-8.78,3.42-17.65-14.6-16.94-16.97,1.12-3.75,12.32-15.8,16.8-16.23,2.89-.28,7.62,21.9,7.24,24.92-.37,3.01-7.09,8.28-7.09,8.28"></path></g><g><path class="cls-1" d="M234.04,191.58c-5.02-5.55-11.45-16.09-16.41-13.47-4.96,2.64-46.9,72.32-28.56,103.75,25.25,43.31,104.6,40.99,116.79-5.55,9.5-36.29-67.57-80.05-71.83-84.74"></path><path class="cls-1" d="M220.45,169.37c7.56-3.4,.19-19.64-1.88-20.62-3.28-1.55-18.28-1.79-21.21,.73-1.9,1.63,10.81,17.78,13.14,19.35,2.32,1.57,9.95,.54,9.95,.54"></path></g><g><path class="cls-4" d="M226.72,398.31c-5.56-5.05-13.01-14.93-17.68-11.85-4.67,3.09-39.41,76.42-18.01,105.96,29.48,40.71,108.22,30.87,115.67-16.6,5.81-37.02-75.29-73.26-79.99-77.53"></path><path class="cls-4" d="M210.97,377.5c7.19-4.1-1.78-19.56-3.94-20.34-3.42-1.23-18.37-.04-21.04,2.73-1.72,1.8,12.54,16.68,15.02,18.01,2.47,1.34,9.96-.4,9.96-.4"></path></g><g><path class="cls-6" d="M382.28,294.46c-3.14-6.54-6.02-18.26-11.73-16.83-5.72,1.43-69.35,59.64-61.54,94.39,10.75,47.87,89.28,63.7,116.27,21.22,21.04-33.12-40.36-93.24-43-98.77"></path><path class="cls-6" d="M376.14,269.77c8.51-1.58,6.54-19.05,4.82-20.47-2.71-2.25-17.33-5.91-21.02-4.13-2.39,1.15,4.84,19.75,6.62,21.81,1.77,2.05,9.58,2.79,9.58,2.79"></path></g><g><path class="cls-8" d="M280.01,285.56c-6.48-3.71-15.95-11.62-19.59-7.83-3.64,3.79-18.22,79.39,9.26,103.2,37.84,32.81,109.57,8.76,104.86-37.37-3.68-35.96-89.03-54.86-94.53-58"></path><path class="cls-8" d="M260.02,268.91c5.75-5.22-6.51-18.1-8.74-18.42-3.53-.52-17.31,3.4-19.14,6.53-1.18,2.01,15.95,13.35,18.6,14.15,2.66,.8,9.28-2.25,9.28-2.25"></path></g><g><path class="cls-1" d="M483.26,331.99c4.94-5.43,10.36-12.93,16.22-13.1,15.38-.45,48.14,73.18,30.27,104.18-24.62,42.71-104.15,38.73-117.11-7.98-10.1-36.43,66.42-78.5,70.61-83.1"></path><path class="cls-1" d="M495.99,315.26c-7.63-3.55-.51-19.61,1.55-20.55,3.26-1.48,18.28-1.4,21.26,1.17,1.93,1.66-10.55,17.53-12.85,19.04-2.3,1.52-9.96,.33-9.96,.33"></path></g><g><path class="cls-8" d="M294.88,494.59c-.43-9.64-4.1-24.97,2.72-27.43,6.83-2.48,106.99,17.79,118.63,62.68,16.04,61.83-57.5,135.96-110.15,107.25-41.05-22.39-10.83-134.34-11.2-142.5"></path><path class="cls-8" d="M287.22,462.28c-9.85,4.29-17.76-16.86-16.77-19.7,1.57-4.49,14.86-19.09,19.76-19.73,3.17-.4,6.19,25.81,5.49,29.41-.69,3.59-8.47,10.01-8.47,10.01"></path></g><g><path class="cls-5" d="M440.37,385.3c-6.05-4.45-14.83-13.74-18.39-9.66-3.58,4.09-19.76,88.14,5.66,116.07,35.01,38.47,104,14.74,100.92-37.15-2.41-40.46-83.05-65.49-88.18-69.26"></path><path class="cls-5" d="M421.87,365.75c5.63-5.59-5.65-20.57-7.75-21.04-3.34-.74-16.58,3.03-18.41,6.45-1.18,2.21,14.76,15.68,17.27,16.69s8.9-2.1,8.9-2.1"></path></g><g><path class="cls-9" d="M286.3,380.28c3.14-7.97,6.02-22.24,11.73-20.5,5.72,1.74,69.35,72.65,61.54,114.97-10.75,58.31-89.28,77.59-116.27,25.85-21.04-40.34,40.36-113.57,43-120.31"></path><path class="cls-9" d="M292.43,350.2c-8.51-1.93-6.54-23.21-4.82-24.94,2.71-2.74,17.33-7.2,21.02-5.03,2.39,1.4-4.84,24.06-6.62,26.57-1.77,2.5-9.58,3.4-9.58,3.4"></path></g><g><path class="cls-7" d="M426.84,365.94c6.29-3.84,15.47-12.03,19-8.11,3.53,3.92,17.68,82.16-8.98,106.81-36.72,33.96-106.31,9.07-101.74-38.67,3.57-37.22,86.38-56.78,91.72-60.03"></path><path class="cls-7" d="M446.22,348.71c-5.58-5.4,6.32-18.73,8.48-19.07,3.42-.54,16.8,3.52,18.57,6.76,1.14,2.09-15.47,13.82-18.05,14.64-2.58,.83-9-2.33-9-2.33"></path></g><g><path class="cls-4" d="M371.24,439.24c2.69-6.83,4.86-18.79,10.49-17.93,5.63,.86,70.59,52.67,64.88,88.07-7.87,48.77-64.36,71.35-114.54,11.52-24.68-29.43,36.89-75.89,39.17-81.67"></path><path class="cls-4" d="M375.87,414.03c-8.35-.75-7.39-18.36-5.8-19.94,2.51-2.51,16.52-7.58,20.21-6.17,2.38,.92-3.65,20.17-5.26,22.39s-9.15,3.72-9.15,3.72"></path></g><g><path class="cls-2" d="M225.46,312.42c-5.18-5.71-12.14-16.89-16.49-13.4-4.36,3.5-36.76,86.46-16.8,119.88,27.5,46.06,100.95,34.93,107.9-18.78,5.42-41.88-70.23-82.88-74.62-87.71"></path><path class="cls-2" d="M216.98,289.34c6.7-4.64-1.66-22.13-3.67-23.01-3.19-1.39-17.14-.05-19.63,3.09-1.6,2.04,11.7,18.87,14.01,20.37,2.31,1.52,9.29-.46,9.29-.46"></path></g><g><path class="cls-9" d="M418.44,510.66c-5.72-4.94-13.61-15.06-17.93-11.03-4.33,4.04-33.18,90.35-10.47,120.69,31.29,41.8,107.02,20.93,111.12-33.05,3.2-42.09-77.87-72.42-82.72-76.61"></path><path class="cls-9" d="M401.79,489.37c6.7-5.48-3.01-21.64-5.16-22.24-3.39-.95-17.82,2.25-20.22,5.69-1.56,2.23,13.27,17.06,15.76,18.25,2.49,1.19,9.63-1.71,9.63-1.71"></path></g><g><path class="cls-3" d="M250.71,435.41c-4.11-6.03-8.63-17.92-14.39-14.06-5.78,3.87-64.59,93.91-51.96,129.45,17.38,48.97,101.26,35.34,123.92-22.63,17.66-45.21-54.08-87.65-57.56-92.76"></path><path class="cls-3" d="M241.12,410.38c8.66-5.15,4.36-23.79,2.39-24.69-3.12-1.43-18.83,.32-22.45,3.77-2.34,2.23,7.61,20.04,9.72,21.62,2.11,1.58,10.34-.7,10.34-.7"></path></g><g><path class="cls-2" d="M326.17,543.7c2.69-7.99,9.94-20.46,3.67-23.04-6.28-2.59-118.31,4.27-133.77,43-34.47,86.32,26.04,117.62,85.63,97.8,46.45-15.47,42.2-110.99,44.49-117.75"></path><path class="cls-2" d="M338.01,522.11c8.9,4.34,21.78-12.67,21.45-15.1-.53-3.86-10.47-17.04-15.24-17.94-3.09-.58-12.23,21.01-12.38,24.06-.14,3.05,6.18,9,6.18,9"></path></g><g><path class="cls-1" d="M487.99,471.83c5.29-5.34,11.45-11.57,17.04-12.82,14.52-3.25,25.52,69.34,23.53,104.76-3.72,66.13-106.47,36.92-116.41-10.05-7.75-36.62,71.36-77.37,75.84-81.89"></path><path class="cls-1" d="M504.29,452.22c-7.39-3.69,.75-19.63,2.86-20.53,3.35-1.42,18.35-1.08,21.16,1.55,1.82,1.7-11.66,17.35-14.06,18.83-2.4,1.48-9.97,.15-9.97,.15"></path></g><line class="cls-10" x1="187.43" y1="7.5" x2="187.43" y2="664.33"></line><line class="cls-10" x1="529.22" y1="7.5" x2="529.22" y2="664.33"></line><g><line class="cls-10" x1="7.5" y1="305.92" x2="153.45" y2="305.92"></line><polyline class="cls-10" points="121.7 260.36 167.92 306.58 123.38 351.12"></polyline></g><g><line class="cls-10" x1="563.21" y1="305.92" x2="709.16" y2="305.92"></line><polyline class="cls-10" points="593.28 351.12 548.74 306.58 594.96 260.36"></polyline></g></svg>